{"glyphs":{"0":{"ha":833,"x_min":104,"x_max":729,"o":"m 417 -14 q 336 -14 417 -14 q 180 120 256 -14 q 104 467 104 254 q 181 805 104 679 q 417 931 258 931 q 652 805 575 931 q 729 467 729 679 q 653 120 729 254 q 417 -14 578 -14 m 417 29 q 485 29 417 29 q 618 150 554 29 q 682 467 682 271 q 619 773 682 658 q 417 888 556 888 q 215 773 278 888 q 151 467 151 658 q 215 150 151 271 q 417 29 279 29 z "},"1":{"ha":503,"x_min":56,"x_max":332,"o":"m 332 917 l 332 0 l 288 0 l 288 868 l 67 796 l 56 833 l 311 917 l 332 917 z "},"2":{"ha":751,"x_min":68,"x_max":675,"o":"m 675 40 l 675 0 l 68 0 l 68 17 l 403 358 q 537 519 493 451 q 581 665 581 586 q 555 775 581 724 q 480 857 529 826 q 363 888 431 888 q 242 855 293 888 q 163 771 190 822 q 136 663 136 719 q 147 579 136 619 l 100 579 q 89 664 89 619 q 122 792 89 731 q 216 892 154 854 q 360 931 278 931 q 499 896 438 931 q 594 801 560 861 q 628 668 628 740 q 603 549 628 604 q 539 447 578 493 q 432 331 500 401 l 147 40 l 675 40 z "},"3":{"ha":733,"x_min":49,"x_max":650,"o":"m 358 557 q 497 527 431 557 q 607 435 564 497 q 650 281 650 372 q 607 122 650 189 q 493 21 564 56 q 342 -14 422 -14 q 169 35 242 -14 q 49 160 97 85 l 82 185 q 344 29 182 29 q 478 61 419 29 q 570 151 538 93 q 603 282 603 208 q 531 454 603 390 q 333 518 460 518 l 264 518 l 264 535 l 549 876 l 104 876 l 104 917 l 622 917 l 622 900 l 335 556 q 358 557 342 557 z "},"4":{"ha":728,"x_min":36,"x_max":689,"o":"m 689 186 l 543 186 l 543 0 l 499 0 l 499 186 l 36 186 l 36 203 l 349 917 l 394 917 l 92 226 l 499 226 l 499 576 l 543 576 l 543 226 l 689 226 l 689 186 z "},"5":{"ha":760,"x_min":74,"x_max":676,"o":"m 360 560 q 586 489 496 560 q 676 281 676 418 q 633 122 676 189 q 521 21 590 56 q 375 -14 451 -14 q 196 35 269 -14 q 74 158 122 83 l 106 183 q 375 28 206 28 q 506 60 447 28 q 597 149 564 92 q 629 281 629 207 q 558 455 629 392 q 358 518 486 518 l 157 518 l 157 917 l 626 917 l 626 876 l 201 876 l 201 556 q 360 560 283 560 z "},"6":{"ha":753,"x_min":83,"x_max":669,"o":"m 375 569 q 524 531 457 569 q 631 424 592 492 q 669 278 669 357 q 631 131 669 197 q 526 25 593 64 q 376 -14 458 -14 q 227 25 294 -14 q 122 131 160 64 q 83 279 83 197 q 109 405 83 349 q 190 543 135 461 l 211 574 l 439 917 l 492 917 l 226 525 q 375 569 290 569 m 376 26 q 411 26 376 26 q 503 59 446 26 q 592 149 560 92 q 625 276 625 206 q 592 405 625 347 q 503 496 560 463 q 376 529 446 529 q 250 496 307 529 q 160 405 193 463 q 128 276 128 347 q 160 149 128 206 q 250 59 193 92 q 376 26 307 26 z "},"7":{"ha":669,"x_min":44,"x_max":632,"o":"m 632 917 l 632 900 l 131 0 l 83 0 l 571 876 l 44 876 l 44 917 l 632 917 z "},"8":{"ha":789,"x_min":90,"x_max":699,"o":"m 447 486 q 628 385 558 446 q 699 225 699 324 q 662 101 699 156 q 556 17 625 47 q 394 -14 488 -14 q 233 17 301 -14 q 127 102 164 47 q 90 226 90 157 q 342 485 90 401 q 189 578 243 522 q 135 715 135 633 q 209 873 135 815 q 394 931 283 931 q 580 873 506 931 q 654 714 654 815 q 447 486 654 557 m 179 714 q 234 591 179 638 q 394 506 289 544 q 555 591 500 544 q 610 714 610 638 q 549 842 610 794 q 394 890 488 890 q 240 842 301 890 q 179 714 179 794 m 394 26 q 585 82 517 26 q 654 226 654 138 q 619 334 654 290 q 531 406 585 378 q 394 463 478 433 q 258 406 311 433 q 169 334 204 378 q 135 226 135 290 q 204 82 135 138 q 394 26 274 26 z "},"9":{"ha":753,"x_min":83,"x_max":669,"o":"m 376 931 q 417 931 376 931 q 526 892 458 931 q 631 786 593 853 q 669 638 669 719 q 644 512 669 568 q 563 374 618 456 l 542 343 l 314 0 l 261 0 l 526 392 q 378 347 463 347 q 228 386 296 347 q 122 492 161 425 q 83 639 83 560 q 122 786 83 719 q 227 892 160 853 q 376 931 294 931 m 376 388 q 411 388 376 388 q 503 421 446 388 q 592 512 560 454 q 625 640 625 569 q 592 768 625 711 q 503 858 560 825 q 376 890 446 890 q 250 858 307 890 q 160 768 193 825 q 128 640 128 711 q 160 512 128 569 q 250 421 193 454 q 376 388 307 388 z "}," ":{"ha":389,"x_min":0,"x_max":0,"o":""},"!":{"ha":375,"x_min":133,"x_max":242,"o":"m 161 917 l 214 917 l 207 253 l 168 253 l 161 917 m 186 -14 q 149 1 165 -14 q 133 39 133 15 q 149 79 133 64 q 186 94 165 94 q 225 80 208 94 q 242 39 242 65 q 225 1 242 15 q 186 -14 208 -14 z "},"\"":{"ha":563,"x_min":144,"x_max":421,"o":"m 172 917 l 226 917 l 181 583 l 144 583 l 172 917 m 367 917 l 421 917 l 375 583 l 339 583 l 367 917 z "},"#":{"ha":790,"x_min":43,"x_max":747,"o":"m 615 621 l 571 296 l 717 296 l 717 257 l 565 257 l 531 0 l 490 0 l 525 257 l 210 257 l 175 0 l 135 0 l 169 257 l 43 257 l 43 296 l 175 296 l 218 621 l 74 621 l 74 660 l 224 660 l 258 917 l 300 917 l 265 660 l 579 660 l 614 917 l 656 917 l 621 660 l 747 660 l 747 621 l 615 621 m 531 296 l 574 621 l 260 621 l 215 296 l 531 296 z "},"$":{"ha":742,"x_min":65,"x_max":635,"o":"m 635 243 q 565 94 635 151 q 392 31 496 36 l 392 -126 l 349 -126 l 349 32 q 186 88 257 38 q 65 222 115 139 l 101 246 q 349 74 196 88 l 349 461 l 319 475 q 184 560 233 515 q 135 683 135 606 q 196 819 135 768 q 349 879 257 871 l 349 1043 l 392 1043 l 392 881 q 622 742 533 874 l 589 717 q 501 806 549 776 q 392 838 454 835 l 392 489 l 440 465 q 584 371 533 421 q 635 243 635 321 m 349 508 l 349 836 q 230 792 278 829 q 182 686 182 756 q 203 609 182 640 q 256 558 224 578 q 340 513 288 538 l 349 508 m 392 72 q 533 122 478 76 q 588 242 588 167 q 545 348 588 307 q 419 428 503 389 l 392 440 l 392 72 z "},"%":{"ha":1150,"x_min":104,"x_max":1046,"o":"m 322 492 q 292 492 322 492 q 213 521 263 492 q 133 600 163 550 q 104 711 104 650 q 133 822 104 772 q 213 901 163 872 q 322 931 263 931 q 432 901 382 931 q 512 822 482 872 q 542 711 542 772 q 512 600 542 650 q 432 521 482 550 q 322 492 382 492 m 819 917 l 863 917 l 333 0 l 290 0 l 819 917 m 322 532 q 360 532 322 532 q 447 583 397 532 q 497 711 497 635 q 447 839 497 788 q 322 890 397 890 q 198 839 247 890 q 149 711 149 788 q 198 583 149 635 q 322 532 247 532 m 826 -12 q 797 -12 826 -12 q 717 17 767 -12 q 638 96 667 46 q 608 207 608 146 q 638 318 608 268 q 717 397 667 368 q 826 426 767 426 q 936 397 886 426 q 1016 318 986 368 q 1046 207 1046 268 q 1016 96 1046 146 q 936 17 986 46 q 826 -12 886 -12 m 826 28 q 864 28 826 28 q 951 79 901 28 q 1001 207 1001 131 q 951 335 1001 283 q 826 386 901 386 q 702 335 751 386 q 653 207 653 283 q 702 79 653 131 q 826 28 751 28 z "},"&":{"ha":817,"x_min":74,"x_max":790,"o":"m 640 175 l 789 0 l 733 0 l 614 142 q 485 26 551 65 q 338 -14 419 -14 q 203 16 264 -14 q 108 97 143 46 q 74 213 74 149 q 126 356 74 289 q 304 508 178 424 q 214 636 242 583 q 186 746 186 689 q 236 879 186 828 q 367 931 286 931 q 497 881 446 931 q 549 756 549 832 q 502 627 549 689 q 364 500 456 565 l 613 208 q 729 386 656 267 l 754 425 l 790 403 q 640 175 683 235 m 368 888 q 267 849 304 888 q 231 746 231 811 q 253 651 231 697 q 339 529 276 606 q 464 646 424 590 q 504 757 504 701 q 467 852 504 817 q 368 888 429 888 m 336 29 q 469 66 410 29 q 586 174 529 103 l 328 479 q 198 372 242 414 q 136 294 154 329 q 118 215 118 258 q 180 82 118 135 q 336 29 242 29 z "},"'":{"ha":368,"x_min":144,"x_max":226,"o":"m 172 917 l 226 917 l 181 583 l 144 583 l 172 917 z "},"(":{"ha":438,"x_min":121,"x_max":396,"o":"m 379 -182 q 196 13 271 -128 q 121 415 121 153 q 196 818 121 678 q 379 1013 271 958 l 396 979 q 232 793 300 928 q 164 415 164 658 q 232 38 164 172 q 396 -149 300 -97 l 379 -182 z "},")":{"ha":438,"x_min":42,"x_max":317,"o":"m 42 -149 q 206 38 138 -97 q 274 415 274 172 q 206 793 274 658 q 42 979 138 928 l 58 1013 q 242 818 167 958 q 317 415 317 678 q 242 13 317 153 q 58 -182 167 -128 l 42 -149 z "},"*":{"ha":506,"x_min":72,"x_max":433,"o":"m 296 843 l 433 758 l 417 729 l 274 806 l 269 644 l 236 644 l 232 806 l 89 729 l 72 758 l 210 843 l 72 928 l 89 957 l 232 881 l 236 1042 l 269 1042 l 274 881 l 417 957 l 433 928 l 296 843 z "},"+":{"ha":778,"x_min":92,"x_max":685,"o":"m 368 410 l 92 410 l 92 449 l 368 449 l 368 732 l 410 732 l 410 449 l 685 449 l 685 410 l 410 410 l 410 126 l 368 126 l 368 410 z "},",":{"ha":389,"x_min":149,"x_max":232,"o":"m 176 88 l 232 88 l 188 -250 l 149 -250 l 176 88 z "},"-":{"ha":472,"x_min":83,"x_max":389,"o":"m 83 449 l 389 449 l 389 410 l 83 410 l 83 449 z "},".":{"ha":389,"x_min":140,"x_max":249,"o":"m 193 -14 q 156 1 172 -14 q 140 39 140 15 q 156 79 140 64 q 193 94 172 94 q 232 80 215 94 q 249 39 249 65 q 232 1 249 15 q 193 -14 215 -14 z "},"/":{"ha":799,"x_min":14,"x_max":785,"o":"m 740 1083 l 785 1083 l 58 -168 l 14 -168 l 740 1083 z "},":":{"ha":389,"x_min":140,"x_max":249,"o":"m 193 561 q 156 576 172 561 q 140 614 140 590 q 156 654 140 639 q 193 669 172 669 q 232 655 215 669 q 249 614 249 640 q 232 576 249 590 q 193 561 215 561 m 193 -14 q 156 1 172 -14 q 140 39 140 15 q 156 79 140 64 q 193 94 172 94 q 232 80 215 94 q 249 39 249 65 q 232 1 249 15 q 193 -14 215 -14 z "},";":{"ha":389,"x_min":140,"x_max":249,"o":"m 193 561 q 156 576 172 561 q 140 614 140 590 q 156 654 140 639 q 193 669 172 669 q 232 655 215 669 q 249 614 249 640 q 232 576 249 590 q 193 561 215 561 m 176 88 l 232 88 l 188 -250 l 149 -250 l 176 88 z "},"<":{"ha":778,"x_min":88,"x_max":667,"o":"m 667 638 l 167 431 l 667 224 l 667 181 l 88 422 l 88 439 l 667 681 l 667 638 z "},"=":{"ha":778,"x_min":106,"x_max":671,"o":"m 106 588 l 671 588 l 671 549 l 106 549 l 106 588 m 106 308 l 671 308 l 671 269 l 106 269 l 106 308 z "},">":{"ha":778,"x_min":111,"x_max":690,"o":"m 690 439 l 690 422 l 111 181 l 111 224 l 611 431 l 111 638 l 111 681 l 690 439 z "},"?":{"ha":611,"x_min":86,"x_max":536,"o":"m 246 311 q 272 397 246 358 q 360 493 299 435 q 435 571 410 542 q 476 633 461 600 q 492 708 492 667 q 440 839 492 788 q 313 890 389 890 q 197 851 247 890 q 125 736 147 811 l 86 750 q 169 881 110 831 q 311 931 229 931 q 425 901 374 931 q 506 822 476 872 q 536 710 536 772 q 517 619 536 660 q 469 547 497 579 q 388 465 440 515 q 313 384 335 415 q 290 311 290 353 q 300 253 290 288 l 258 253 q 246 311 246 281 m 289 -14 q 251 1 267 -14 q 235 40 235 15 q 251 80 235 65 q 289 94 268 94 q 326 79 310 94 q 343 40 343 64 q 326 1 343 15 q 289 -14 310 -14 z "},"@":{"ha":1256,"x_min":79,"x_max":1176,"o":"m 847 58 l 847 185 q 754 83 819 121 q 613 44 689 44 q 472 83 535 44 q 372 188 408 121 q 336 333 336 254 q 372 478 336 413 q 472 583 408 544 q 613 621 535 621 q 754 583 689 621 q 847 481 819 544 l 847 610 l 888 610 l 888 99 q 1065 188 997 107 q 1132 401 1132 269 q 1069 632 1132 526 q 894 799 1006 738 q 643 860 782 860 q 380 793 499 860 q 192 610 261 726 q 124 353 124 494 q 192 94 124 211 q 381 -90 261 -22 q 646 -157 501 -157 q 846 -119 756 -157 l 858 -156 q 642 -197 758 -197 q 358 -124 486 -197 q 154 76 229 -50 q 79 354 79 203 q 154 631 79 506 q 358 828 229 756 q 640 900 486 900 q 912 833 789 900 q 1106 653 1035 767 q 1176 404 1176 539 q 1135 223 1176 301 q 1022 101 1094 144 q 856 58 949 58 l 847 58 m 615 85 q 728 111 675 85 q 813 194 781 138 q 846 333 846 250 q 813 472 846 417 q 728 554 781 528 q 615 581 676 581 q 494 548 547 581 q 410 459 440 515 q 381 333 381 403 q 410 207 381 264 q 494 117 440 150 q 615 85 547 85 z "},"A":{"ha":924,"x_min":63,"x_max":861,"o":"m 714 243 l 208 243 l 108 0 l 63 0 l 451 931 l 472 931 l 861 0 l 815 0 l 714 243 m 225 283 l 697 283 l 461 853 l 225 283 z "},"B":{"ha":847,"x_min":143,"x_max":778,"o":"m 564 508 q 722 424 667 492 q 778 260 778 357 q 703 73 778 146 q 496 0 629 0 l 143 0 l 143 917 l 451 917 q 626 856 564 917 q 688 700 688 796 q 656 585 688 635 q 564 508 624 535 m 188 876 l 188 519 l 447 519 q 592 569 543 519 q 642 699 642 619 q 594 828 642 776 q 447 878 546 879 l 188 876 m 493 40 q 669 102 607 40 q 732 258 732 164 q 669 417 732 354 q 493 479 607 479 l 188 479 l 188 40 l 493 40 z "},"C":{"ha":985,"x_min":79,"x_max":906,"o":"m 543 -14 q 309 49 415 -14 q 141 219 203 111 q 79 458 79 328 q 141 699 79 590 q 309 869 203 807 q 543 931 415 931 q 749 883 654 931 q 906 751 843 835 l 872 725 q 731 844 815 801 q 544 888 647 888 q 331 831 426 888 q 181 677 236 775 q 126 460 126 579 q 181 242 126 340 q 331 86 235 143 q 544 29 426 29 q 731 72 647 29 q 872 192 815 115 l 906 165 q 749 34 843 82 q 543 -14 654 -14 z "},"D":{"ha":969,"x_min":143,"x_max":890,"o":"m 143 917 l 392 917 q 663 858 550 917 q 833 694 775 799 q 890 460 890 590 q 833 225 890 329 q 663 60 775 121 q 392 0 550 0 l 143 0 l 143 917 m 392 40 q 637 97 535 40 q 791 248 739 153 q 843 460 843 343 q 791 672 843 578 q 637 822 739 767 q 392 876 535 876 l 188 876 l 188 40 l 392 40 z "},"E":{"ha":779,"x_min":143,"x_max":724,"o":"m 143 917 l 707 917 l 707 876 l 188 876 l 188 519 l 596 519 l 596 479 l 188 479 l 188 40 l 724 40 l 724 0 l 143 0 l 143 917 z "},"F":{"ha":714,"x_min":143,"x_max":693,"o":"m 143 917 l 693 917 l 693 876 l 188 876 l 188 493 l 610 493 l 610 453 l 188 453 l 188 0 l 143 0 l 143 917 z "},"G":{"ha":1033,"x_min":79,"x_max":946,"o":"m 543 -14 q 308 49 414 -14 q 140 219 201 111 q 79 458 79 328 q 141 699 79 590 q 309 869 203 807 q 543 931 415 931 q 749 883 654 931 q 906 751 843 835 l 872 725 q 731 844 815 801 q 544 888 647 888 q 331 831 426 888 q 181 677 236 775 q 126 460 126 579 q 181 242 126 340 q 331 86 235 143 q 546 29 428 29 q 753 81 660 29 q 901 222 847 132 l 901 397 l 543 397 l 543 439 l 946 439 l 946 215 q 777 47 885 107 q 543 -14 669 -14 z "},"H":{"ha":978,"x_min":143,"x_max":835,"o":"m 143 917 l 188 917 l 188 519 l 790 519 l 790 917 l 835 917 l 835 0 l 790 0 l 790 479 l 188 479 l 188 0 l 143 0 l 143 917 z "},"I":{"ha":331,"x_min":143,"x_max":188,"o":"m 143 917 l 188 917 l 188 0 l 143 0 l 143 917 z "},"J":{"ha":501,"x_min":42,"x_max":358,"o":"m 42 0 l 42 40 q 149 29 101 29 q 269 64 225 29 q 314 188 314 99 l 314 917 l 358 917 l 358 188 q 301 35 358 83 q 150 -14 244 -14 q 42 0 100 -14 z "},"K":{"ha":831,"x_min":143,"x_max":775,"o":"m 143 917 l 188 917 l 188 0 l 143 0 l 143 917 m 775 0 l 715 0 l 214 499 l 682 917 l 744 917 l 275 499 l 775 0 z "},"L":{"ha":685,"x_min":143,"x_max":651,"o":"m 143 917 l 188 917 l 188 40 l 651 40 l 651 0 l 143 0 l 143 917 z "},"M":{"ha":1086,"x_min":143,"x_max":943,"o":"m 943 931 l 943 0 l 899 0 l 899 813 l 554 307 l 533 307 l 188 813 l 188 0 l 143 0 l 143 931 l 164 931 l 543 372 l 922 931 l 943 931 z "},"N":{"ha":978,"x_min":143,"x_max":835,"o":"m 835 917 l 835 -14 l 814 -14 l 188 821 l 188 0 l 143 0 l 143 931 l 164 931 l 790 89 l 790 917 l 835 917 z "},"O":{"ha":1089,"x_min":79,"x_max":1010,"o":"m 543 -14 q 479 -14 543 -14 q 309 49 415 -14 q 141 219 203 111 q 79 458 79 328 q 141 699 79 590 q 309 869 203 807 q 543 931 415 931 q 778 868 671 931 q 947 698 885 806 q 1010 458 1010 590 q 947 219 1010 328 q 778 49 885 111 q 543 -14 671 -14 m 544 29 q 757 86 661 29 q 908 242 853 143 q 963 460 963 340 q 908 676 963 578 q 757 831 853 774 q 544 888 661 888 q 332 831 428 888 q 181 677 236 775 q 126 460 126 579 q 181 242 126 340 q 331 86 236 143 q 544 29 426 29 z "},"P":{"ha":774,"x_min":143,"x_max":711,"o":"m 143 917 l 447 917 q 641 849 571 917 q 711 675 711 781 q 641 500 711 568 q 447 432 571 432 l 188 432 l 188 0 l 143 0 l 143 917 m 444 472 q 608 528 551 472 q 665 674 665 585 q 608 819 665 763 q 444 876 551 876 l 188 876 l 188 472 l 444 472 z "},"Q":{"ha":1089,"x_min":79,"x_max":1426,"o":"m 1426 -214 l 1426 -251 q 1290 -264 1356 -264 q 743 31 957 -264 q 543 -14 650 -14 q 309 49 415 -14 q 141 219 203 111 q 79 458 79 328 q 141 699 79 590 q 309 869 203 807 q 543 931 415 931 q 778 868 671 931 q 947 698 885 806 q 1010 458 1010 590 q 947 219 1010 328 q 779 50 885 111 q 1006 -155 881 -86 q 1289 -224 1132 -224 q 1426 -214 1349 -224 m 126 460 q 126 400 126 460 q 181 242 126 340 q 331 86 235 143 q 544 29 426 29 q 758 86 663 29 q 908 242 853 143 q 963 460 963 340 q 908 676 963 578 q 758 831 853 774 q 544 888 663 888 q 331 831 426 888 q 181 677 236 775 q 126 460 126 579 z "},"R":{"ha":844,"x_min":143,"x_max":813,"o":"m 758 0 l 433 432 l 188 432 l 188 0 l 143 0 l 143 917 l 447 917 q 641 849 571 917 q 711 675 711 781 q 652 511 711 578 q 488 433 593 444 l 813 0 l 758 0 m 188 472 l 444 472 q 608 528 551 472 q 665 674 665 585 q 608 819 665 763 q 444 876 551 876 l 188 876 l 188 472 z "},"S":{"ha":771,"x_min":69,"x_max":668,"o":"m 393 -14 q 207 38 289 -14 q 69 179 125 89 l 103 204 q 228 76 154 124 q 394 29 301 29 q 557 81 493 29 q 621 221 621 132 q 602 309 621 274 q 545 371 583 344 q 439 431 507 397 l 333 481 q 231 536 269 511 q 163 605 192 561 q 135 714 135 649 q 209 873 135 815 q 393 931 283 931 q 547 894 479 931 q 658 792 614 857 l 625 765 q 396 888 536 888 q 246 846 310 888 q 182 717 182 804 q 203 630 182 665 q 260 572 225 594 q 354 519 294 549 l 460 469 q 617 366 565 419 q 668 221 668 313 q 632 98 668 151 q 533 15 596 44 q 393 -14 471 -14 z "},"T":{"ha":811,"x_min":38,"x_max":774,"o":"m 383 876 l 38 876 l 38 917 l 774 917 l 774 876 l 428 876 l 428 0 l 383 0 l 383 876 z "},"U":{"ha":942,"x_min":128,"x_max":814,"o":"m 472 -14 q 220 84 313 -14 q 128 350 128 182 l 128 917 l 172 917 l 172 350 q 254 114 172 199 q 472 29 336 29 q 688 114 607 29 q 769 350 769 199 l 769 917 l 814 917 l 814 350 q 772 156 814 239 q 653 30 731 74 q 472 -14 576 -14 z "},"V":{"ha":924,"x_min":63,"x_max":861,"o":"m 861 917 l 472 -14 l 451 -14 l 63 917 l 108 917 l 463 68 l 815 917 l 861 917 z "},"W":{"ha":1496,"x_min":76,"x_max":1419,"o":"m 1419 917 l 1086 -14 l 1065 -14 l 749 846 l 431 -14 l 410 -14 l 76 917 l 122 917 l 421 69 l 738 931 l 758 931 l 1075 69 l 1374 917 l 1419 917 z "},"X":{"ha":804,"x_min":56,"x_max":749,"o":"m 697 0 l 403 435 l 107 0 l 56 0 l 378 472 l 79 917 l 131 917 l 404 507 l 674 917 l 725 917 l 429 471 l 749 0 l 697 0 z "},"Y":{"ha":847,"x_min":82,"x_max":765,"o":"m 446 397 l 446 0 l 401 0 l 401 397 l 82 917 l 129 917 l 424 435 l 718 917 l 765 917 l 446 397 z "},"Z":{"ha":819,"x_min":58,"x_max":764,"o":"m 764 40 l 764 0 l 58 0 l 58 17 l 694 876 l 119 876 l 119 917 l 763 917 l 763 900 l 126 40 l 764 40 z "},"[":{"ha":468,"x_min":156,"x_max":385,"o":"m 156 1013 l 385 1013 l 385 974 l 197 974 l 197 -143 l 385 -143 l 385 -182 l 156 -182 l 156 1013 z "},"\\":{"ha":799,"x_min":14,"x_max":785,"o":"m 14 1083 l 58 1083 l 785 -168 l 740 -168 l 14 1083 z "},"]":{"ha":468,"x_min":83,"x_max":313,"o":"m 83 -143 l 271 -143 l 271 974 l 83 974 l 83 1013 l 313 1013 l 313 -182 l 83 -182 l 83 -143 z "},"^":{"ha":685,"x_min":96,"x_max":589,"o":"m 543 406 l 343 853 l 142 406 l 96 406 l 332 931 l 353 931 l 589 406 l 543 406 z "},"_":{"ha":694,"x_min":69,"x_max":625,"o":"m 69 -117 l 625 -117 l 625 -156 l 69 -156 l 69 -117 z "},"`":{"ha":833,"x_min":324,"x_max":508,"o":"m 324 1076 l 324 1083 l 375 1083 l 508 781 l 472 781 l 324 1076 z "},"a":{"ha":717,"x_min":72,"x_max":590,"o":"m 350 681 q 524 614 458 681 q 590 424 590 547 l 590 0 l 549 0 l 549 118 q 447 21 513 56 q 300 -14 381 -14 q 139 32 206 -14 q 72 163 72 78 q 135 288 72 242 q 300 335 197 335 l 549 335 l 549 425 q 494 585 549 531 q 347 640 439 640 q 229 610 279 640 q 138 524 179 579 l 107 549 q 215 647 156 614 q 350 681 274 681 m 301 26 q 424 55 368 26 q 515 133 481 83 q 549 243 549 182 l 549 296 l 301 296 q 165 261 213 296 q 117 165 117 226 q 172 62 117 97 q 301 26 226 26 z "},"b":{"ha":882,"x_min":138,"x_max":799,"o":"m 465 681 q 512 681 465 681 q 635 634 558 681 q 755 508 711 588 q 799 333 799 429 q 755 159 799 239 q 635 33 711 79 q 465 -14 558 -14 q 293 33 372 -14 q 179 160 214 81 l 179 0 l 138 0 l 138 1042 l 179 1042 l 179 507 q 293 633 214 586 q 465 681 372 681 m 465 26 q 613 67 547 26 q 717 178 679 108 q 754 333 754 249 q 717 490 754 419 q 615 600 681 560 q 465 640 549 640 q 325 607 390 640 q 219 505 260 574 q 179 333 179 436 q 219 162 179 231 q 325 60 260 93 q 465 26 390 26 z "},"c":{"ha":768,"x_min":83,"x_max":692,"o":"m 424 -14 q 252 33 331 -14 q 128 159 174 79 q 83 333 83 239 q 128 508 83 429 q 252 634 174 588 q 425 681 331 681 q 575 646 507 681 q 692 549 643 611 l 661 524 q 558 610 618 579 q 425 640 497 640 q 274 599 342 640 q 167 488 206 558 q 128 333 128 418 q 167 178 128 249 q 274 67 206 108 q 424 26 342 26 q 557 57 496 26 q 661 143 618 88 l 692 118 q 574 21 643 56 q 424 -14 506 -14 z "},"d":{"ha":882,"x_min":83,"x_max":744,"o":"m 744 1042 l 744 0 l 703 0 l 703 160 q 589 33 668 81 q 417 -14 510 -14 q 247 33 324 -14 q 127 159 171 79 q 83 333 83 239 q 127 508 83 429 q 247 634 171 588 q 417 681 324 681 q 589 633 510 681 q 703 507 668 586 l 703 1042 l 744 1042 m 417 26 q 557 60 492 26 q 663 162 622 93 q 703 333 703 231 q 663 505 703 436 q 557 607 622 574 q 417 640 492 640 q 267 600 333 640 q 165 490 201 560 q 128 333 128 419 q 165 178 128 249 q 269 67 203 108 q 417 26 335 26 z "},"e":{"ha":796,"x_min":83,"x_max":713,"o":"m 708 329 l 128 329 q 167 175 128 244 q 274 66 207 106 q 424 26 342 26 q 557 57 496 26 q 661 143 618 88 l 692 118 q 574 22 644 57 q 424 -14 504 -14 q 253 33 331 -14 q 129 158 175 79 q 83 333 83 238 q 128 508 83 428 q 249 634 172 588 q 417 681 325 681 q 564 645 496 681 q 672 542 632 610 q 713 386 713 475 q 708 329 713 363 m 414 640 q 277 605 339 640 q 176 507 215 569 q 129 368 136 444 l 668 368 q 640 512 674 450 q 546 607 606 574 q 414 640 486 640 z "},"f":{"ha":375,"x_min":46,"x_max":401,"o":"m 185 868 l 185 667 l 367 667 l 367 628 l 185 628 l 185 0 l 143 0 l 143 628 l 46 628 l 46 667 l 143 667 l 143 868 q 194 1010 143 965 q 332 1056 246 1056 q 401 1047 368 1056 l 401 1010 q 335 1017 363 1017 q 185 868 185 1017 z "},"g":{"ha":892,"x_min":93,"x_max":754,"o":"m 754 667 l 754 56 q 713 -115 754 -43 q 601 -226 672 -187 q 439 -264 529 -264 q 269 -228 349 -264 q 138 -133 189 -192 l 167 -106 q 286 -192 214 -160 q 439 -224 358 -224 q 636 -150 560 -224 q 713 56 713 -76 l 713 169 q 598 47 678 94 q 425 0 518 0 q 257 46 333 0 q 137 170 181 92 q 93 340 93 249 q 137 510 93 432 q 257 635 181 589 q 425 681 333 681 q 598 634 518 681 q 713 511 678 588 l 713 667 l 754 667 m 428 40 q 567 73 503 40 q 672 174 632 106 q 713 340 713 242 q 672 508 713 440 q 567 608 632 575 q 428 640 501 640 q 278 600 344 640 q 174 491 211 560 q 138 340 138 422 q 174 190 138 258 q 278 81 211 121 q 428 40 344 40 z "},"h":{"ha":765,"x_min":138,"x_max":639,"o":"m 397 681 q 574 609 510 681 q 639 424 639 538 l 639 0 l 597 0 l 597 424 q 543 581 597 521 q 396 640 489 640 q 240 579 301 640 q 179 424 179 518 l 179 0 l 138 0 l 138 1042 l 179 1042 l 179 560 q 267 649 211 617 q 397 681 324 681 z "},"i":{"ha":317,"x_min":111,"x_max":206,"o":"m 138 667 l 179 667 l 179 0 l 138 0 l 138 667 m 158 878 q 149 878 158 878 q 125 892 139 878 q 111 925 111 906 q 125 958 111 944 q 158 972 139 972 q 192 958 178 972 q 206 925 206 944 q 192 892 206 906 q 158 878 178 878 z "},"j":{"ha":317,"x_min":-79,"x_max":206,"o":"m -79 -256 l -79 -218 q -12 -225 -40 -225 q 138 -76 138 -225 l 138 667 l 179 667 l 179 -76 q 128 -219 179 -174 q -10 -264 76 -264 q -79 -256 -46 -264 m 158 878 q 149 878 158 878 q 125 892 139 878 q 111 925 111 906 q 125 958 111 944 q 158 972 139 972 q 192 958 178 972 q 206 925 206 944 q 192 892 206 906 q 158 878 178 878 z "},"k":{"ha":643,"x_min":138,"x_max":615,"o":"m 138 1042 l 179 1042 l 179 0 l 138 0 l 138 1042 m 615 0 l 560 0 l 206 375 l 524 667 l 583 667 l 263 374 l 615 0 z "},"l":{"ha":317,"x_min":138,"x_max":179,"o":"m 138 1042 l 179 1042 l 179 0 l 138 0 l 138 1042 z "},"m":{"ha":1194,"x_min":138,"x_max":1068,"o":"m 835 681 q 1007 610 946 681 q 1068 424 1068 539 l 1068 0 l 1026 0 l 1026 424 q 976 580 1026 519 q 835 640 925 640 q 726 613 774 640 q 651 538 678 585 q 624 436 624 490 l 624 0 l 582 0 l 582 424 q 531 581 582 521 q 389 640 479 640 q 238 579 297 640 q 179 424 179 518 l 179 0 l 138 0 l 138 667 l 179 667 l 179 563 q 265 649 210 618 q 390 681 319 681 q 525 642 471 681 q 604 538 579 604 q 692 641 633 601 q 835 681 751 681 z "},"n":{"ha":765,"x_min":138,"x_max":639,"o":"m 397 681 q 574 609 510 681 q 639 424 639 538 l 639 0 l 597 0 l 597 424 q 543 581 597 521 q 396 640 489 640 q 240 579 301 640 q 179 424 179 518 l 179 0 l 138 0 l 138 667 l 179 667 l 179 560 q 267 649 211 617 q 397 681 324 681 z "},"o":{"ha":851,"x_min":83,"x_max":768,"o":"m 424 -14 q 252 32 331 -14 q 128 158 174 78 q 83 333 83 238 q 128 509 83 429 q 252 635 174 589 q 425 681 331 681 q 598 635 519 681 q 722 509 676 589 q 768 333 768 429 q 722 158 768 238 q 597 33 676 79 q 424 -14 518 -14 m 424 26 q 465 26 424 26 q 576 67 507 26 q 684 178 644 108 q 724 333 724 249 q 684 490 724 419 q 576 600 644 560 q 425 640 508 640 q 274 600 342 640 q 167 490 206 560 q 128 333 128 419 q 167 177 128 247 q 273 67 206 107 q 424 26 340 26 z "},"p":{"ha":882,"x_min":138,"x_max":799,"o":"m 465 681 q 512 681 465 681 q 635 634 558 681 q 755 508 711 588 q 799 333 799 428 q 755 158 799 238 q 635 33 711 79 q 465 -14 558 -14 q 293 33 372 -14 q 179 160 214 81 l 179 -250 l 138 -250 l 138 667 l 179 667 l 179 507 q 293 633 214 586 q 465 681 372 681 m 465 26 q 615 67 549 26 q 717 177 681 107 q 754 333 754 247 q 717 488 754 418 q 613 599 679 558 q 465 640 547 640 q 325 607 390 640 q 219 505 260 574 q 179 333 179 436 q 219 162 179 231 q 325 60 260 93 q 465 26 390 26 z "},"q":{"ha":882,"x_min":83,"x_max":744,"o":"m 744 667 l 744 -250 l 703 -250 l 703 160 q 589 33 668 81 q 417 -14 510 -14 q 247 33 324 -14 q 127 158 171 79 q 83 333 83 238 q 127 508 83 428 q 247 634 171 588 q 417 681 324 681 q 589 633 510 681 q 703 507 668 586 l 703 667 l 744 667 m 417 26 q 557 60 492 26 q 663 162 622 93 q 703 333 703 231 q 663 505 703 436 q 557 607 622 574 q 417 640 492 640 q 269 599 335 640 q 165 488 203 558 q 128 333 128 418 q 165 177 128 247 q 267 67 201 107 q 417 26 333 26 z "},"r":{"ha":474,"x_min":138,"x_max":449,"o":"m 449 667 l 449 632 l 417 632 q 304 604 360 632 q 214 524 249 576 q 179 403 179 472 l 179 0 l 138 0 l 138 667 l 179 667 l 179 539 q 275 636 214 603 q 410 669 336 669 q 449 667 426 669 z "},"s":{"ha":632,"x_min":72,"x_max":536,"o":"m 322 -14 q 178 26 240 -14 q 72 132 115 67 l 106 157 q 203 60 150 93 q 325 26 256 26 q 444 61 396 26 q 492 161 492 96 q 472 230 492 201 q 422 276 451 258 q 340 317 393 293 l 282 343 q 162 415 204 378 q 119 515 119 453 q 180 635 119 590 q 322 681 240 681 q 532 574 446 681 l 501 546 q 419 616 463 592 q 319 640 375 640 q 210 609 256 640 q 164 517 164 578 q 181 457 164 481 q 226 418 199 433 q 304 379 253 403 l 367 351 q 491 276 446 317 q 536 164 536 235 q 474 33 536 81 q 322 -14 411 -14 z "},"t":{"ha":486,"x_min":43,"x_max":449,"o":"m 353 25 q 401 28 378 25 q 449 38 425 32 l 449 0 q 350 -14 397 -14 q 215 31 267 -14 q 163 174 163 76 l 163 628 l 43 628 l 43 667 l 163 667 l 163 861 l 204 861 l 204 667 l 426 667 l 426 628 l 204 628 l 204 174 q 353 25 204 25 z "},"u":{"ha":754,"x_min":126,"x_max":628,"o":"m 378 -14 q 343 -14 378 -14 q 251 17 308 -14 q 160 107 193 49 q 126 243 126 165 l 126 667 l 168 667 l 168 243 q 228 84 168 142 q 378 26 288 26 q 526 85 467 26 q 586 243 586 143 l 586 667 l 628 667 l 628 243 q 594 108 628 167 q 504 17 561 49 q 378 -14 447 -14 z "},"v":{"ha":719,"x_min":50,"x_max":669,"o":"m 669 667 l 371 -14 l 350 -14 l 50 667 l 96 667 l 360 60 l 624 667 l 669 667 z "},"w":{"ha":1168,"x_min":50,"x_max":1118,"o":"m 1118 667 l 860 -14 l 839 -14 l 583 596 l 329 -14 l 308 -14 l 50 667 l 96 667 l 318 67 l 574 681 l 594 681 l 850 67 l 1072 667 l 1118 667 z "},"x":{"ha":649,"x_min":42,"x_max":607,"o":"m 556 0 l 324 317 l 93 0 l 42 0 l 297 350 l 64 667 l 115 667 l 324 383 l 533 667 l 585 667 l 350 350 l 607 0 l 556 0 z "},"y":{"ha":719,"x_min":50,"x_max":669,"o":"m 669 667 l 332 -122 q 252 -231 300 -197 q 139 -264 204 -264 q 50 -251 93 -264 l 50 -214 q 136 -225 101 -225 q 229 -197 190 -225 q 296 -104 268 -169 l 343 8 l 50 667 l 96 667 l 365 63 l 624 667 l 669 667 z "},"z":{"ha":621,"x_min":53,"x_max":569,"o":"m 569 39 l 569 0 l 53 0 l 53 17 l 500 628 l 85 628 l 85 667 l 563 667 l 563 650 l 115 39 l 569 39 z "},"{":{"ha":546,"x_min":83,"x_max":463,"o":"m 399 974 q 294 940 329 974 q 258 833 258 907 q 281 672 258 783 q 300 531 300 569 q 277 452 300 478 q 213 415 254 426 q 278 377 257 404 q 300 300 300 350 q 281 160 300 263 q 258 -1 258 49 q 294 -110 258 -76 q 399 -143 329 -143 l 463 -143 l 463 -182 l 399 -182 q 265 -142 314 -182 q 217 -4 217 -101 q 224 78 217 31 q 240 169 232 125 q 258 299 258 263 q 161 396 258 396 l 83 396 l 83 435 l 161 435 q 258 531 258 435 q 240 661 258 565 q 224 755 232 707 q 217 838 217 803 q 265 972 217 932 q 399 1013 313 1013 l 463 1013 l 463 974 l 399 974 z "},"|":{"ha":461,"x_min":210,"x_max":251,"o":"m 210 1083 l 251 1083 l 251 -168 l 210 -168 l 210 1083 z "},"}":{"ha":546,"x_min":83,"x_max":463,"o":"m 463 435 l 463 396 l 385 396 q 288 299 288 396 q 306 169 288 263 q 322 78 314 125 q 329 -4 329 31 q 281 -142 329 -101 q 147 -182 232 -182 l 83 -182 l 83 -143 l 147 -143 q 252 -110 217 -143 q 288 -1 288 -76 q 265 160 288 49 q 246 300 246 263 q 267 377 246 350 q 333 415 289 404 q 269 452 292 426 q 246 531 246 478 q 265 672 246 569 q 288 833 288 783 q 252 940 288 907 q 147 974 217 974 l 83 974 l 83 1013 l 147 1013 q 281 972 233 1013 q 329 838 329 932 q 322 755 329 803 q 306 661 314 707 q 288 531 288 565 q 385 435 288 435 l 463 435 z "},"~":{"ha":778,"x_min":111,"x_max":665,"o":"m 563 328 q 508 339 536 328 q 444 371 479 350 l 307 454 q 217 488 251 488 q 170 468 188 488 q 153 418 153 449 l 153 375 l 113 375 q 112 403 113 393 q 111 418 111 413 q 138 494 111 461 q 214 526 165 526 q 269 515 240 526 q 332 483 297 504 l 469 400 q 560 367 525 367 q 606 386 589 367 q 624 436 624 406 l 624 479 l 664 479 q 665 451 664 461 q 665 436 665 442 q 638 360 665 393 q 563 328 611 328 z "}," ":{"ha":389,"x_min":0,"x_max":0,"o":""},"¡":{"ha":375,"x_min":133,"x_max":242,"o":"m 186 572 q 149 588 165 572 q 133 628 133 603 q 149 666 133 651 q 186 681 165 681 q 225 666 208 681 q 242 628 242 651 q 225 588 242 603 q 186 572 208 572 m 168 414 l 207 414 l 214 -250 l 161 -250 l 168 414 z "},"¢":{"ha":769,"x_min":53,"x_max":661,"o":"m 407 151 q 533 185 476 154 q 631 268 590 215 l 661 243 q 549 149 615 183 q 407 111 483 114 l 407 -126 l 364 -126 l 364 113 q 206 167 278 119 q 94 292 135 215 q 53 458 53 369 q 94 624 53 547 q 206 749 135 701 q 364 804 278 797 l 364 1043 l 407 1043 l 407 806 q 549 768 483 803 q 661 674 615 733 l 631 649 q 533 732 590 701 q 407 765 476 763 l 407 151 m 97 458 q 97 419 97 458 q 132 312 97 379 q 228 202 167 244 q 364 153 289 160 l 364 764 q 227 715 288 757 q 132 605 167 672 q 97 458 97 538 z "},"£":{"ha":686,"x_min":94,"x_max":635,"o":"m 325 288 q 290 145 325 210 q 196 39 254 81 l 624 39 l 624 0 l 94 0 l 94 17 q 229 130 178 61 q 281 286 281 199 q 271 360 281 318 l 108 360 l 108 399 l 258 399 q 213 494 247 426 q 161 608 178 563 q 144 706 144 653 q 210 868 144 806 q 381 931 275 931 q 540 876 475 931 q 635 724 604 822 l 592 710 q 379 889 536 889 q 241 835 290 889 q 192 703 192 782 q 208 615 192 657 q 254 514 224 574 q 306 399 293 436 l 532 399 l 532 360 l 317 360 q 325 288 325 326 z "},"¤":{"ha":926,"x_min":49,"x_max":878,"o":"m 761 458 q 761 429 761 458 q 742 348 761 400 q 688 254 722 296 l 878 64 l 851 36 l 661 226 q 567 167 619 188 q 456 146 514 146 q 349 166 400 146 q 256 222 297 186 l 76 36 l 49 63 l 229 250 q 173 345 193 292 q 153 458 153 399 q 172 572 153 518 q 228 667 192 625 l 49 853 l 75 881 l 256 694 q 348 751 296 731 q 457 771 400 771 q 567 750 515 771 q 661 692 619 729 l 850 881 l 878 853 l 688 663 q 742 569 722 621 q 761 458 761 517 m 456 186 q 589 222 529 186 q 683 321 649 258 q 717 458 717 383 q 683 597 717 535 q 589 696 649 660 q 457 732 529 732 q 324 696 383 732 q 231 597 265 660 q 197 458 197 533 q 231 320 197 382 q 324 222 265 258 q 456 186 383 186 z "},"¥":{"ha":717,"x_min":17,"x_max":700,"o":"m 668 471 l 668 432 l 381 432 l 381 264 l 668 264 l 668 225 l 381 225 l 381 0 l 336 0 l 336 225 l 50 225 l 50 264 l 336 264 l 336 432 l 50 432 l 50 471 l 336 471 l 17 917 l 64 917 l 358 507 l 653 917 l 700 917 l 381 471 l 668 471 z "},"¦":{"ha":461,"x_min":210,"x_max":251,"o":"m 210 1083 l 251 1083 l 251 667 l 210 667 l 210 1083 m 210 249 l 251 249 l 251 -168 l 210 -168 l 210 249 z "},"§":{"ha":761,"x_min":56,"x_max":706,"o":"m 706 249 q 656 127 706 176 q 522 72 607 78 q 529 24 529 47 q 479 -101 529 -51 q 350 -150 429 -150 q 239 -119 289 -150 q 156 -42 189 -89 l 188 -18 q 258 -84 217 -58 q 350 -110 300 -110 q 447 -72 410 -110 q 485 24 485 -35 q 456 111 485 72 q 364 197 426 150 l 239 292 q 97 421 138 368 q 56 535 56 474 q 105 656 56 607 q 239 711 154 706 q 232 760 232 736 q 282 884 232 835 q 411 933 332 933 q 522 903 472 933 q 606 825 572 872 l 574 801 q 503 867 544 842 q 411 893 461 893 q 314 856 351 893 q 276 760 276 818 q 306 672 276 711 q 397 586 335 633 l 522 492 q 663 367 619 418 q 706 249 706 315 m 504 111 q 617 149 572 111 q 661 244 661 186 q 628 338 661 293 q 528 435 594 383 l 393 538 q 256 672 288 618 q 144 635 189 672 q 100 539 100 599 q 133 446 100 490 q 233 349 165 401 l 358 253 q 504 111 468 168 z "},"¨":{"ha":833,"x_min":236,"x_max":596,"o":"m 283 878 q 274 878 283 878 q 250 892 264 878 q 236 925 236 906 q 250 958 236 944 q 283 972 264 972 q 317 958 303 972 q 331 925 331 944 q 317 892 331 906 q 283 878 303 878 m 549 878 q 539 878 549 878 q 515 892 529 878 q 501 925 501 906 q 515 958 501 944 q 549 972 529 972 q 582 958 568 972 q 596 925 596 944 q 582 892 596 906 q 549 878 568 878 z "},"©":{"ha":1089,"x_min":79,"x_max":1010,"o":"m 543 -14 q 479 -14 543 -14 q 309 49 415 -14 q 141 219 203 111 q 79 458 79 328 q 141 699 79 590 q 309 869 203 807 q 543 931 415 931 q 778 868 671 931 q 947 698 885 806 q 1010 458 1010 590 q 947 219 1010 328 q 778 49 885 111 q 543 -14 671 -14 m 544 26 q 603 26 544 26 q 759 84 663 26 q 911 241 856 142 q 967 460 967 340 q 911 676 967 578 q 759 833 856 775 q 544 890 663 890 q 330 833 426 890 q 178 678 233 776 q 122 460 122 579 q 178 241 122 340 q 330 84 233 142 q 544 26 426 26 m 553 181 q 415 218 478 181 q 316 319 353 256 q 279 458 279 383 q 316 599 279 535 q 416 700 353 663 q 554 738 479 738 q 674 709 619 738 q 768 631 729 681 l 739 606 q 657 673 704 649 q 554 697 610 697 q 436 666 489 697 q 353 580 383 635 q 324 458 324 525 q 353 339 324 393 q 436 253 383 285 q 553 221 489 221 q 657 244 610 221 q 739 311 704 268 l 768 288 q 674 209 729 238 q 553 181 618 181 z "},"ª":{"ha":486,"x_min":54,"x_max":392,"o":"m 233 769 q 348 726 304 769 q 392 604 392 683 l 392 339 l 351 339 l 351 407 q 288 351 328 371 q 199 331 249 331 q 96 360 138 331 q 54 444 54 390 q 94 526 54 496 q 201 556 135 556 l 350 556 l 350 606 q 317 698 350 667 q 231 729 285 729 q 159 711 189 729 q 101 660 129 693 l 75 686 q 145 749 107 728 q 233 769 183 769 m 204 368 q 308 403 265 368 q 350 493 350 439 l 350 519 l 204 519 q 126 500 153 519 q 99 444 99 481 q 129 387 99 406 q 204 368 160 368 z "},"«":{"ha":593,"x_min":64,"x_max":528,"o":"m 64 365 l 64 382 l 290 621 l 321 593 l 117 374 l 321 151 l 290 126 l 64 365 m 271 365 l 271 382 l 497 621 l 528 593 l 324 374 l 528 151 l 497 126 l 271 365 z "},"¬":{"ha":778,"x_min":92,"x_max":643,"o":"m 601 410 l 92 410 l 92 449 l 643 449 l 643 124 l 601 124 l 601 410 z "},"­":{"ha":472,"x_min":83,"x_max":389,"o":"m 83 449 l 389 449 l 389 410 l 83 410 l 83 449 z "},"®":{"ha":790,"x_min":72,"x_max":718,"o":"m 394 928 q 438 928 394 928 q 556 884 482 928 q 674 766 631 840 q 718 604 718 692 q 674 443 718 517 q 556 326 631 369 q 394 282 482 282 q 234 326 308 282 q 116 444 160 369 q 72 604 72 518 q 116 766 72 692 q 233 884 160 840 q 394 928 307 928 m 394 322 q 433 322 394 322 q 538 360 472 322 q 640 463 603 399 q 678 604 678 528 q 640 747 678 682 q 538 850 603 813 q 394 888 472 888 q 252 850 317 888 q 150 747 188 813 q 113 604 113 682 q 150 463 113 528 q 252 360 188 399 q 394 322 317 322 m 521 678 q 502 617 521 643 q 450 582 483 592 l 568 431 l 515 431 l 403 575 l 318 575 l 318 431 l 276 431 l 275 779 l 406 779 q 489 751 457 779 q 521 678 521 722 m 404 613 q 458 631 439 613 q 478 676 478 649 q 458 724 478 706 q 404 742 439 742 l 317 742 l 317 613 l 404 613 z "},"¯":{"ha":833,"x_min":242,"x_max":592,"o":"m 242 946 l 592 946 l 592 907 l 242 907 l 242 946 z "},"°":{"ha":500,"x_min":53,"x_max":447,"o":"m 250 539 q 223 539 250 539 q 151 565 196 539 q 79 635 106 590 q 53 735 53 681 q 79 834 53 789 q 151 905 106 879 q 250 931 196 931 q 349 904 304 931 q 421 833 394 878 q 447 735 447 788 q 421 635 447 681 q 349 565 394 590 q 250 539 304 539 m 250 579 q 282 579 250 579 q 358 624 314 579 q 403 735 403 669 q 358 845 403 800 q 250 890 314 890 q 142 845 186 890 q 97 735 97 800 q 142 624 97 669 q 250 579 186 579 z "},"±":{"ha":778,"x_min":106,"x_max":671,"o":"m 368 431 l 106 431 l 106 469 l 368 469 l 368 732 l 410 732 l 410 469 l 671 469 l 671 431 l 410 431 l 410 168 l 368 168 l 368 431 m 106 39 l 671 39 l 671 0 l 106 0 l 106 39 z "},"²":{"ha":499,"x_min":51,"x_max":442,"o":"m 442 544 l 442 506 l 51 506 l 51 518 l 263 735 q 342 831 315 789 q 369 921 369 874 q 334 1013 369 975 q 240 1051 299 1051 q 143 1011 179 1051 q 107 915 107 971 q 111 868 107 893 l 69 868 q 64 918 64 889 q 85 1003 64 963 q 147 1067 107 1043 q 240 1092 188 1092 q 365 1044 317 1092 q 414 924 414 996 q 383 819 414 865 q 290 708 353 772 l 129 544 l 442 544 z "},"³":{"ha":486,"x_min":36,"x_max":424,"o":"m 235 860 q 324 841 281 860 q 395 783 367 822 q 424 685 424 743 q 396 585 424 628 q 323 519 368 542 q 225 497 278 497 q 113 529 161 497 q 36 610 65 561 l 68 632 q 226 538 128 538 q 336 578 293 538 q 379 685 379 619 q 336 785 379 749 q 217 822 293 822 l 168 822 l 168 836 l 338 1044 l 72 1044 l 72 1083 l 407 1083 l 407 1069 l 235 860 z "},"´":{"ha":833,"x_min":324,"x_max":508,"o":"m 457 1083 l 508 1083 l 508 1076 l 360 781 l 324 781 l 457 1083 z "},"µ":{"ha":803,"x_min":138,"x_max":767,"o":"m 767 38 l 767 0 q 718 -6 740 -6 q 636 24 667 -6 q 599 108 606 53 q 513 18 568 50 q 388 -14 458 -14 q 265 17 318 -14 q 179 106 211 49 l 179 -250 l 138 -250 l 138 667 l 179 667 l 179 256 q 206 138 179 190 q 281 56 233 85 q 388 26 328 26 q 538 91 479 26 q 597 256 597 156 l 597 667 l 639 667 l 639 147 q 724 33 639 33 q 767 38 740 33 z "},"¶":{"ha":729,"x_min":63,"x_max":586,"o":"m 382 347 q 219 383 292 347 q 104 485 146 419 q 63 635 63 550 q 104 783 63 719 q 218 882 146 847 q 382 917 290 917 l 467 917 l 467 347 l 382 347 m 297 -250 l 297 -211 q 390 -224 357 -224 q 503 -187 461 -224 q 544 -60 544 -151 l 544 917 l 586 917 l 586 -60 q 534 -216 586 -168 q 394 -264 482 -264 q 297 -250 349 -264 z "},"·":{"ha":389,"x_min":140,"x_max":249,"o":"m 193 375 q 156 390 172 375 q 140 428 140 404 q 156 468 140 453 q 193 483 172 483 q 232 469 215 483 q 249 428 249 454 q 232 390 249 404 q 193 375 215 375 z "},"¸":{"ha":833,"x_min":293,"x_max":539,"o":"m 293 -250 l 293 -212 q 379 -225 350 -225 q 461 -198 428 -225 q 494 -118 494 -171 q 476 -53 494 -79 q 424 0 457 -26 l 436 18 q 510 -37 482 -1 q 539 -121 539 -74 q 497 -222 539 -181 q 383 -264 454 -264 q 293 -250 342 -264 z "},"¹":{"ha":474,"x_min":71,"x_max":408,"o":"m 71 544 l 226 544 l 226 1044 l 71 1044 l 71 1083 l 269 1083 l 269 544 l 408 544 l 408 506 l 71 506 l 71 544 z "},"º":{"ha":563,"x_min":63,"x_max":500,"o":"m 281 331 q 251 331 281 331 q 171 360 221 331 q 92 439 121 389 q 63 550 63 489 q 92 661 63 611 q 171 740 121 711 q 281 769 221 769 q 390 740 340 769 q 470 661 440 711 q 500 550 500 611 q 470 439 500 489 q 390 360 440 389 q 281 331 340 331 m 281 371 q 318 371 281 371 q 406 422 356 371 q 456 550 456 474 q 406 678 456 626 q 281 729 356 729 q 156 678 206 729 q 107 550 107 626 q 156 422 107 474 q 281 371 206 371 z "},"»":{"ha":593,"x_min":65,"x_max":529,"o":"m 65 151 l 269 374 l 65 593 l 96 621 l 322 382 l 322 365 l 96 126 l 65 151 m 272 151 l 476 374 l 272 593 l 303 621 l 529 382 l 529 365 l 303 126 l 272 151 z "},"¼":{"ha":1182,"x_min":71,"x_max":1153,"o":"m 71 378 l 226 378 l 226 878 l 71 878 l 71 917 l 269 917 l 269 378 l 408 378 l 408 339 l 71 339 l 71 378 m 874 917 l 917 917 l 388 0 l 344 0 l 874 917 m 1153 114 l 1064 114 l 1064 0 l 1021 0 l 1021 114 l 731 114 l 731 128 l 925 578 l 969 578 l 786 153 l 1021 153 l 1021 363 l 1064 363 l 1064 153 l 1153 153 l 1153 114 z "},"½":{"ha":1238,"x_min":71,"x_max":1181,"o":"m 71 378 l 226 378 l 226 878 l 71 878 l 71 917 l 269 917 l 269 378 l 408 378 l 408 339 l 71 339 l 71 378 m 874 917 l 917 917 l 388 0 l 344 0 l 874 917 m 1181 39 l 1181 0 l 790 0 l 790 13 l 1001 229 q 1081 326 1054 283 q 1108 415 1108 368 q 1073 508 1108 469 q 979 546 1038 546 q 882 506 918 546 q 846 410 846 465 q 850 363 846 388 l 808 363 q 803 413 803 383 q 824 497 803 457 q 886 562 846 538 q 979 586 926 586 q 1104 538 1056 586 q 1153 418 1153 490 q 1122 313 1153 360 q 1029 203 1092 267 l 868 39 l 1181 39 z "},"¾":{"ha":1146,"x_min":36,"x_max":1117,"o":"m 235 693 q 324 674 281 693 q 395 616 367 656 q 424 518 424 576 q 396 418 424 461 q 323 353 368 375 q 225 331 278 331 q 113 363 161 331 q 36 443 65 394 l 68 465 q 226 371 128 371 q 336 412 293 371 q 379 518 379 453 q 336 619 379 582 q 217 656 293 656 l 168 656 l 168 669 l 338 878 l 72 878 l 72 917 l 407 917 l 407 903 l 235 693 m 838 917 l 881 917 l 351 0 l 308 0 l 838 917 m 1117 114 l 1028 114 l 1028 0 l 985 0 l 985 114 l 694 114 l 694 128 l 889 578 l 933 578 l 750 153 l 985 153 l 985 363 l 1028 363 l 1028 153 l 1117 153 l 1117 114 z "},"¿":{"ha":611,"x_min":75,"x_max":525,"o":"m 321 572 q 310 572 321 572 q 283 588 300 572 q 267 628 267 603 q 283 666 267 651 q 321 681 300 681 q 358 667 342 681 q 375 628 375 653 q 358 588 375 603 q 321 572 342 572 m 300 -264 q 186 -235 238 -264 q 105 -156 135 -206 q 75 -43 75 -106 q 94 47 75 7 q 142 119 114 88 q 224 201 171 151 q 299 283 276 251 q 321 356 321 314 q 311 414 321 381 l 353 414 q 365 356 365 386 q 339 270 365 308 q 251 174 313 232 q 176 96 201 125 q 135 33 150 67 q 119 -42 119 0 q 171 -172 119 -121 q 299 -224 222 -224 q 414 -184 364 -224 q 486 -69 464 -144 l 525 -83 q 442 -214 501 -164 q 300 -264 382 -264 z "},"À":{"ha":924,"x_min":63,"x_max":861,"o":"m 714 243 l 208 243 l 108 0 l 63 0 l 451 931 l 472 931 l 861 0 l 815 0 l 714 243 m 225 283 l 697 283 l 461 853 l 225 283 m 296 1257 l 296 1264 l 347 1264 l 481 1006 l 444 1006 l 296 1257 z "},"Á":{"ha":924,"x_min":63,"x_max":861,"o":"m 714 243 l 208 243 l 108 0 l 63 0 l 451 931 l 472 931 l 861 0 l 815 0 l 714 243 m 225 283 l 697 283 l 461 853 l 225 283 m 576 1264 l 628 1264 l 628 1257 l 479 1006 l 443 1006 l 576 1264 z "},"Â":{"ha":924,"x_min":63,"x_max":861,"o":"m 714 243 l 208 243 l 108 0 l 63 0 l 451 931 l 472 931 l 861 0 l 815 0 l 714 243 m 225 283 l 697 283 l 461 853 l 225 283 m 638 1006 l 463 1208 l 286 1006 l 249 1006 l 451 1264 l 472 1264 l 675 1006 l 638 1006 z "},"Ã":{"ha":924,"x_min":63,"x_max":861,"o":"m 714 243 l 208 243 l 108 0 l 63 0 l 451 931 l 472 931 l 861 0 l 815 0 l 714 243 m 225 283 l 697 283 l 461 853 l 225 283 m 575 1047 q 530 1056 549 1047 q 478 1088 511 1065 l 424 1124 q 354 1153 379 1153 q 317 1136 331 1153 q 304 1090 304 1119 l 304 1061 l 264 1061 q 263 1088 263 1069 q 287 1163 263 1133 q 350 1192 311 1192 q 395 1183 376 1192 q 447 1151 414 1174 l 501 1115 q 571 1086 546 1086 q 608 1103 594 1086 q 621 1149 621 1119 l 621 1178 l 661 1178 q 663 1151 663 1169 q 638 1076 663 1106 q 575 1047 614 1047 z "},"Ä":{"ha":924,"x_min":63,"x_max":861,"o":"m 714 243 l 208 243 l 108 0 l 63 0 l 451 931 l 472 931 l 861 0 l 815 0 l 714 243 m 225 283 l 697 283 l 461 853 l 225 283 m 308 1072 q 299 1072 308 1072 q 275 1086 289 1072 q 261 1119 261 1100 q 275 1153 261 1139 q 308 1167 289 1167 q 342 1153 328 1167 q 356 1119 356 1139 q 342 1086 356 1100 q 308 1072 328 1072 m 615 1072 q 606 1072 615 1072 q 582 1086 596 1072 q 568 1119 568 1100 q 582 1153 568 1139 q 615 1167 596 1167 q 649 1153 635 1167 q 663 1119 663 1139 q 649 1086 663 1100 q 615 1072 635 1072 z "},"Å":{"ha":924,"x_min":63,"x_max":861,"o":"m 714 243 l 208 243 l 108 0 l 63 0 l 451 931 l 472 931 l 861 0 l 815 0 l 714 243 m 225 283 l 697 283 l 461 853 l 225 283 m 463 994 q 434 994 463 994 q 366 1034 406 994 q 326 1129 326 1074 q 366 1224 326 1185 q 463 1264 406 1264 q 559 1224 519 1264 q 599 1129 599 1185 q 559 1034 599 1074 q 463 994 519 994 m 463 1033 q 483 1033 463 1033 q 530 1061 503 1033 q 557 1129 557 1089 q 530 1197 557 1169 q 463 1225 503 1225 q 395 1197 422 1225 q 368 1129 368 1169 q 395 1061 368 1089 q 463 1033 422 1033 z "},"Æ":{"ha":1106,"x_min":28,"x_max":1050,"o":"m 1050 40 l 1050 0 l 667 0 l 624 244 l 201 244 l 75 0 l 28 0 l 506 917 l 1033 917 l 1033 876 l 557 876 l 621 519 l 922 519 l 922 479 l 628 479 l 707 40 l 1050 40 m 222 285 l 617 285 l 515 854 l 222 285 z "},"Ç":{"ha":985,"x_min":79,"x_max":906,"o":"m 543 -14 q 309 49 415 -14 q 141 219 203 111 q 79 458 79 328 q 141 699 79 590 q 309 869 203 807 q 543 931 415 931 q 749 883 654 931 q 906 751 843 835 l 872 725 q 731 844 815 801 q 544 888 647 888 q 331 831 426 888 q 181 677 236 775 q 126 460 126 579 q 181 242 126 340 q 331 86 235 143 q 544 29 426 29 q 731 72 647 29 q 872 192 815 115 l 906 165 q 749 34 843 82 q 543 -14 654 -14 m 393 -250 l 393 -212 q 479 -225 450 -225 q 561 -198 528 -225 q 594 -118 594 -171 q 576 -53 594 -79 q 524 0 557 -26 l 536 18 q 610 -37 582 -1 q 639 -121 639 -74 q 597 -222 639 -181 q 483 -264 554 -264 q 393 -250 442 -264 z "},"È":{"ha":779,"x_min":143,"x_max":724,"o":"m 143 917 l 707 917 l 707 876 l 188 876 l 188 519 l 596 519 l 596 479 l 188 479 l 188 40 l 724 40 l 724 0 l 143 0 l 143 917 m 251 1257 l 251 1264 l 303 1264 l 436 1006 l 400 1006 l 251 1257 z "},"É":{"ha":779,"x_min":143,"x_max":724,"o":"m 143 917 l 707 917 l 707 876 l 188 876 l 188 519 l 596 519 l 596 479 l 188 479 l 188 40 l 724 40 l 724 0 l 143 0 l 143 917 m 532 1264 l 583 1264 l 583 1257 l 435 1006 l 399 1006 l 532 1264 z "},"Ê":{"ha":779,"x_min":143,"x_max":724,"o":"m 143 917 l 707 917 l 707 876 l 188 876 l 188 519 l 596 519 l 596 479 l 188 479 l 188 40 l 724 40 l 724 0 l 143 0 l 143 917 m 593 1006 l 418 1208 l 242 1006 l 204 1006 l 407 1264 l 428 1264 l 631 1006 l 593 1006 z "},"Ë":{"ha":779,"x_min":143,"x_max":724,"o":"m 143 917 l 707 917 l 707 876 l 188 876 l 188 519 l 596 519 l 596 479 l 188 479 l 188 40 l 724 40 l 724 0 l 143 0 l 143 917 m 264 1072 q 254 1072 264 1072 q 231 1086 244 1072 q 217 1119 217 1100 q 231 1153 217 1139 q 264 1167 244 1167 q 297 1153 283 1167 q 311 1119 311 1139 q 297 1086 311 1100 q 264 1072 283 1072 m 571 1072 q 561 1072 571 1072 q 538 1086 551 1072 q 524 1119 524 1100 q 538 1153 524 1139 q 571 1167 551 1167 q 604 1153 590 1167 q 618 1119 618 1139 q 604 1086 618 1100 q 571 1072 590 1072 z "},"Ì":{"ha":331,"x_min":-1,"x_max":188,"o":"m 143 917 l 188 917 l 188 0 l 143 0 l 143 917 m -1 1257 l -1 1264 l 50 1264 l 183 1006 l 147 1006 l -1 1257 z "},"Í":{"ha":331,"x_min":143,"x_max":331,"o":"m 143 917 l 188 917 l 188 0 l 143 0 l 143 917 m 279 1264 l 331 1264 l 331 1257 l 182 1006 l 146 1006 l 279 1264 z "},"Î":{"ha":331,"x_min":-49,"x_max":378,"o":"m 143 917 l 188 917 l 188 0 l 143 0 l 143 917 m 340 1006 l 165 1208 l -11 1006 l -49 1006 l 154 1264 l 175 1264 l 378 1006 l 340 1006 z "},"Ï":{"ha":331,"x_min":-36,"x_max":365,"o":"m 143 917 l 188 917 l 188 0 l 143 0 l 143 917 m 11 1072 q 1 1072 11 1072 q -22 1086 -8 1072 q -36 1119 -36 1100 q -22 1153 -36 1139 q 11 1167 -8 1167 q 44 1153 31 1167 q 58 1119 58 1139 q 44 1086 58 1100 q 11 1072 31 1072 m 318 1072 q 308 1072 318 1072 q 285 1086 299 1072 q 271 1119 271 1100 q 285 1153 271 1139 q 318 1167 299 1167 q 351 1153 338 1167 q 365 1119 365 1139 q 351 1086 365 1100 q 318 1072 338 1072 z "},"Ð":{"ha":969,"x_min":0,"x_max":890,"o":"m 392 917 q 663 858 550 917 q 833 694 775 799 q 890 460 890 590 q 833 225 890 329 q 663 60 775 121 q 392 0 550 0 l 143 0 l 143 399 l 0 399 l 0 438 l 143 438 l 143 917 l 392 917 m 392 40 q 637 97 535 40 q 791 248 739 153 q 843 460 843 343 q 791 672 843 578 q 637 822 739 767 q 392 876 535 876 l 188 876 l 188 438 l 397 438 l 397 399 l 188 399 l 188 40 l 392 40 z "},"Ñ":{"ha":978,"x_min":143,"x_max":835,"o":"m 835 917 l 835 -14 l 814 -14 l 188 821 l 188 0 l 143 0 l 143 931 l 164 931 l 790 89 l 790 917 l 835 917 m 601 1047 q 556 1056 575 1047 q 504 1088 538 1065 l 450 1124 q 381 1153 406 1153 q 344 1136 357 1153 q 331 1090 331 1119 l 331 1061 l 290 1061 q 289 1088 289 1069 q 313 1163 289 1133 q 376 1192 338 1192 q 422 1183 403 1192 q 474 1151 440 1174 l 528 1115 q 597 1086 572 1086 q 634 1103 621 1086 q 647 1149 647 1119 l 647 1178 l 688 1178 q 689 1151 689 1169 q 665 1076 689 1106 q 601 1047 640 1047 z "},"Ò":{"ha":1089,"x_min":79,"x_max":1010,"o":"m 543 -14 q 479 -14 543 -14 q 309 49 415 -14 q 141 219 203 111 q 79 458 79 328 q 141 699 79 590 q 309 869 203 807 q 543 931 415 931 q 778 868 671 931 q 947 698 885 806 q 1010 458 1010 590 q 947 219 1010 328 q 778 49 885 111 q 543 -14 671 -14 m 544 29 q 757 86 661 29 q 908 242 853 143 q 963 460 963 340 q 908 676 963 578 q 757 831 853 774 q 544 888 661 888 q 332 831 428 888 q 181 677 236 775 q 126 460 126 579 q 181 242 126 340 q 331 86 236 143 q 544 29 426 29 m 378 1257 l 378 1264 l 429 1264 l 563 1006 l 526 1006 l 378 1257 z "},"Ó":{"ha":1089,"x_min":79,"x_max":1010,"o":"m 543 -14 q 479 -14 543 -14 q 309 49 415 -14 q 141 219 203 111 q 79 458 79 328 q 141 699 79 590 q 309 869 203 807 q 543 931 415 931 q 778 868 671 931 q 947 698 885 806 q 1010 458 1010 590 q 947 219 1010 328 q 778 49 885 111 q 543 -14 671 -14 m 544 29 q 757 86 661 29 q 908 242 853 143 q 963 460 963 340 q 908 676 963 578 q 757 831 853 774 q 544 888 661 888 q 332 831 428 888 q 181 677 236 775 q 126 460 126 579 q 181 242 126 340 q 331 86 236 143 q 544 29 426 29 m 658 1264 l 710 1264 l 710 1257 l 561 1006 l 525 1006 l 658 1264 z "},"Ô":{"ha":1089,"x_min":79,"x_max":1010,"o":"m 543 -14 q 479 -14 543 -14 q 309 49 415 -14 q 141 219 203 111 q 79 458 79 328 q 141 699 79 590 q 309 869 203 807 q 543 931 415 931 q 778 868 671 931 q 947 698 885 806 q 1010 458 1010 590 q 947 219 1010 328 q 778 49 885 111 q 543 -14 671 -14 m 544 29 q 757 86 661 29 q 908 242 853 143 q 963 460 963 340 q 908 676 963 578 q 757 831 853 774 q 544 888 661 888 q 332 831 428 888 q 181 677 236 775 q 126 460 126 579 q 181 242 126 340 q 331 86 236 143 q 544 29 426 29 m 719 1006 l 544 1208 l 368 1006 l 331 1006 l 533 1264 l 554 1264 l 757 1006 l 719 1006 z "},"Õ":{"ha":1089,"x_min":79,"x_max":1010,"o":"m 543 -14 q 479 -14 543 -14 q 309 49 415 -14 q 141 219 203 111 q 79 458 79 328 q 141 699 79 590 q 309 869 203 807 q 543 931 415 931 q 778 868 671 931 q 947 698 885 806 q 1010 458 1010 590 q 947 219 1010 328 q 778 49 885 111 q 543 -14 671 -14 m 544 29 q 757 86 661 29 q 908 242 853 143 q 963 460 963 340 q 908 676 963 578 q 757 831 853 774 q 544 888 661 888 q 332 831 428 888 q 181 677 236 775 q 126 460 126 579 q 181 242 126 340 q 331 86 236 143 q 544 29 426 29 m 657 1047 q 612 1056 631 1047 q 560 1088 593 1065 l 506 1124 q 436 1153 461 1153 q 399 1136 413 1153 q 386 1090 386 1119 l 386 1061 l 346 1061 q 344 1088 344 1069 q 369 1163 344 1133 q 432 1192 393 1192 q 477 1183 458 1192 q 529 1151 496 1174 l 583 1115 q 653 1086 628 1086 q 690 1103 676 1086 q 703 1149 703 1119 l 703 1178 l 743 1178 q 744 1151 744 1169 q 720 1076 744 1106 q 657 1047 696 1047 z "},"Ö":{"ha":1089,"x_min":79,"x_max":1010,"o":"m 543 -14 q 479 -14 543 -14 q 309 49 415 -14 q 141 219 203 111 q 79 458 79 328 q 141 699 79 590 q 309 869 203 807 q 543 931 415 931 q 778 868 671 931 q 947 698 885 806 q 1010 458 1010 590 q 947 219 1010 328 q 778 49 885 111 q 543 -14 671 -14 m 544 29 q 757 86 661 29 q 908 242 853 143 q 963 460 963 340 q 908 676 963 578 q 757 831 853 774 q 544 888 661 888 q 332 831 428 888 q 181 677 236 775 q 126 460 126 579 q 181 242 126 340 q 331 86 236 143 q 544 29 426 29 m 390 1072 q 381 1072 390 1072 q 357 1086 371 1072 q 343 1119 343 1100 q 357 1153 343 1139 q 390 1167 371 1167 q 424 1153 410 1167 q 438 1119 438 1139 q 424 1086 438 1100 q 390 1072 410 1072 m 697 1072 q 688 1072 697 1072 q 664 1086 678 1072 q 650 1119 650 1100 q 664 1153 650 1139 q 697 1167 678 1167 q 731 1153 717 1167 q 744 1119 744 1139 q 731 1086 744 1100 q 697 1072 717 1072 z "},"×":{"ha":778,"x_min":135,"x_max":644,"o":"m 135 200 l 363 429 l 135 657 l 161 685 l 389 457 l 617 685 l 644 657 l 417 429 l 644 201 l 618 174 l 390 401 l 163 174 l 135 200 z "},"Ø":{"ha":1089,"x_min":72,"x_max":1017,"o":"m 892 776 q 978 631 947 713 q 1010 458 1010 550 q 947 219 1010 328 q 778 49 885 111 q 543 -14 671 -14 q 370 19 451 -14 q 226 111 289 51 l 101 -14 l 72 15 l 197 140 q 110 285 142 204 q 79 458 79 367 q 141 699 79 590 q 309 869 203 807 q 543 931 415 931 q 717 898 635 931 q 863 806 799 865 l 988 931 l 1017 901 l 892 776 m 544 888 q 331 831 426 888 q 181 677 236 775 q 126 460 126 579 q 153 303 126 376 q 229 172 179 229 l 832 775 q 701 858 775 828 q 544 888 628 888 m 544 29 q 758 86 663 29 q 908 242 853 143 q 963 460 963 340 q 936 615 963 542 q 860 744 910 688 l 257 142 q 388 59 314 89 q 544 29 461 29 z "},"Ù":{"ha":942,"x_min":128,"x_max":814,"o":"m 472 -14 q 220 84 313 -14 q 128 350 128 182 l 128 917 l 172 917 l 172 350 q 254 114 172 199 q 472 29 336 29 q 688 114 607 29 q 769 350 769 199 l 769 917 l 814 917 l 814 350 q 772 156 814 239 q 653 30 731 74 q 472 -14 576 -14 m 304 1257 l 304 1264 l 356 1264 l 489 1006 l 453 1006 l 304 1257 z "},"Ú":{"ha":942,"x_min":128,"x_max":814,"o":"m 472 -14 q 220 84 313 -14 q 128 350 128 182 l 128 917 l 172 917 l 172 350 q 254 114 172 199 q 472 29 336 29 q 688 114 607 29 q 769 350 769 199 l 769 917 l 814 917 l 814 350 q 772 156 814 239 q 653 30 731 74 q 472 -14 576 -14 m 585 1264 l 636 1264 l 636 1257 l 488 1006 l 451 1006 l 585 1264 z "},"Û":{"ha":942,"x_min":128,"x_max":814,"o":"m 472 -14 q 220 84 313 -14 q 128 350 128 182 l 128 917 l 172 917 l 172 350 q 254 114 172 199 q 472 29 336 29 q 688 114 607 29 q 769 350 769 199 l 769 917 l 814 917 l 814 350 q 772 156 814 239 q 653 30 731 74 q 472 -14 576 -14 m 646 1006 l 471 1208 l 294 1006 l 257 1006 l 460 1264 l 481 1264 l 683 1006 l 646 1006 z "},"Ü":{"ha":942,"x_min":128,"x_max":814,"o":"m 472 -14 q 220 84 313 -14 q 128 350 128 182 l 128 917 l 172 917 l 172 350 q 254 114 172 199 q 472 29 336 29 q 688 114 607 29 q 769 350 769 199 l 769 917 l 814 917 l 814 350 q 772 156 814 239 q 653 30 731 74 q 472 -14 576 -14 m 317 1072 q 307 1072 317 1072 q 283 1086 297 1072 q 269 1119 269 1100 q 283 1153 269 1139 q 317 1167 297 1167 q 350 1153 336 1167 q 364 1119 364 1139 q 350 1086 364 1100 q 317 1072 336 1072 m 624 1072 q 614 1072 624 1072 q 590 1086 604 1072 q 576 1119 576 1100 q 590 1153 576 1139 q 624 1167 604 1167 q 657 1153 643 1167 q 671 1119 671 1139 q 657 1086 671 1100 q 624 1072 643 1072 z "},"Ý":{"ha":847,"x_min":82,"x_max":765,"o":"m 446 397 l 446 0 l 401 0 l 401 397 l 82 917 l 129 917 l 424 435 l 718 917 l 765 917 l 446 397 m 538 1264 l 589 1264 l 589 1257 l 440 1006 l 404 1006 l 538 1264 z "},"Þ":{"ha":774,"x_min":143,"x_max":711,"o":"m 143 917 l 188 917 l 188 732 l 447 732 q 641 663 571 732 q 711 483 711 593 q 641 303 711 372 q 447 233 571 233 l 188 233 l 188 0 l 143 0 l 143 917 m 444 274 q 608 331 551 274 q 665 482 665 388 q 608 634 665 576 q 444 692 551 692 l 188 692 l 188 274 l 444 274 z "},"ß":{"ha":804,"x_min":138,"x_max":761,"o":"m 329 89 l 356 115 q 551 26 431 26 q 671 58 625 26 q 717 153 717 89 q 688 226 717 199 q 579 300 660 254 q 496 349 522 332 q 452 392 469 367 q 435 453 435 417 q 441 500 435 475 q 460 567 447 525 l 525 775 q 538 830 533 801 q 542 875 542 858 q 501 978 542 940 q 390 1015 461 1015 q 238 951 297 1015 q 179 769 179 886 l 179 0 l 138 0 l 138 769 q 172 923 138 858 q 263 1022 206 988 q 393 1056 321 1056 q 532 1008 478 1056 q 586 876 586 961 q 567 767 586 826 l 500 556 q 478 453 478 486 q 501 397 478 418 q 596 335 525 375 q 688 278 658 299 q 740 227 718 258 q 761 151 761 196 q 697 29 761 72 q 546 -14 633 -14 q 329 89 417 -14 z "},"à":{"ha":717,"x_min":72,"x_max":590,"o":"m 350 681 q 524 614 458 681 q 590 424 590 547 l 590 0 l 549 0 l 549 118 q 447 21 513 56 q 300 -14 381 -14 q 139 32 206 -14 q 72 163 72 78 q 135 288 72 242 q 300 335 197 335 l 549 335 l 549 425 q 494 585 549 531 q 347 640 439 640 q 229 610 279 640 q 138 524 179 579 l 107 549 q 215 647 156 614 q 350 681 274 681 m 301 26 q 424 55 368 26 q 515 133 481 83 q 549 243 549 182 l 549 296 l 301 296 q 165 261 213 296 q 117 165 117 226 q 172 62 117 97 q 301 26 226 26 m 186 1076 l 186 1083 l 238 1083 l 371 781 l 335 781 l 186 1076 z "},"á":{"ha":717,"x_min":72,"x_max":590,"o":"m 350 681 q 524 614 458 681 q 590 424 590 547 l 590 0 l 549 0 l 549 118 q 447 21 513 56 q 300 -14 381 -14 q 139 32 206 -14 q 72 163 72 78 q 135 288 72 242 q 300 335 197 335 l 549 335 l 549 425 q 494 585 549 531 q 347 640 439 640 q 229 610 279 640 q 138 524 179 579 l 107 549 q 215 647 156 614 q 350 681 274 681 m 301 26 q 424 55 368 26 q 515 133 481 83 q 549 243 549 182 l 549 296 l 301 296 q 165 261 213 296 q 117 165 117 226 q 172 62 117 97 q 301 26 226 26 m 464 1083 l 515 1083 l 515 1076 l 367 781 l 331 781 l 464 1083 z "},"â":{"ha":717,"x_min":72,"x_max":590,"o":"m 350 681 q 524 614 458 681 q 590 424 590 547 l 590 0 l 549 0 l 549 118 q 447 21 513 56 q 300 -14 381 -14 q 139 32 206 -14 q 72 163 72 78 q 135 288 72 242 q 300 335 197 335 l 549 335 l 549 425 q 494 585 549 531 q 347 640 439 640 q 229 610 279 640 q 138 524 179 579 l 107 549 q 215 647 156 614 q 350 681 274 681 m 301 26 q 424 55 368 26 q 515 133 481 83 q 549 243 549 182 l 549 296 l 301 296 q 165 261 213 296 q 117 165 117 226 q 172 62 117 97 q 301 26 226 26 m 510 781 l 349 1019 l 186 781 l 149 781 l 338 1083 l 358 1083 l 547 781 l 510 781 z "},"ã":{"ha":717,"x_min":72,"x_max":590,"o":"m 350 681 q 524 614 458 681 q 590 424 590 547 l 590 0 l 549 0 l 549 118 q 447 21 513 56 q 300 -14 381 -14 q 139 32 206 -14 q 72 163 72 78 q 135 288 72 242 q 300 335 197 335 l 549 335 l 549 425 q 494 585 549 531 q 347 640 439 640 q 229 610 279 640 q 138 524 179 579 l 107 549 q 215 647 156 614 q 350 681 274 681 m 301 26 q 424 55 368 26 q 515 133 481 83 q 549 243 549 182 l 549 296 l 301 296 q 165 261 213 296 q 117 165 117 226 q 172 62 117 97 q 301 26 226 26 m 354 892 l 319 929 q 288 956 301 949 q 260 964 275 964 q 224 944 235 964 q 213 896 213 925 l 213 867 l 172 867 q 171 893 171 875 q 192 970 171 938 q 257 1003 214 1003 q 343 957 301 1003 l 378 919 q 409 892 396 900 q 438 885 422 885 q 474 904 463 885 q 485 953 485 924 l 485 982 l 525 982 q 526 956 526 974 q 506 878 526 911 q 442 846 485 846 q 354 892 396 846 z "},"ä":{"ha":717,"x_min":72,"x_max":590,"o":"m 350 681 q 524 614 458 681 q 590 424 590 547 l 590 0 l 549 0 l 549 118 q 447 21 513 56 q 300 -14 381 -14 q 139 32 206 -14 q 72 163 72 78 q 135 288 72 242 q 300 335 197 335 l 549 335 l 549 425 q 494 585 549 531 q 347 640 439 640 q 229 610 279 640 q 138 524 179 579 l 107 549 q 215 647 156 614 q 350 681 274 681 m 301 26 q 424 55 368 26 q 515 133 481 83 q 549 243 549 182 l 549 296 l 301 296 q 165 261 213 296 q 117 165 117 226 q 172 62 117 97 q 301 26 226 26 m 215 878 q 206 878 215 878 q 182 892 196 878 q 168 925 168 906 q 182 958 168 944 q 215 972 196 972 q 249 958 235 972 q 263 925 263 944 q 249 892 263 906 q 215 878 235 878 m 481 878 q 471 878 481 878 q 447 892 461 878 q 433 925 433 906 q 447 958 433 944 q 481 972 461 972 q 514 958 500 972 q 528 925 528 944 q 514 892 528 906 q 481 878 500 878 z "},"å":{"ha":717,"x_min":72,"x_max":590,"o":"m 350 681 q 524 614 458 681 q 590 424 590 547 l 590 0 l 549 0 l 549 118 q 447 21 513 56 q 300 -14 381 -14 q 139 32 206 -14 q 72 163 72 78 q 135 288 72 242 q 300 335 197 335 l 549 335 l 549 425 q 494 585 549 531 q 347 640 439 640 q 229 610 279 640 q 138 524 179 579 l 107 549 q 215 647 156 614 q 350 681 274 681 m 301 26 q 424 55 368 26 q 515 133 481 83 q 549 243 549 182 l 549 296 l 301 296 q 165 261 213 296 q 117 165 117 226 q 172 62 117 97 q 301 26 226 26 m 349 790 q 320 790 349 790 q 252 830 292 790 q 213 925 213 869 q 252 1020 213 981 q 349 1060 292 1060 q 445 1020 406 1060 q 485 925 485 981 q 445 830 485 869 q 349 790 406 790 m 349 829 q 369 829 349 829 q 416 857 389 829 q 443 925 443 885 q 416 993 443 965 q 349 1021 389 1021 q 281 993 308 1021 q 254 925 254 965 q 281 857 254 885 q 349 829 308 829 z "},"æ":{"ha":1261,"x_min":72,"x_max":1178,"o":"m 1174 318 l 593 318 q 636 169 596 236 q 742 65 676 103 q 889 26 808 26 q 1022 57 961 26 q 1126 143 1083 88 l 1157 118 q 1040 22 1110 57 q 889 -14 969 -14 q 705 40 788 -14 q 581 185 622 94 q 479 40 557 94 q 301 -14 401 -14 q 139 35 206 -14 q 72 175 72 85 q 134 308 72 260 q 300 357 196 357 l 549 357 l 549 425 q 494 585 549 531 q 347 640 439 640 q 229 610 279 640 q 138 524 179 579 l 107 549 q 215 647 156 614 q 350 681 274 681 q 505 632 442 681 q 585 492 568 583 q 706 629 626 578 q 882 681 785 681 q 1029 645 961 681 q 1138 542 1097 610 q 1178 385 1178 475 q 1174 318 1178 364 m 876 640 q 739 603 801 640 q 638 501 676 565 q 594 357 599 436 l 1133 357 q 1105 503 1139 439 q 1010 604 1071 568 q 876 640 950 640 m 304 26 q 424 55 368 26 q 515 133 481 83 q 549 243 549 182 l 549 318 l 301 318 q 164 282 211 318 q 117 179 117 246 q 172 65 117 104 q 304 26 228 26 z "},"ç":{"ha":768,"x_min":83,"x_max":692,"o":"m 424 -14 q 252 33 331 -14 q 128 159 174 79 q 83 333 83 239 q 128 508 83 429 q 252 634 174 588 q 425 681 331 681 q 575 646 507 681 q 692 549 643 611 l 661 524 q 558 610 618 579 q 425 640 497 640 q 274 599 342 640 q 167 488 206 558 q 128 333 128 418 q 167 178 128 249 q 274 67 206 108 q 424 26 342 26 q 557 57 496 26 q 661 143 618 88 l 692 118 q 574 21 643 56 q 424 -14 506 -14 m 272 -250 l 272 -212 q 358 -225 329 -225 q 440 -198 407 -225 q 474 -118 474 -171 q 455 -53 474 -79 q 403 0 436 -26 l 415 18 q 490 -37 461 -1 q 518 -121 518 -74 q 476 -222 518 -181 q 363 -264 433 -264 q 272 -250 321 -264 z "},"è":{"ha":796,"x_min":83,"x_max":713,"o":"m 708 329 l 128 329 q 167 175 128 244 q 274 66 207 106 q 424 26 342 26 q 557 57 496 26 q 661 143 618 88 l 692 118 q 574 22 644 57 q 424 -14 504 -14 q 253 33 331 -14 q 129 158 175 79 q 83 333 83 238 q 128 508 83 428 q 249 634 172 588 q 417 681 325 681 q 564 645 496 681 q 672 542 632 610 q 713 386 713 475 q 708 329 713 363 m 414 640 q 277 605 339 640 q 176 507 215 569 q 129 368 136 444 l 668 368 q 640 512 674 450 q 546 607 606 574 q 414 640 486 640 m 242 1076 l 242 1083 l 293 1083 l 426 781 l 390 781 l 242 1076 z "},"é":{"ha":796,"x_min":83,"x_max":713,"o":"m 708 329 l 128 329 q 167 175 128 244 q 274 66 207 106 q 424 26 342 26 q 557 57 496 26 q 661 143 618 88 l 692 118 q 574 22 644 57 q 424 -14 504 -14 q 253 33 331 -14 q 129 158 175 79 q 83 333 83 238 q 128 508 83 428 q 249 634 172 588 q 417 681 325 681 q 564 645 496 681 q 672 542 632 610 q 713 386 713 475 q 708 329 713 363 m 414 640 q 277 605 339 640 q 176 507 215 569 q 129 368 136 444 l 668 368 q 640 512 674 450 q 546 607 606 574 q 414 640 486 640 m 519 1083 l 571 1083 l 571 1076 l 422 781 l 386 781 l 519 1083 z "},"ê":{"ha":796,"x_min":83,"x_max":713,"o":"m 708 329 l 128 329 q 167 175 128 244 q 274 66 207 106 q 424 26 342 26 q 557 57 496 26 q 661 143 618 88 l 692 118 q 574 22 644 57 q 424 -14 504 -14 q 253 33 331 -14 q 129 158 175 79 q 83 333 83 238 q 128 508 83 428 q 249 634 172 588 q 417 681 325 681 q 564 645 496 681 q 672 542 632 610 q 713 386 713 475 q 708 329 713 363 m 414 640 q 277 605 339 640 q 176 507 215 569 q 129 368 136 444 l 668 368 q 640 512 674 450 q 546 607 606 574 q 414 640 486 640 m 565 781 l 404 1019 l 242 781 l 204 781 l 393 1083 l 414 1083 l 603 781 l 565 781 z "},"ë":{"ha":796,"x_min":83,"x_max":713,"o":"m 708 329 l 128 329 q 167 175 128 244 q 274 66 207 106 q 424 26 342 26 q 557 57 496 26 q 661 143 618 88 l 692 118 q 574 22 644 57 q 424 -14 504 -14 q 253 33 331 -14 q 129 158 175 79 q 83 333 83 238 q 128 508 83 428 q 249 634 172 588 q 417 681 325 681 q 564 645 496 681 q 672 542 632 610 q 713 386 713 475 q 708 329 713 363 m 414 640 q 277 605 339 640 q 176 507 215 569 q 129 368 136 444 l 668 368 q 640 512 674 450 q 546 607 606 574 q 414 640 486 640 m 271 878 q 261 878 271 878 q 238 892 251 878 q 224 925 224 906 q 238 958 224 944 q 271 972 251 972 q 304 958 290 972 q 318 925 318 944 q 304 892 318 906 q 271 878 290 878 m 536 878 q 526 878 536 878 q 503 892 517 878 q 489 925 489 906 q 503 958 489 944 q 536 972 517 972 q 569 958 556 972 q 583 925 583 944 q 569 892 583 906 q 536 878 556 878 z "},"ì":{"ha":317,"x_min":38,"x_max":181,"o":"m 138 667 l 179 667 l 179 0 l 138 0 l 138 667 m 38 1076 l 38 1083 l 89 1083 l 181 781 l 144 781 l 38 1076 z "},"í":{"ha":317,"x_min":138,"x_max":282,"o":"m 138 667 l 179 667 l 179 0 l 138 0 l 138 667 m 231 1083 l 282 1083 l 282 1076 l 175 781 l 139 781 l 231 1083 z "},"î":{"ha":317,"x_min":-42,"x_max":357,"o":"m 138 667 l 179 667 l 179 0 l 138 0 l 138 667 m 319 781 l 158 1019 l -4 781 l -42 781 l 147 1083 l 168 1083 l 357 781 l 319 781 z "},"ï":{"ha":317,"x_min":-1,"x_max":317,"o":"m 138 667 l 179 667 l 179 0 l 138 0 l 138 667 m 46 878 q 36 878 46 878 q 13 892 26 878 q -1 925 -1 906 q 13 958 -1 944 q 46 972 26 972 q 79 958 65 972 q 93 925 93 944 q 79 892 93 906 q 46 878 65 878 m 269 878 q 260 878 269 878 q 236 892 250 878 q 222 925 222 906 q 236 958 222 944 q 269 972 250 972 q 303 958 289 972 q 317 925 317 944 q 303 892 317 906 q 269 878 289 878 z "},"ð":{"ha":785,"x_min":83,"x_max":701,"o":"m 561 613 q 642 496 617 536 q 685 408 668 456 q 701 304 701 360 q 662 143 701 215 q 551 28 622 71 q 392 -14 481 -14 q 233 28 303 -14 q 123 140 163 69 q 83 296 83 211 q 124 454 83 382 q 234 569 165 526 q 385 611 303 611 q 473 598 432 611 q 544 564 514 585 l 340 847 l 119 744 l 103 779 l 318 879 l 208 1031 l 242 1056 l 356 897 l 569 996 l 586 961 l 379 865 l 561 613 m 392 26 q 526 63 465 26 q 621 160 586 99 q 656 299 656 222 q 621 438 656 375 q 525 535 586 500 q 390 571 464 571 q 257 535 317 571 q 163 438 197 500 q 128 299 128 375 q 163 160 128 222 q 257 63 197 99 q 392 26 317 26 z "},"ñ":{"ha":765,"x_min":138,"x_max":639,"o":"m 397 681 q 574 609 510 681 q 639 424 639 538 l 639 0 l 597 0 l 597 424 q 543 581 597 521 q 396 640 489 640 q 240 579 301 640 q 179 424 179 518 l 179 0 l 138 0 l 138 667 l 179 667 l 179 560 q 267 649 211 617 q 397 681 324 681 m 400 892 l 365 929 q 334 956 347 949 q 306 964 321 964 q 269 944 281 964 q 258 896 258 925 l 258 867 l 218 867 q 217 893 217 875 q 238 970 217 938 q 303 1003 260 1003 q 389 957 347 1003 l 424 919 q 455 892 442 900 q 483 885 468 885 q 519 904 508 885 q 531 953 531 924 l 531 982 l 571 982 q 572 956 572 974 q 551 878 572 911 q 488 846 531 846 q 400 892 442 846 z "},"ò":{"ha":851,"x_min":83,"x_max":768,"o":"m 424 -14 q 252 32 331 -14 q 128 158 174 78 q 83 333 83 238 q 128 509 83 429 q 252 635 174 589 q 425 681 331 681 q 598 635 519 681 q 722 509 676 589 q 768 333 768 429 q 722 158 768 238 q 597 33 676 79 q 424 -14 518 -14 m 424 26 q 465 26 424 26 q 576 67 507 26 q 684 178 644 108 q 724 333 724 249 q 684 490 724 419 q 576 600 644 560 q 425 640 508 640 q 274 600 342 640 q 167 490 206 560 q 128 333 128 419 q 167 177 128 247 q 273 67 206 107 q 424 26 340 26 m 264 1076 l 264 1083 l 315 1083 l 449 781 l 413 781 l 264 1076 z "},"ó":{"ha":851,"x_min":83,"x_max":768,"o":"m 424 -14 q 252 32 331 -14 q 128 158 174 78 q 83 333 83 238 q 128 509 83 429 q 252 635 174 589 q 425 681 331 681 q 598 635 519 681 q 722 509 676 589 q 768 333 768 429 q 722 158 768 238 q 597 33 676 79 q 424 -14 518 -14 m 424 26 q 465 26 424 26 q 576 67 507 26 q 684 178 644 108 q 724 333 724 249 q 684 490 724 419 q 576 600 644 560 q 425 640 508 640 q 274 600 342 640 q 167 490 206 560 q 128 333 128 419 q 167 177 128 247 q 273 67 206 107 q 424 26 340 26 m 542 1083 l 593 1083 l 593 1076 l 444 781 l 408 781 l 542 1083 z "},"ô":{"ha":851,"x_min":83,"x_max":768,"o":"m 424 -14 q 252 32 331 -14 q 128 158 174 78 q 83 333 83 238 q 128 509 83 429 q 252 635 174 589 q 425 681 331 681 q 598 635 519 681 q 722 509 676 589 q 768 333 768 429 q 722 158 768 238 q 597 33 676 79 q 424 -14 518 -14 m 424 26 q 465 26 424 26 q 576 67 507 26 q 684 178 644 108 q 724 333 724 249 q 684 490 724 419 q 576 600 644 560 q 425 640 508 640 q 274 600 342 640 q 167 490 206 560 q 128 333 128 419 q 167 177 128 247 q 273 67 206 107 q 424 26 340 26 m 588 781 l 426 1019 l 264 781 l 226 781 l 415 1083 l 436 1083 l 625 781 l 588 781 z "},"õ":{"ha":851,"x_min":83,"x_max":768,"o":"m 424 -14 q 252 32 331 -14 q 128 158 174 78 q 83 333 83 238 q 128 509 83 429 q 252 635 174 589 q 425 681 331 681 q 598 635 519 681 q 722 509 676 589 q 768 333 768 429 q 722 158 768 238 q 597 33 676 79 q 424 -14 518 -14 m 424 26 q 465 26 424 26 q 576 67 507 26 q 684 178 644 108 q 724 333 724 249 q 684 490 724 419 q 576 600 644 560 q 425 640 508 640 q 274 600 342 640 q 167 490 206 560 q 128 333 128 419 q 167 177 128 247 q 273 67 206 107 q 424 26 340 26 m 432 892 l 397 929 q 366 956 379 949 q 338 964 353 964 q 301 944 313 964 q 290 896 290 925 l 290 867 l 250 867 q 249 893 249 875 q 270 970 249 938 q 335 1003 292 1003 q 421 957 379 1003 l 456 919 q 487 892 474 900 q 515 885 500 885 q 551 904 540 885 q 563 953 563 924 l 563 982 l 603 982 q 604 956 604 974 q 583 878 604 911 q 519 846 563 846 q 432 892 474 846 z "},"ö":{"ha":851,"x_min":83,"x_max":768,"o":"m 424 -14 q 252 32 331 -14 q 128 158 174 78 q 83 333 83 238 q 128 509 83 429 q 252 635 174 589 q 425 681 331 681 q 598 635 519 681 q 722 509 676 589 q 768 333 768 429 q 722 158 768 238 q 597 33 676 79 q 424 -14 518 -14 m 424 26 q 465 26 424 26 q 576 67 507 26 q 684 178 644 108 q 724 333 724 249 q 684 490 724 419 q 576 600 644 560 q 425 640 508 640 q 274 600 342 640 q 167 490 206 560 q 128 333 128 419 q 167 177 128 247 q 273 67 206 107 q 424 26 340 26 m 293 878 q 283 878 293 878 q 260 892 274 878 q 246 925 246 906 q 260 958 246 944 q 293 972 274 972 q 326 958 313 972 q 340 925 340 944 q 326 892 340 906 q 293 878 313 878 m 558 878 q 549 878 558 878 q 525 892 539 878 q 511 925 511 906 q 525 958 511 944 q 558 972 539 972 q 592 958 578 972 q 606 925 606 944 q 592 892 606 906 q 558 878 578 878 z "},"÷":{"ha":778,"x_min":92,"x_max":685,"o":"m 385 617 q 374 617 385 617 q 350 631 364 617 q 336 665 336 644 q 350 700 336 686 q 385 714 364 714 q 419 700 406 714 q 433 665 433 686 q 419 631 433 644 q 385 617 406 617 m 92 449 l 685 449 l 685 410 l 92 410 l 92 449 m 385 143 q 374 143 385 143 q 350 157 364 143 q 336 192 336 171 q 350 226 336 213 q 385 240 364 240 q 419 226 406 240 q 433 192 433 213 q 419 157 433 171 q 385 143 406 143 z "},"ø":{"ha":871,"x_min":89,"x_max":782,"o":"m 693 561 q 756 457 733 515 q 778 333 778 399 q 731 159 778 239 q 606 33 685 79 q 433 -14 526 -14 q 311 9 369 -14 q 207 75 253 32 l 118 -14 l 89 15 l 178 104 q 115 210 138 151 q 93 333 93 269 q 139 508 93 428 q 263 634 185 588 q 435 681 342 681 q 559 658 500 681 q 665 592 618 635 l 753 681 l 782 651 l 693 561 m 435 640 q 283 599 351 640 q 176 488 215 558 q 138 333 138 418 q 207 133 138 221 l 636 563 q 435 640 551 640 m 433 26 q 585 67 517 26 q 694 178 654 108 q 733 333 733 249 q 715 441 733 390 q 664 532 697 492 l 235 103 q 433 26 319 26 z "},"ù":{"ha":754,"x_min":126,"x_max":628,"o":"m 378 -14 q 343 -14 378 -14 q 251 17 308 -14 q 160 107 193 49 q 126 243 126 165 l 126 667 l 168 667 l 168 243 q 228 84 168 142 q 378 26 288 26 q 526 85 467 26 q 586 243 586 143 l 586 667 l 628 667 l 628 243 q 594 108 628 167 q 504 17 561 49 q 378 -14 447 -14 m 215 1076 l 215 1083 l 267 1083 l 400 781 l 364 781 l 215 1076 z "},"ú":{"ha":754,"x_min":126,"x_max":628,"o":"m 378 -14 q 343 -14 378 -14 q 251 17 308 -14 q 160 107 193 49 q 126 243 126 165 l 126 667 l 168 667 l 168 243 q 228 84 168 142 q 378 26 288 26 q 526 85 467 26 q 586 243 586 143 l 586 667 l 628 667 l 628 243 q 594 108 628 167 q 504 17 561 49 q 378 -14 447 -14 m 493 1083 l 544 1083 l 544 1076 l 396 781 l 360 781 l 493 1083 z "},"û":{"ha":754,"x_min":126,"x_max":628,"o":"m 378 -14 q 343 -14 378 -14 q 251 17 308 -14 q 160 107 193 49 q 126 243 126 165 l 126 667 l 168 667 l 168 243 q 228 84 168 142 q 378 26 288 26 q 526 85 467 26 q 586 243 586 143 l 586 667 l 628 667 l 628 243 q 594 108 628 167 q 504 17 561 49 q 378 -14 447 -14 m 539 781 l 378 1019 l 215 781 l 178 781 l 367 1083 l 388 1083 l 576 781 l 539 781 z "},"ü":{"ha":754,"x_min":126,"x_max":628,"o":"m 378 -14 q 343 -14 378 -14 q 251 17 308 -14 q 160 107 193 49 q 126 243 126 165 l 126 667 l 168 667 l 168 243 q 228 84 168 142 q 378 26 288 26 q 526 85 467 26 q 586 243 586 143 l 586 667 l 628 667 l 628 243 q 594 108 628 167 q 504 17 561 49 q 378 -14 447 -14 m 244 878 q 235 878 244 878 q 211 892 225 878 q 197 925 197 906 q 211 958 197 944 q 244 972 225 972 q 278 958 264 972 q 292 925 292 944 q 278 892 292 906 q 244 878 264 878 m 510 878 q 500 878 510 878 q 476 892 490 878 q 463 925 463 906 q 476 958 463 944 q 510 972 490 972 q 543 958 529 972 q 557 925 557 944 q 543 892 557 906 q 510 878 529 878 z "},"ý":{"ha":719,"x_min":50,"x_max":669,"o":"m 669 667 l 332 -122 q 252 -231 300 -197 q 139 -264 204 -264 q 50 -251 93 -264 l 50 -214 q 136 -225 101 -225 q 229 -197 190 -225 q 296 -104 268 -169 l 343 8 l 50 667 l 96 667 l 365 63 l 624 667 l 669 667 m 475 1083 l 526 1083 l 526 1076 l 378 781 l 342 781 l 475 1083 z "},"þ":{"ha":882,"x_min":138,"x_max":799,"o":"m 465 681 q 512 681 465 681 q 635 634 558 681 q 755 508 711 588 q 799 333 799 428 q 755 158 799 238 q 635 33 711 79 q 465 -14 558 -14 q 293 33 372 -14 q 179 160 214 81 l 179 -250 l 138 -250 l 138 1042 l 179 1042 l 179 507 q 293 633 214 586 q 465 681 372 681 m 465 26 q 615 67 549 26 q 717 177 681 107 q 754 333 754 247 q 717 488 754 418 q 613 599 679 558 q 465 640 547 640 q 325 607 390 640 q 219 505 260 574 q 179 333 179 436 q 219 162 179 231 q 325 60 260 93 q 465 26 390 26 z "},"ÿ":{"ha":719,"x_min":50,"x_max":669,"o":"m 669 667 l 332 -122 q 252 -231 300 -197 q 139 -264 204 -264 q 50 -251 93 -264 l 50 -214 q 136 -225 101 -225 q 229 -197 190 -225 q 296 -104 268 -169 l 343 8 l 50 667 l 96 667 l 365 63 l 624 667 l 669 667 m 226 878 q 217 878 226 878 q 193 892 207 878 q 179 925 179 906 q 193 958 179 944 q 226 972 207 972 q 260 958 246 972 q 274 925 274 944 q 260 892 274 906 q 226 878 246 878 m 492 878 q 482 878 492 878 q 458 892 472 878 q 444 925 444 906 q 458 958 444 944 q 492 972 472 972 q 525 958 511 972 q 539 925 539 944 q 525 892 539 906 q 492 878 511 878 z "},"Ā":{"ha":924,"x_min":63,"x_max":861,"o":"m 714 243 l 208 243 l 108 0 l 63 0 l 451 931 l 472 931 l 861 0 l 815 0 l 714 243 m 225 283 l 697 283 l 461 853 l 225 283 m 274 1125 l 651 1125 l 651 1086 l 274 1086 l 274 1125 z "},"ā":{"ha":717,"x_min":72,"x_max":590,"o":"m 350 681 q 524 614 458 681 q 590 424 590 547 l 590 0 l 549 0 l 549 118 q 447 21 513 56 q 300 -14 381 -14 q 139 32 206 -14 q 72 163 72 78 q 135 288 72 242 q 300 335 197 335 l 549 335 l 549 425 q 494 585 549 531 q 347 640 439 640 q 229 610 279 640 q 138 524 179 579 l 107 549 q 215 647 156 614 q 350 681 274 681 m 301 26 q 424 55 368 26 q 515 133 481 83 q 549 243 549 182 l 549 296 l 301 296 q 165 261 213 296 q 117 165 117 226 q 172 62 117 97 q 301 26 226 26 m 174 946 l 524 946 l 524 907 l 174 907 l 174 946 z "},"Ă":{"ha":924,"x_min":63,"x_max":861,"o":"m 714 243 l 208 243 l 108 0 l 63 0 l 451 931 l 472 931 l 861 0 l 815 0 l 714 243 m 225 283 l 697 283 l 461 853 l 225 283 m 463 1017 q 419 1017 463 1017 q 326 1071 376 1017 q 275 1217 275 1125 l 275 1264 l 317 1264 l 317 1219 q 356 1099 317 1142 q 463 1056 394 1056 q 569 1099 531 1056 q 608 1219 608 1142 l 608 1264 l 650 1264 l 650 1217 q 599 1071 650 1125 q 463 1017 549 1017 z "},"ă":{"ha":717,"x_min":72,"x_max":590,"o":"m 350 681 q 524 614 458 681 q 590 424 590 547 l 590 0 l 549 0 l 549 118 q 447 21 513 56 q 300 -14 381 -14 q 139 32 206 -14 q 72 163 72 78 q 135 288 72 242 q 300 335 197 335 l 549 335 l 549 425 q 494 585 549 531 q 347 640 439 640 q 229 610 279 640 q 138 524 179 579 l 107 549 q 215 647 156 614 q 350 681 274 681 m 301 26 q 424 55 368 26 q 515 133 481 83 q 549 243 549 182 l 549 296 l 301 296 q 165 261 213 296 q 117 165 117 226 q 172 62 117 97 q 301 26 226 26 m 349 799 q 306 799 349 799 q 212 853 263 799 q 161 999 161 907 l 161 1046 l 203 1046 l 203 1001 q 242 881 203 924 q 349 838 281 838 q 456 881 417 838 q 494 1001 494 924 l 494 1046 l 536 1046 l 536 999 q 485 853 536 907 q 349 799 435 799 z "},"Ą":{"ha":924,"x_min":63,"x_max":861,"o":"m 714 243 l 208 243 l 108 0 l 63 0 l 451 931 l 472 931 l 861 0 l 815 0 l 714 243 m 225 283 l 697 283 l 461 853 l 225 283 m 776 -264 q 683 -236 721 -264 q 644 -160 644 -208 q 689 -74 644 -112 q 847 28 733 -35 l 861 0 l 781 -51 q 709 -105 731 -83 q 688 -156 688 -126 q 712 -206 688 -187 q 776 -225 736 -225 q 861 -212 811 -225 l 861 -250 q 776 -264 814 -264 z "},"ą":{"ha":717,"x_min":72,"x_max":590,"o":"m 350 681 q 524 614 458 681 q 590 424 590 547 l 590 0 l 549 0 l 549 118 q 447 21 513 56 q 300 -14 381 -14 q 139 32 206 -14 q 72 163 72 78 q 135 288 72 242 q 300 335 197 335 l 549 335 l 549 425 q 494 585 549 531 q 347 640 439 640 q 229 610 279 640 q 138 524 179 579 l 107 549 q 215 647 156 614 q 350 681 274 681 m 301 26 q 424 55 368 26 q 515 133 481 83 q 549 243 549 182 l 549 296 l 301 296 q 165 261 213 296 q 117 165 117 226 q 172 62 117 97 q 301 26 226 26 m 506 -264 q 412 -236 450 -264 q 374 -160 374 -208 q 418 -74 374 -112 q 576 28 463 -35 l 590 0 l 510 -51 q 438 -105 460 -83 q 417 -156 417 -126 q 441 -206 417 -187 q 506 -225 465 -225 q 590 -212 540 -225 l 590 -250 q 506 -264 543 -264 z "},"Ć":{"ha":985,"x_min":79,"x_max":906,"o":"m 543 -14 q 309 49 415 -14 q 141 219 203 111 q 79 458 79 328 q 141 699 79 590 q 309 869 203 807 q 543 931 415 931 q 749 883 654 931 q 906 751 843 835 l 872 725 q 731 844 815 801 q 544 888 647 888 q 331 831 426 888 q 181 677 236 775 q 126 460 126 579 q 181 242 126 340 q 331 86 235 143 q 544 29 426 29 q 731 72 647 29 q 872 192 815 115 l 906 165 q 749 34 843 82 q 543 -14 654 -14 m 660 1264 l 711 1264 l 711 1257 l 563 1006 l 526 1006 l 660 1264 z "},"ć":{"ha":768,"x_min":83,"x_max":692,"o":"m 424 -14 q 252 33 331 -14 q 128 159 174 79 q 83 333 83 239 q 128 508 83 429 q 252 634 174 588 q 425 681 331 681 q 575 646 507 681 q 692 549 643 611 l 661 524 q 558 610 618 579 q 425 640 497 640 q 274 599 342 640 q 167 488 206 558 q 128 333 128 418 q 167 178 128 249 q 274 67 206 108 q 424 26 342 26 q 557 57 496 26 q 661 143 618 88 l 692 118 q 574 21 643 56 q 424 -14 506 -14 m 540 1083 l 592 1083 l 592 1076 l 443 781 l 407 781 l 540 1083 z "},"Ĉ":{"ha":985,"x_min":79,"x_max":906,"o":"m 543 -14 q 309 49 415 -14 q 141 219 203 111 q 79 458 79 328 q 141 699 79 590 q 309 869 203 807 q 543 931 415 931 q 749 883 654 931 q 906 751 843 835 l 872 725 q 731 844 815 801 q 544 888 647 888 q 331 831 426 888 q 181 677 236 775 q 126 460 126 579 q 181 242 126 340 q 331 86 235 143 q 544 29 426 29 q 731 72 647 29 q 872 192 815 115 l 906 165 q 749 34 843 82 q 543 -14 654 -14 m 721 1006 l 546 1208 l 369 1006 l 332 1006 l 535 1264 l 556 1264 l 758 1006 l 721 1006 z "},"ĉ":{"ha":768,"x_min":83,"x_max":692,"o":"m 424 -14 q 252 33 331 -14 q 128 159 174 79 q 83 333 83 239 q 128 508 83 429 q 252 634 174 588 q 425 681 331 681 q 575 646 507 681 q 692 549 643 611 l 661 524 q 558 610 618 579 q 425 640 497 640 q 274 599 342 640 q 167 488 206 558 q 128 333 128 418 q 167 178 128 249 q 274 67 206 108 q 424 26 342 26 q 557 57 496 26 q 661 143 618 88 l 692 118 q 574 21 643 56 q 424 -14 506 -14 m 586 781 l 425 1019 l 263 781 l 225 781 l 414 1083 l 435 1083 l 624 781 l 586 781 z "},"Ċ":{"ha":985,"x_min":79,"x_max":906,"o":"m 543 -14 q 309 49 415 -14 q 141 219 203 111 q 79 458 79 328 q 141 699 79 590 q 309 869 203 807 q 543 931 415 931 q 749 883 654 931 q 906 751 843 835 l 872 725 q 731 844 815 801 q 544 888 647 888 q 331 831 426 888 q 181 677 236 775 q 126 460 126 579 q 181 242 126 340 q 331 86 235 143 q 544 29 426 29 q 731 72 647 29 q 872 192 815 115 l 906 165 q 749 34 843 82 q 543 -14 654 -14 m 546 1072 q 536 1072 546 1072 q 513 1086 526 1072 q 499 1119 499 1100 q 513 1153 499 1139 q 546 1167 526 1167 q 579 1153 565 1167 q 593 1119 593 1139 q 579 1086 593 1100 q 546 1072 565 1072 z "},"ċ":{"ha":768,"x_min":83,"x_max":692,"o":"m 424 -14 q 252 33 331 -14 q 128 159 174 79 q 83 333 83 239 q 128 508 83 429 q 252 634 174 588 q 425 681 331 681 q 575 646 507 681 q 692 549 643 611 l 661 524 q 558 610 618 579 q 425 640 497 640 q 274 599 342 640 q 167 488 206 558 q 128 333 128 418 q 167 178 128 249 q 274 67 206 108 q 424 26 342 26 q 557 57 496 26 q 661 143 618 88 l 692 118 q 574 21 643 56 q 424 -14 506 -14 m 425 878 q 415 878 425 878 q 392 892 406 878 q 378 925 378 906 q 392 958 378 944 q 425 972 406 972 q 458 958 444 972 q 472 925 472 944 q 458 892 472 906 q 425 878 444 878 z "},"Č":{"ha":985,"x_min":79,"x_max":906,"o":"m 543 -14 q 309 49 415 -14 q 141 219 203 111 q 79 458 79 328 q 141 699 79 590 q 309 869 203 807 q 543 931 415 931 q 749 883 654 931 q 906 751 843 835 l 872 725 q 731 844 815 801 q 544 888 647 888 q 331 831 426 888 q 181 677 236 775 q 126 460 126 579 q 181 242 126 340 q 331 86 235 143 q 544 29 426 29 q 731 72 647 29 q 872 192 815 115 l 906 165 q 749 34 843 82 q 543 -14 654 -14 m 758 1264 l 556 1006 l 535 1006 l 332 1264 l 369 1264 l 546 1061 l 721 1264 l 758 1264 z "},"č":{"ha":768,"x_min":83,"x_max":692,"o":"m 424 -14 q 252 33 331 -14 q 128 159 174 79 q 83 333 83 239 q 128 508 83 429 q 252 634 174 588 q 425 681 331 681 q 575 646 507 681 q 692 549 643 611 l 661 524 q 558 610 618 579 q 425 640 497 640 q 274 599 342 640 q 167 488 206 558 q 128 333 128 418 q 167 178 128 249 q 274 67 206 108 q 424 26 342 26 q 557 57 496 26 q 661 143 618 88 l 692 118 q 574 21 643 56 q 424 -14 506 -14 m 624 1083 l 435 781 l 414 781 l 225 1083 l 263 1083 l 425 844 l 586 1083 l 624 1083 z "},"Ď":{"ha":969,"x_min":143,"x_max":890,"o":"m 143 917 l 392 917 q 663 858 550 917 q 833 694 775 799 q 890 460 890 590 q 833 225 890 329 q 663 60 775 121 q 392 0 550 0 l 143 0 l 143 917 m 392 40 q 637 97 535 40 q 791 248 739 153 q 843 460 843 343 q 791 672 843 578 q 637 822 739 767 q 392 876 535 876 l 188 876 l 188 40 l 392 40 m 604 1264 l 401 1006 l 381 1006 l 178 1264 l 215 1264 l 392 1061 l 567 1264 l 604 1264 z "},"ď":{"ha":981,"x_min":83,"x_max":981,"o":"m 744 1042 l 744 0 l 703 0 l 703 160 q 589 33 668 81 q 417 -14 510 -14 q 247 33 324 -14 q 127 159 171 79 q 83 333 83 239 q 127 508 83 429 q 247 634 171 588 q 417 681 324 681 q 589 633 510 681 q 703 507 668 586 l 703 1042 l 744 1042 m 417 26 q 557 60 492 26 q 663 162 622 93 q 703 333 703 231 q 663 505 703 436 q 557 607 622 574 q 417 640 492 640 q 267 600 333 640 q 165 490 201 560 q 128 333 128 419 q 165 178 128 249 q 269 67 203 108 q 417 26 335 26 m 928 1042 l 981 1042 l 936 750 l 900 750 l 928 1042 z "},"Đ":{"ha":969,"x_min":0,"x_max":890,"o":"m 392 917 q 663 858 550 917 q 833 694 775 799 q 890 460 890 590 q 833 225 890 329 q 663 60 775 121 q 392 0 550 0 l 143 0 l 143 399 l 0 399 l 0 438 l 143 438 l 143 917 l 392 917 m 392 40 q 637 97 535 40 q 791 248 739 153 q 843 460 843 343 q 791 672 843 578 q 637 822 739 767 q 392 876 535 876 l 188 876 l 188 438 l 397 438 l 397 399 l 188 399 l 188 40 l 392 40 z "},"đ":{"ha":879,"x_min":81,"x_max":861,"o":"m 861 839 l 742 839 l 742 0 l 700 0 l 700 160 q 586 33 665 81 q 414 -14 507 -14 q 244 33 321 -14 q 124 159 168 79 q 81 333 81 239 q 124 508 81 429 q 244 634 168 588 q 414 681 321 681 q 586 633 507 681 q 700 507 665 586 l 700 839 l 381 839 l 381 878 l 700 878 l 700 1042 l 742 1042 l 742 878 l 861 878 l 861 839 m 414 26 q 554 60 489 26 q 660 162 619 93 q 700 333 700 231 q 660 505 700 436 q 554 607 619 574 q 414 640 489 640 q 265 600 331 640 q 162 490 199 560 q 125 333 125 419 q 163 178 125 249 q 266 67 200 108 q 414 26 332 26 z "},"Ē":{"ha":779,"x_min":143,"x_max":724,"o":"m 143 917 l 707 917 l 707 876 l 188 876 l 188 519 l 596 519 l 596 479 l 188 479 l 188 40 l 724 40 l 724 0 l 143 0 l 143 917 m 229 1125 l 607 1125 l 607 1086 l 229 1086 l 229 1125 z "},"ē":{"ha":796,"x_min":83,"x_max":713,"o":"m 708 329 l 128 329 q 167 175 128 244 q 274 66 207 106 q 424 26 342 26 q 557 57 496 26 q 661 143 618 88 l 692 118 q 574 22 644 57 q 424 -14 504 -14 q 253 33 331 -14 q 129 158 175 79 q 83 333 83 238 q 128 508 83 428 q 249 634 172 588 q 417 681 325 681 q 564 645 496 681 q 672 542 632 610 q 713 386 713 475 q 708 329 713 363 m 414 640 q 277 605 339 640 q 176 507 215 569 q 129 368 136 444 l 668 368 q 640 512 674 450 q 546 607 606 574 q 414 640 486 640 m 229 946 l 579 946 l 579 907 l 229 907 l 229 946 z "},"Ĕ":{"ha":779,"x_min":143,"x_max":724,"o":"m 143 917 l 707 917 l 707 876 l 188 876 l 188 519 l 596 519 l 596 479 l 188 479 l 188 40 l 724 40 l 724 0 l 143 0 l 143 917 m 418 1017 q 375 1017 418 1017 q 281 1071 332 1017 q 231 1217 231 1125 l 231 1264 l 272 1264 l 272 1219 q 311 1099 272 1142 q 418 1056 350 1056 q 525 1099 486 1056 q 564 1219 564 1142 l 564 1264 l 606 1264 l 606 1217 q 555 1071 606 1125 q 418 1017 504 1017 z "},"ĕ":{"ha":796,"x_min":83,"x_max":713,"o":"m 708 329 l 128 329 q 167 175 128 244 q 274 66 207 106 q 424 26 342 26 q 557 57 496 26 q 661 143 618 88 l 692 118 q 574 22 644 57 q 424 -14 504 -14 q 253 33 331 -14 q 129 158 175 79 q 83 333 83 238 q 128 508 83 428 q 249 634 172 588 q 417 681 325 681 q 564 645 496 681 q 672 542 632 610 q 713 386 713 475 q 708 329 713 363 m 414 640 q 277 605 339 640 q 176 507 215 569 q 129 368 136 444 l 668 368 q 640 512 674 450 q 546 607 606 574 q 414 640 486 640 m 404 799 q 361 799 404 799 q 267 853 318 799 q 217 999 217 907 l 217 1046 l 258 1046 l 258 1001 q 297 881 258 924 q 404 838 336 838 q 511 881 472 838 q 550 1001 550 924 l 550 1046 l 592 1046 l 592 999 q 541 853 592 907 q 404 799 490 799 z "},"Ė":{"ha":779,"x_min":143,"x_max":724,"o":"m 143 917 l 707 917 l 707 876 l 188 876 l 188 519 l 596 519 l 596 479 l 188 479 l 188 40 l 724 40 l 724 0 l 143 0 l 143 917 m 418 1072 q 408 1072 418 1072 q 385 1086 399 1072 q 371 1119 371 1100 q 385 1153 371 1139 q 418 1167 399 1167 q 451 1153 438 1167 q 465 1119 465 1139 q 451 1086 465 1100 q 418 1072 438 1072 z "},"ė":{"ha":796,"x_min":83,"x_max":713,"o":"m 708 329 l 128 329 q 167 175 128 244 q 274 66 207 106 q 424 26 342 26 q 557 57 496 26 q 661 143 618 88 l 692 118 q 574 22 644 57 q 424 -14 504 -14 q 253 33 331 -14 q 129 158 175 79 q 83 333 83 238 q 128 508 83 428 q 249 634 172 588 q 417 681 325 681 q 564 645 496 681 q 672 542 632 610 q 713 386 713 475 q 708 329 713 363 m 414 640 q 277 605 339 640 q 176 507 215 569 q 129 368 136 444 l 668 368 q 640 512 674 450 q 546 607 606 574 q 414 640 486 640 m 404 878 q 394 878 404 878 q 371 892 385 878 q 357 925 357 906 q 371 958 357 944 q 404 972 385 972 q 438 958 424 972 q 451 925 451 944 q 438 892 451 906 q 404 878 424 878 z "},"Ę":{"ha":779,"x_min":143,"x_max":724,"o":"m 143 917 l 707 917 l 707 876 l 188 876 l 188 519 l 596 519 l 596 479 l 188 479 l 188 40 l 724 40 l 724 0 l 143 0 l 143 917 m 639 -264 q 545 -236 583 -264 q 507 -160 507 -208 q 551 -74 507 -112 q 710 28 596 -35 l 724 0 l 643 -51 q 572 -105 593 -83 q 550 -156 550 -126 q 574 -206 550 -187 q 639 -225 599 -225 q 724 -212 674 -225 l 724 -250 q 639 -264 676 -264 z "},"ę":{"ha":796,"x_min":83,"x_max":713,"o":"m 708 329 l 128 329 q 167 175 128 244 q 274 66 207 106 q 424 26 342 26 q 557 57 496 26 q 661 143 618 88 l 692 118 q 574 22 644 57 q 424 -14 504 -14 q 253 33 331 -14 q 129 158 175 79 q 83 333 83 238 q 128 508 83 428 q 249 634 172 588 q 417 681 325 681 q 564 645 496 681 q 672 542 632 610 q 713 386 713 475 q 708 329 713 363 m 414 640 q 277 605 339 640 q 176 507 215 569 q 129 368 136 444 l 668 368 q 640 512 674 450 q 546 607 606 574 q 414 640 486 640 m 572 -264 q 477 -235 514 -264 q 440 -160 440 -206 q 453 -100 440 -126 q 505 -28 465 -74 q 642 118 544 18 l 692 118 l 557 -32 q 499 -103 515 -78 q 483 -156 483 -129 q 508 -206 483 -187 q 572 -225 532 -225 q 657 -212 611 -225 l 657 -250 q 572 -264 615 -264 z "},"Ě":{"ha":779,"x_min":143,"x_max":724,"o":"m 143 917 l 707 917 l 707 876 l 188 876 l 188 519 l 596 519 l 596 479 l 188 479 l 188 40 l 724 40 l 724 0 l 143 0 l 143 917 m 631 1264 l 428 1006 l 407 1006 l 204 1264 l 242 1264 l 418 1061 l 593 1264 l 631 1264 z "},"ě":{"ha":796,"x_min":83,"x_max":713,"o":"m 708 329 l 128 329 q 167 175 128 244 q 274 66 207 106 q 424 26 342 26 q 557 57 496 26 q 661 143 618 88 l 692 118 q 574 22 644 57 q 424 -14 504 -14 q 253 33 331 -14 q 129 158 175 79 q 83 333 83 238 q 128 508 83 428 q 249 634 172 588 q 417 681 325 681 q 564 645 496 681 q 672 542 632 610 q 713 386 713 475 q 708 329 713 363 m 414 640 q 277 605 339 640 q 176 507 215 569 q 129 368 136 444 l 668 368 q 640 512 674 450 q 546 607 606 574 q 414 640 486 640 m 603 1083 l 414 781 l 393 781 l 204 1083 l 242 1083 l 404 844 l 565 1083 l 603 1083 z "},"Ĝ":{"ha":1033,"x_min":79,"x_max":946,"o":"m 543 -14 q 308 49 414 -14 q 140 219 201 111 q 79 458 79 328 q 141 699 79 590 q 309 869 203 807 q 543 931 415 931 q 749 883 654 931 q 906 751 843 835 l 872 725 q 731 844 815 801 q 544 888 647 888 q 331 831 426 888 q 181 677 236 775 q 126 460 126 579 q 181 242 126 340 q 331 86 235 143 q 546 29 428 29 q 753 81 660 29 q 901 222 847 132 l 901 397 l 543 397 l 543 439 l 946 439 l 946 215 q 777 47 885 107 q 543 -14 669 -14 m 718 1006 l 543 1208 l 367 1006 l 329 1006 l 532 1264 l 553 1264 l 756 1006 l 718 1006 z "},"ĝ":{"ha":892,"x_min":93,"x_max":754,"o":"m 754 667 l 754 56 q 713 -115 754 -43 q 601 -226 672 -187 q 439 -264 529 -264 q 269 -228 349 -264 q 138 -133 189 -192 l 167 -106 q 286 -192 214 -160 q 439 -224 358 -224 q 636 -150 560 -224 q 713 56 713 -76 l 713 169 q 598 47 678 94 q 425 0 518 0 q 257 46 333 0 q 137 170 181 92 q 93 340 93 249 q 137 510 93 432 q 257 635 181 589 q 425 681 333 681 q 598 634 518 681 q 713 511 678 588 l 713 667 l 754 667 m 428 40 q 567 73 503 40 q 672 174 632 106 q 713 340 713 242 q 672 508 713 440 q 567 608 632 575 q 428 640 501 640 q 278 600 344 640 q 174 491 211 560 q 138 340 138 422 q 174 190 138 258 q 278 81 211 121 q 428 40 344 40 m 593 781 l 432 1019 l 269 781 l 232 781 l 421 1083 l 442 1083 l 631 781 l 593 781 z "},"Ğ":{"ha":1033,"x_min":79,"x_max":946,"o":"m 543 -14 q 308 49 414 -14 q 140 219 201 111 q 79 458 79 328 q 141 699 79 590 q 309 869 203 807 q 543 931 415 931 q 749 883 654 931 q 906 751 843 835 l 872 725 q 731 844 815 801 q 544 888 647 888 q 331 831 426 888 q 181 677 236 775 q 126 460 126 579 q 181 242 126 340 q 331 86 235 143 q 546 29 428 29 q 753 81 660 29 q 901 222 847 132 l 901 397 l 543 397 l 543 439 l 946 439 l 946 215 q 777 47 885 107 q 543 -14 669 -14 m 543 1017 q 500 1017 543 1017 q 406 1071 457 1017 q 356 1217 356 1125 l 356 1264 l 397 1264 l 397 1219 q 436 1099 397 1142 q 543 1056 475 1056 q 650 1099 611 1056 q 689 1219 689 1142 l 689 1264 l 731 1264 l 731 1217 q 680 1071 731 1125 q 543 1017 629 1017 z "},"ğ":{"ha":892,"x_min":93,"x_max":754,"o":"m 754 667 l 754 56 q 713 -115 754 -43 q 601 -226 672 -187 q 439 -264 529 -264 q 269 -228 349 -264 q 138 -133 189 -192 l 167 -106 q 286 -192 214 -160 q 439 -224 358 -224 q 636 -150 560 -224 q 713 56 713 -76 l 713 169 q 598 47 678 94 q 425 0 518 0 q 257 46 333 0 q 137 170 181 92 q 93 340 93 249 q 137 510 93 432 q 257 635 181 589 q 425 681 333 681 q 598 634 518 681 q 713 511 678 588 l 713 667 l 754 667 m 428 40 q 567 73 503 40 q 672 174 632 106 q 713 340 713 242 q 672 508 713 440 q 567 608 632 575 q 428 640 501 640 q 278 600 344 640 q 174 491 211 560 q 138 340 138 422 q 174 190 138 258 q 278 81 211 121 q 428 40 344 40 m 432 799 q 389 799 432 799 q 295 853 346 799 q 244 999 244 907 l 244 1046 l 286 1046 l 286 1001 q 325 881 286 924 q 432 838 364 838 q 539 881 500 838 q 578 1001 578 924 l 578 1046 l 619 1046 l 619 999 q 569 853 619 907 q 432 799 518 799 z "},"Ġ":{"ha":1033,"x_min":79,"x_max":946,"o":"m 543 -14 q 308 49 414 -14 q 140 219 201 111 q 79 458 79 328 q 141 699 79 590 q 309 869 203 807 q 543 931 415 931 q 749 883 654 931 q 906 751 843 835 l 872 725 q 731 844 815 801 q 544 888 647 888 q 331 831 426 888 q 181 677 236 775 q 126 460 126 579 q 181 242 126 340 q 331 86 235 143 q 546 29 428 29 q 753 81 660 29 q 901 222 847 132 l 901 397 l 543 397 l 543 439 l 946 439 l 946 215 q 777 47 885 107 q 543 -14 669 -14 m 543 1072 q 533 1072 543 1072 q 510 1086 524 1072 q 496 1119 496 1100 q 510 1153 496 1139 q 543 1167 524 1167 q 576 1153 563 1167 q 590 1119 590 1139 q 576 1086 590 1100 q 543 1072 563 1072 z "},"ġ":{"ha":892,"x_min":93,"x_max":754,"o":"m 754 667 l 754 56 q 713 -115 754 -43 q 601 -226 672 -187 q 439 -264 529 -264 q 269 -228 349 -264 q 138 -133 189 -192 l 167 -106 q 286 -192 214 -160 q 439 -224 358 -224 q 636 -150 560 -224 q 713 56 713 -76 l 713 169 q 598 47 678 94 q 425 0 518 0 q 257 46 333 0 q 137 170 181 92 q 93 340 93 249 q 137 510 93 432 q 257 635 181 589 q 425 681 333 681 q 598 634 518 681 q 713 511 678 588 l 713 667 l 754 667 m 428 40 q 567 73 503 40 q 672 174 632 106 q 713 340 713 242 q 672 508 713 440 q 567 608 632 575 q 428 640 501 640 q 278 600 344 640 q 174 491 211 560 q 138 340 138 422 q 174 190 138 258 q 278 81 211 121 q 428 40 344 40 m 432 878 q 422 878 432 878 q 399 892 413 878 q 385 925 385 906 q 399 958 385 944 q 432 972 413 972 q 465 958 451 972 q 479 925 479 944 q 465 892 479 906 q 432 878 451 878 z "},"Ģ":{"ha":1033,"x_min":79,"x_max":946,"o":"m 543 -14 q 308 49 414 -14 q 140 219 201 111 q 79 458 79 328 q 141 699 79 590 q 309 869 203 807 q 543 931 415 931 q 749 883 654 931 q 906 751 843 835 l 872 725 q 731 844 815 801 q 544 888 647 888 q 331 831 426 888 q 181 677 236 775 q 126 460 126 579 q 181 242 126 340 q 331 86 235 143 q 546 29 428 29 q 753 81 660 29 q 901 222 847 132 l 901 397 l 543 397 l 543 439 l 946 439 l 946 215 q 777 47 885 107 q 543 -14 669 -14 m 518 -72 l 568 -72 l 535 -306 l 499 -306 l 518 -72 z "},"ģ":{"ha":892,"x_min":93,"x_max":754,"o":"m 754 667 l 754 56 q 713 -115 754 -43 q 601 -226 672 -187 q 439 -264 529 -264 q 269 -228 349 -264 q 138 -133 189 -192 l 167 -106 q 286 -192 214 -160 q 439 -224 358 -224 q 636 -150 560 -224 q 713 56 713 -76 l 713 169 q 598 47 678 94 q 425 0 518 0 q 257 46 333 0 q 137 170 181 92 q 93 340 93 249 q 137 510 93 432 q 257 635 181 589 q 425 681 333 681 q 598 634 518 681 q 713 511 678 588 l 713 667 l 754 667 m 428 40 q 567 73 503 40 q 672 174 632 106 q 713 340 713 242 q 672 508 713 440 q 567 608 632 575 q 428 640 501 640 q 278 600 344 640 q 174 491 211 560 q 138 340 138 422 q 174 190 138 258 q 278 81 211 121 q 428 40 344 40 m 446 1083 l 482 1083 l 454 781 l 404 781 l 446 1083 z "},"Ĥ":{"ha":978,"x_min":143,"x_max":835,"o":"m 143 917 l 188 917 l 188 519 l 790 519 l 790 917 l 835 917 l 835 0 l 790 0 l 790 479 l 188 479 l 188 0 l 143 0 l 143 917 m 664 1006 l 489 1208 l 313 1006 l 275 1006 l 478 1264 l 499 1264 l 701 1006 l 664 1006 z "},"ĥ":{"ha":765,"x_min":-21,"x_max":639,"o":"m 397 681 q 574 609 510 681 q 639 424 639 538 l 639 0 l 597 0 l 597 424 q 543 581 597 521 q 396 640 489 640 q 240 579 301 640 q 179 424 179 518 l 179 0 l 138 0 l 138 1042 l 179 1042 l 179 560 q 267 649 211 617 q 397 681 324 681 m 368 1131 l 193 1333 l 17 1131 l -21 1131 l 182 1389 l 203 1389 l 406 1131 l 368 1131 z "},"Ħ":{"ha":986,"x_min":0,"x_max":986,"o":"m 147 667 l 0 667 l 0 706 l 147 706 l 147 917 l 192 917 l 192 706 l 794 706 l 794 917 l 839 917 l 839 706 l 986 706 l 986 667 l 839 667 l 839 0 l 794 0 l 794 397 l 192 397 l 192 0 l 147 0 l 147 667 m 794 438 l 794 667 l 192 667 l 192 438 l 794 438 z "},"ħ":{"ha":765,"x_min":18,"x_max":639,"o":"m 397 681 q 574 609 510 681 q 639 424 639 538 l 639 0 l 597 0 l 597 424 q 543 581 597 521 q 396 640 489 640 q 240 579 301 640 q 179 424 179 518 l 179 0 l 138 0 l 138 839 l 18 839 l 18 878 l 138 878 l 138 1042 l 179 1042 l 179 878 l 471 878 l 471 839 l 179 839 l 179 560 q 267 649 211 617 q 397 681 324 681 z "},"Ĩ":{"ha":331,"x_min":-35,"x_max":365,"o":"m 143 917 l 188 917 l 188 0 l 143 0 l 143 917 m 278 1047 q 233 1056 251 1047 q 181 1088 214 1065 l 126 1124 q 57 1153 82 1153 q 20 1136 33 1153 q 7 1090 7 1119 l 7 1061 l -33 1061 q -35 1088 -35 1069 q -10 1163 -35 1133 q 53 1192 14 1192 q 98 1183 79 1192 q 150 1151 117 1174 l 204 1115 q 274 1086 249 1086 q 310 1103 297 1086 q 324 1149 324 1119 l 324 1178 l 364 1178 q 365 1151 365 1169 q 341 1076 365 1106 q 278 1047 317 1047 z "},"ĩ":{"ha":317,"x_min":-10,"x_max":325,"o":"m 138 667 l 179 667 l 179 0 l 138 0 l 138 667 m 242 846 q 199 858 217 846 q 161 893 181 869 l 132 928 q 105 955 117 946 q 78 964 93 964 q 32 896 32 964 l 32 867 l -8 867 l -10 892 q 11 969 -10 935 q 74 1003 32 1003 q 118 990 99 1003 q 156 956 138 978 l 185 921 q 212 894 200 903 q 238 885 224 885 q 283 953 283 885 l 283 982 l 324 982 l 325 957 q 304 880 325 914 q 242 846 283 846 z "},"Ī":{"ha":331,"x_min":-24,"x_max":354,"o":"m 143 917 l 188 917 l 188 0 l 143 0 l 143 917 m -24 1125 l 354 1125 l 354 1086 l -24 1086 l -24 1125 z "},"ī":{"ha":317,"x_min":25,"x_max":292,"o":"m 138 667 l 179 667 l 179 0 l 138 0 l 138 667 m 25 944 l 292 944 l 292 906 l 25 906 l 25 944 z "},"Ĭ":{"ha":331,"x_min":-22,"x_max":353,"o":"m 143 917 l 188 917 l 188 0 l 143 0 l 143 917 m 165 1017 q 122 1017 165 1017 q 28 1071 79 1017 q -22 1217 -22 1125 l -22 1264 l 19 1264 l 19 1219 q 58 1099 19 1142 q 165 1056 97 1056 q 272 1099 233 1056 q 311 1219 311 1142 l 311 1264 l 353 1264 l 353 1217 q 302 1071 353 1125 q 165 1017 251 1017 z "},"ĭ":{"ha":317,"x_min":-29,"x_max":346,"o":"m 138 667 l 179 667 l 179 0 l 138 0 l 138 667 m 158 799 q 115 799 158 799 q 22 853 72 799 q -29 999 -29 907 l -29 1046 l 13 1046 l 13 1001 q 51 881 13 924 q 158 838 90 838 q 265 881 226 838 q 304 1001 304 924 l 304 1046 l 346 1046 l 346 999 q 295 853 346 907 q 158 799 244 799 z "},"Į":{"ha":331,"x_min":-29,"x_max":188,"o":"m 143 917 l 188 917 l 188 0 l 143 0 l 143 917 m 103 -264 q 9 -236 47 -264 q -29 -160 -29 -208 q 15 -74 -29 -112 q 174 28 60 -35 l 188 0 l 107 -51 q 35 -105 57 -83 q 14 -156 14 -126 q 38 -206 14 -187 q 103 -225 63 -225 q 188 -212 138 -225 l 188 -250 q 103 -264 140 -264 z "},"į":{"ha":317,"x_min":-37,"x_max":206,"o":"m 138 667 l 179 667 l 179 0 l 138 0 l 138 667 m 158 878 q 149 878 158 878 q 125 892 139 878 q 111 925 111 906 q 125 958 111 944 q 158 972 139 972 q 192 958 178 972 q 206 925 206 944 q 192 892 206 906 q 158 878 178 878 m 94 -264 q 1 -236 39 -264 q -37 -160 -37 -208 q 7 -74 -37 -112 q 165 28 51 -35 l 179 0 l 99 -51 q 27 -105 49 -83 q 6 -156 6 -126 q 30 -206 6 -187 q 94 -225 54 -225 q 179 -212 129 -225 l 179 -250 q 94 -264 132 -264 z "},"İ":{"ha":331,"x_min":118,"x_max":213,"o":"m 143 917 l 188 917 l 188 0 l 143 0 l 143 917 m 165 1072 q 156 1072 165 1072 q 132 1086 146 1072 q 118 1119 118 1100 q 132 1153 118 1139 q 165 1167 146 1167 q 199 1153 185 1167 q 213 1119 213 1139 q 199 1086 213 1100 q 165 1072 185 1072 z "},"ı":{"ha":317,"x_min":138,"x_max":179,"o":"m 138 667 l 179 667 l 179 0 l 138 0 l 138 667 z "},"Ĳ":{"ha":832,"x_min":143,"x_max":689,"o":"m 143 917 l 188 917 l 188 0 l 143 0 l 143 917 m 372 0 l 372 40 q 479 29 432 29 q 600 64 556 29 q 644 188 644 99 l 644 917 l 689 917 l 689 188 q 632 35 689 83 q 481 -14 575 -14 q 372 0 431 -14 z "},"ĳ":{"ha":633,"x_min":111,"x_max":522,"o":"m 138 667 l 179 667 l 179 0 l 138 0 l 138 667 m 158 878 q 149 878 158 878 q 125 892 139 878 q 111 925 111 906 q 125 958 111 944 q 158 972 139 972 q 192 958 178 972 q 206 925 206 944 q 192 892 206 906 q 158 878 178 878 m 238 -256 l 238 -218 q 304 -225 276 -225 q 454 -76 454 -225 l 454 667 l 496 667 l 496 -76 q 444 -219 496 -174 q 307 -264 393 -264 q 238 -256 271 -264 m 475 878 q 465 878 475 878 q 442 892 456 878 q 428 925 428 906 q 442 958 428 944 q 475 972 456 972 q 508 958 494 972 q 522 925 522 944 q 508 892 522 906 q 475 878 494 878 z "},"Ĵ":{"ha":501,"x_min":42,"x_max":544,"o":"m 42 0 l 42 40 q 149 29 101 29 q 269 64 225 29 q 314 188 314 99 l 314 917 l 358 917 l 358 188 q 301 35 358 83 q 150 -14 244 -14 q 42 0 100 -14 m 507 1006 l 332 1208 l 156 1006 l 118 1006 l 321 1264 l 342 1264 l 544 1006 l 507 1006 z "},"ĵ":{"ha":317,"x_min":-79,"x_max":357,"o":"m -79 -256 l -79 -218 q -12 -225 -40 -225 q 138 -76 138 -225 l 138 667 l 179 667 l 179 -76 q 128 -219 179 -174 q -10 -264 76 -264 q -79 -256 -46 -264 m 319 781 l 158 1019 l -4 781 l -42 781 l 147 1083 l 168 1083 l 357 781 l 319 781 z "},"Ķ":{"ha":831,"x_min":143,"x_max":775,"o":"m 143 917 l 188 917 l 188 0 l 143 0 l 143 917 m 775 0 l 715 0 l 214 499 l 682 917 l 744 917 l 275 499 l 775 0 m 365 -72 l 415 -72 l 382 -306 l 346 -306 l 365 -72 z "},"ķ":{"ha":643,"x_min":138,"x_max":615,"o":"m 138 1042 l 179 1042 l 179 0 l 138 0 l 138 1042 m 615 0 l 560 0 l 206 375 l 524 667 l 583 667 l 263 374 l 615 0 m 296 -72 l 346 -72 l 313 -306 l 276 -306 l 296 -72 z "},"Ĺ":{"ha":685,"x_min":143,"x_max":651,"o":"m 143 917 l 188 917 l 188 40 l 651 40 l 651 0 l 143 0 l 143 917 m 279 1264 l 331 1264 l 331 1257 l 182 1006 l 146 1006 l 279 1264 z "},"ĺ":{"ha":317,"x_min":138,"x_max":324,"o":"m 138 1042 l 179 1042 l 179 0 l 138 0 l 138 1042 m 272 1389 l 324 1389 l 324 1382 l 175 1131 l 139 1131 l 272 1389 z "},"Ļ":{"ha":685,"x_min":143,"x_max":651,"o":"m 143 917 l 188 917 l 188 40 l 651 40 l 651 0 l 143 0 l 143 917 m 367 -72 l 417 -72 l 383 -306 l 347 -306 l 367 -72 z "},"ļ":{"ha":317,"x_min":114,"x_max":183,"o":"m 138 1042 l 179 1042 l 179 0 l 138 0 l 138 1042 m 133 -72 l 183 -72 l 150 -306 l 114 -306 l 133 -72 z "},"Ľ":{"ha":685,"x_min":143,"x_max":651,"o":"m 143 917 l 188 917 l 188 40 l 651 40 l 651 0 l 143 0 l 143 917 m 539 1000 l 592 1000 l 547 708 l 511 708 l 539 1000 z "},"ľ":{"ha":415,"x_min":138,"x_max":415,"o":"m 138 1042 l 179 1042 l 179 0 l 138 0 l 138 1042 m 363 1042 l 415 1042 l 371 750 l 335 750 l 363 1042 z "},"Ŀ":{"ha":685,"x_min":143,"x_max":651,"o":"m 143 917 l 188 917 l 188 40 l 651 40 l 651 0 l 143 0 l 143 917 m 514 447 q 477 462 493 447 q 461 500 461 476 q 477 540 461 525 q 514 556 493 556 q 553 541 536 556 q 569 500 569 526 q 553 462 569 476 q 514 447 536 447 z "},"ŀ":{"ha":321,"x_min":138,"x_max":375,"o":"m 138 1042 l 179 1042 l 179 0 l 138 0 l 138 1042 m 319 375 q 283 390 299 375 q 267 428 267 404 q 283 468 267 453 q 319 483 299 483 q 358 469 342 483 q 375 428 375 454 q 358 390 375 404 q 319 375 342 375 z "},"Ł":{"ha":685,"x_min":28,"x_max":651,"o":"m 651 40 l 651 0 l 143 0 l 143 407 l 28 354 l 28 397 l 143 450 l 143 917 l 188 917 l 188 465 l 522 618 l 522 575 l 188 422 l 188 40 l 651 40 z "},"ł":{"ha":317,"x_min":18,"x_max":299,"o":"m 299 578 l 179 522 l 179 0 l 138 0 l 138 507 l 18 451 l 18 494 l 138 550 l 138 1042 l 179 1042 l 179 565 l 299 621 l 299 578 z "},"Ń":{"ha":978,"x_min":143,"x_max":835,"o":"m 835 917 l 835 -14 l 814 -14 l 188 821 l 188 0 l 143 0 l 143 931 l 164 931 l 790 89 l 790 917 l 835 917 m 603 1264 l 654 1264 l 654 1257 l 506 1006 l 469 1006 l 603 1264 z "},"ń":{"ha":765,"x_min":138,"x_max":639,"o":"m 397 681 q 574 609 510 681 q 639 424 639 538 l 639 0 l 597 0 l 597 424 q 543 581 597 521 q 396 640 489 640 q 240 579 301 640 q 179 424 179 518 l 179 0 l 138 0 l 138 667 l 179 667 l 179 560 q 267 649 211 617 q 397 681 324 681 m 510 1083 l 561 1083 l 561 1076 l 413 781 l 376 781 l 510 1083 z "},"Ņ":{"ha":978,"x_min":143,"x_max":835,"o":"m 835 917 l 835 -14 l 814 -14 l 188 821 l 188 0 l 143 0 l 143 931 l 164 931 l 790 89 l 790 917 l 835 917 m 464 -72 l 514 -72 l 481 -306 l 444 -306 l 464 -72 z "},"ņ":{"ha":765,"x_min":138,"x_max":639,"o":"m 397 681 q 574 609 510 681 q 639 424 639 538 l 639 0 l 597 0 l 597 424 q 543 581 597 521 q 396 640 489 640 q 240 579 301 640 q 179 424 179 518 l 179 0 l 138 0 l 138 667 l 179 667 l 179 560 q 267 649 211 617 q 397 681 324 681 m 369 -72 l 419 -72 l 386 -306 l 350 -306 l 369 -72 z "},"Ň":{"ha":978,"x_min":143,"x_max":835,"o":"m 835 917 l 835 -14 l 814 -14 l 188 821 l 188 0 l 143 0 l 143 931 l 164 931 l 790 89 l 790 917 l 835 917 m 701 1264 l 499 1006 l 478 1006 l 275 1264 l 313 1264 l 489 1061 l 664 1264 l 701 1264 z "},"ň":{"ha":765,"x_min":138,"x_max":639,"o":"m 397 681 q 574 609 510 681 q 639 424 639 538 l 639 0 l 597 0 l 597 424 q 543 581 597 521 q 396 640 489 640 q 240 579 301 640 q 179 424 179 518 l 179 0 l 138 0 l 138 667 l 179 667 l 179 560 q 267 649 211 617 q 397 681 324 681 m 593 1083 l 404 781 l 383 781 l 194 1083 l 232 1083 l 394 844 l 556 1083 l 593 1083 z "},"Ŋ":{"ha":978,"x_min":143,"x_max":835,"o":"m 835 917 l 835 -76 q 783 -219 835 -174 q 646 -264 732 -264 q 576 -256 610 -264 l 576 -218 q 643 -225 615 -225 q 751 -192 711 -225 q 790 -76 790 -158 l 790 -8 l 188 818 l 188 0 l 143 0 l 143 931 l 164 931 l 790 72 l 790 917 l 835 917 z "},"ŋ":{"ha":765,"x_min":138,"x_max":639,"o":"m 397 681 q 574 609 510 681 q 639 424 639 538 l 639 -76 q 588 -219 639 -174 q 450 -264 536 -264 q 381 -256 414 -264 l 381 -218 q 447 -225 419 -225 q 597 -76 597 -225 l 597 424 q 543 581 597 521 q 396 640 489 640 q 240 579 301 640 q 179 424 179 518 l 179 0 l 138 0 l 138 667 l 179 667 l 179 560 q 267 649 211 617 q 397 681 324 681 z "},"Ō":{"ha":1089,"x_min":79,"x_max":1010,"o":"m 543 -14 q 479 -14 543 -14 q 309 49 415 -14 q 141 219 203 111 q 79 458 79 328 q 141 699 79 590 q 309 869 203 807 q 543 931 415 931 q 778 868 671 931 q 947 698 885 806 q 1010 458 1010 590 q 947 219 1010 328 q 778 49 885 111 q 543 -14 671 -14 m 544 29 q 757 86 661 29 q 908 242 853 143 q 963 460 963 340 q 908 676 963 578 q 757 831 853 774 q 544 888 661 888 q 332 831 428 888 q 181 677 236 775 q 126 460 126 579 q 181 242 126 340 q 331 86 236 143 q 544 29 426 29 m 356 1125 l 733 1125 l 733 1086 l 356 1086 l 356 1125 z "},"ō":{"ha":851,"x_min":83,"x_max":768,"o":"m 424 -14 q 252 32 331 -14 q 128 158 174 78 q 83 333 83 238 q 128 509 83 429 q 252 635 174 589 q 425 681 331 681 q 598 635 519 681 q 722 509 676 589 q 768 333 768 429 q 722 158 768 238 q 597 33 676 79 q 424 -14 518 -14 m 424 26 q 465 26 424 26 q 576 67 507 26 q 684 178 644 108 q 724 333 724 249 q 684 490 724 419 q 576 600 644 560 q 425 640 508 640 q 274 600 342 640 q 167 490 206 560 q 128 333 128 419 q 167 177 128 247 q 273 67 206 107 q 424 26 340 26 m 251 946 l 601 946 l 601 907 l 251 907 l 251 946 z "},"Ŏ":{"ha":1089,"x_min":79,"x_max":1010,"o":"m 543 -14 q 479 -14 543 -14 q 309 49 415 -14 q 141 219 203 111 q 79 458 79 328 q 141 699 79 590 q 309 869 203 807 q 543 931 415 931 q 778 868 671 931 q 947 698 885 806 q 1010 458 1010 590 q 947 219 1010 328 q 778 49 885 111 q 543 -14 671 -14 m 544 29 q 757 86 661 29 q 908 242 853 143 q 963 460 963 340 q 908 676 963 578 q 757 831 853 774 q 544 888 661 888 q 332 831 428 888 q 181 677 236 775 q 126 460 126 579 q 181 242 126 340 q 331 86 236 143 q 544 29 426 29 m 544 1017 q 501 1017 544 1017 q 408 1071 458 1017 q 357 1217 357 1125 l 357 1264 l 399 1264 l 399 1219 q 438 1099 399 1142 q 544 1056 476 1056 q 651 1099 613 1056 q 690 1219 690 1142 l 690 1264 l 732 1264 l 732 1217 q 681 1071 732 1125 q 544 1017 631 1017 z "},"ŏ":{"ha":851,"x_min":83,"x_max":768,"o":"m 424 -14 q 252 32 331 -14 q 128 158 174 78 q 83 333 83 238 q 128 509 83 429 q 252 635 174 589 q 425 681 331 681 q 598 635 519 681 q 722 509 676 589 q 768 333 768 429 q 722 158 768 238 q 597 33 676 79 q 424 -14 518 -14 m 424 26 q 465 26 424 26 q 576 67 507 26 q 684 178 644 108 q 724 333 724 249 q 684 490 724 419 q 576 600 644 560 q 425 640 508 640 q 274 600 342 640 q 167 490 206 560 q 128 333 128 419 q 167 177 128 247 q 273 67 206 107 q 424 26 340 26 m 426 799 q 383 799 426 799 q 290 853 340 799 q 239 999 239 907 l 239 1046 l 281 1046 l 281 1001 q 319 881 281 924 q 426 838 358 838 q 533 881 494 838 q 572 1001 572 924 l 572 1046 l 614 1046 l 614 999 q 563 853 614 907 q 426 799 513 799 z "},"Ő":{"ha":1089,"x_min":79,"x_max":1010,"o":"m 543 -14 q 479 -14 543 -14 q 309 49 415 -14 q 141 219 203 111 q 79 458 79 328 q 141 699 79 590 q 309 869 203 807 q 543 931 415 931 q 778 868 671 931 q 947 698 885 806 q 1010 458 1010 590 q 947 219 1010 328 q 778 49 885 111 q 543 -14 671 -14 m 544 29 q 757 86 661 29 q 908 242 853 143 q 963 460 963 340 q 908 676 963 578 q 757 831 853 774 q 544 888 661 888 q 332 831 428 888 q 181 677 236 775 q 126 460 126 579 q 181 242 126 340 q 331 86 236 143 q 544 29 426 29 m 501 1264 l 553 1264 l 553 1257 l 404 1006 l 368 1006 l 501 1264 m 785 1264 l 836 1264 l 836 1257 l 688 1006 l 651 1006 l 785 1264 z "},"ő":{"ha":851,"x_min":83,"x_max":768,"o":"m 424 -14 q 252 32 331 -14 q 128 158 174 78 q 83 333 83 238 q 128 509 83 429 q 252 635 174 589 q 425 681 331 681 q 598 635 519 681 q 722 509 676 589 q 768 333 768 429 q 722 158 768 238 q 597 33 676 79 q 424 -14 518 -14 m 424 26 q 465 26 424 26 q 576 67 507 26 q 684 178 644 108 q 724 333 724 249 q 684 490 724 419 q 576 600 644 560 q 425 640 508 640 q 274 600 342 640 q 167 490 206 560 q 128 333 128 419 q 167 177 128 247 q 273 67 206 107 q 424 26 340 26 m 407 1083 l 458 1083 l 458 1076 l 310 781 l 274 781 l 407 1083 m 663 1083 l 714 1083 l 714 1076 l 565 781 l 529 781 l 663 1083 z "},"Œ":{"ha":1599,"x_min":79,"x_max":1543,"o":"m 1543 40 l 1543 0 l 963 0 l 963 263 q 800 63 915 139 q 543 -14 685 -14 q 309 49 415 -14 q 141 219 203 111 q 79 458 79 328 q 141 699 79 590 q 309 869 203 807 q 543 931 415 931 q 800 854 685 931 q 963 654 915 778 l 963 917 l 1526 917 l 1526 876 l 1007 876 l 1007 519 l 1415 519 l 1415 479 l 1007 479 l 1007 40 l 1543 40 m 544 29 q 603 29 544 29 q 758 86 663 29 q 908 242 853 143 q 963 460 963 340 q 908 676 963 578 q 758 831 853 774 q 544 888 663 888 q 331 831 426 888 q 181 677 236 775 q 126 460 126 579 q 181 242 126 340 q 331 86 235 143 q 544 29 426 29 z "},"œ":{"ha":1408,"x_min":83,"x_max":1325,"o":"m 1321 329 l 754 329 q 790 174 754 243 q 890 66 826 106 q 1036 26 954 26 q 1169 57 1108 26 q 1274 143 1231 88 l 1304 118 q 1187 22 1257 57 q 1036 -14 1117 -14 q 848 46 929 -14 q 732 204 767 106 q 613 47 696 107 q 424 -14 531 -14 q 253 33 331 -14 q 129 159 175 79 q 83 333 83 239 q 129 508 83 428 q 253 634 175 588 q 425 681 332 681 q 614 621 532 681 q 732 464 696 561 q 846 621 767 561 q 1029 681 925 681 q 1176 645 1108 681 q 1285 542 1244 610 q 1325 386 1325 475 q 1321 329 1325 363 m 424 26 q 572 67 507 26 q 674 178 638 108 q 710 333 710 249 q 674 490 710 419 q 573 600 638 560 q 425 640 508 640 q 274 599 342 640 q 167 488 206 558 q 128 333 128 418 q 167 178 128 249 q 274 67 206 108 q 424 26 342 26 m 1026 640 q 894 605 953 640 q 799 508 835 569 q 756 368 763 446 l 1281 368 q 1252 512 1286 450 q 1158 607 1218 574 q 1026 640 1099 640 z "},"Ŕ":{"ha":844,"x_min":143,"x_max":813,"o":"m 758 0 l 433 432 l 188 432 l 188 0 l 143 0 l 143 917 l 447 917 q 641 849 571 917 q 711 675 711 781 q 652 511 711 578 q 488 433 593 444 l 813 0 l 758 0 m 188 472 l 444 472 q 608 528 551 472 q 665 674 665 585 q 608 819 665 763 q 444 876 551 876 l 188 876 l 188 472 m 481 1264 l 532 1264 l 532 1257 l 383 1006 l 347 1006 l 481 1264 z "},"ŕ":{"ha":474,"x_min":138,"x_max":449,"o":"m 449 667 l 449 632 l 417 632 q 304 604 360 632 q 214 524 249 576 q 179 403 179 472 l 179 0 l 138 0 l 138 667 l 179 667 l 179 539 q 275 636 214 603 q 410 669 336 669 q 449 667 426 669 m 319 1083 l 371 1083 l 371 1076 l 222 781 l 186 781 l 319 1083 z "},"Ŗ":{"ha":844,"x_min":143,"x_max":813,"o":"m 758 0 l 433 432 l 188 432 l 188 0 l 143 0 l 143 917 l 447 917 q 641 849 571 917 q 711 675 711 781 q 652 511 711 578 q 488 433 593 444 l 813 0 l 758 0 m 188 472 l 444 472 q 608 528 551 472 q 665 674 665 585 q 608 819 665 763 q 444 876 551 876 l 188 876 l 188 472 m 397 -72 l 447 -72 l 414 -306 l 378 -306 l 397 -72 z "},"ŗ":{"ha":474,"x_min":114,"x_max":449,"o":"m 449 667 l 449 632 l 417 632 q 304 604 360 632 q 214 524 249 576 q 179 403 179 472 l 179 0 l 138 0 l 138 667 l 179 667 l 179 539 q 275 636 214 603 q 410 669 336 669 q 449 667 426 669 m 133 -72 l 183 -72 l 150 -306 l 114 -306 l 133 -72 z "},"Ř":{"ha":844,"x_min":143,"x_max":813,"o":"m 758 0 l 433 432 l 188 432 l 188 0 l 143 0 l 143 917 l 447 917 q 641 849 571 917 q 711 675 711 781 q 652 511 711 578 q 488 433 593 444 l 813 0 l 758 0 m 188 472 l 444 472 q 608 528 551 472 q 665 674 665 585 q 608 819 665 763 q 444 876 551 876 l 188 876 l 188 472 m 579 1264 l 376 1006 l 356 1006 l 153 1264 l 190 1264 l 367 1061 l 542 1264 l 579 1264 z "},"ř":{"ha":474,"x_min":4,"x_max":449,"o":"m 449 667 l 449 632 l 417 632 q 304 604 360 632 q 214 524 249 576 q 179 403 179 472 l 179 0 l 138 0 l 138 667 l 179 667 l 179 539 q 275 636 214 603 q 410 669 336 669 q 449 667 426 669 m 403 1083 l 214 781 l 193 781 l 4 1083 l 42 1083 l 204 844 l 365 1083 l 403 1083 z "},"Ś":{"ha":771,"x_min":69,"x_max":668,"o":"m 393 -14 q 207 38 289 -14 q 69 179 125 89 l 103 204 q 228 76 154 124 q 394 29 301 29 q 557 81 493 29 q 621 221 621 132 q 602 309 621 274 q 545 371 583 344 q 439 431 507 397 l 333 481 q 231 536 269 511 q 163 605 192 561 q 135 714 135 649 q 209 873 135 815 q 393 931 283 931 q 547 894 479 931 q 658 792 614 857 l 625 765 q 396 888 536 888 q 246 846 310 888 q 182 717 182 804 q 203 630 182 665 q 260 572 225 594 q 354 519 294 549 l 460 469 q 617 366 565 419 q 668 221 668 313 q 632 98 668 151 q 533 15 596 44 q 393 -14 471 -14 m 507 1264 l 558 1264 l 558 1257 l 410 1006 l 374 1006 l 507 1264 z "},"ś":{"ha":632,"x_min":72,"x_max":536,"o":"m 322 -14 q 178 26 240 -14 q 72 132 115 67 l 106 157 q 203 60 150 93 q 325 26 256 26 q 444 61 396 26 q 492 161 492 96 q 472 230 492 201 q 422 276 451 258 q 340 317 393 293 l 282 343 q 162 415 204 378 q 119 515 119 453 q 180 635 119 590 q 322 681 240 681 q 532 574 446 681 l 501 546 q 419 616 463 592 q 319 640 375 640 q 210 609 256 640 q 164 517 164 578 q 181 457 164 481 q 226 418 199 433 q 304 379 253 403 l 367 351 q 491 276 446 317 q 536 164 536 235 q 474 33 536 81 q 322 -14 411 -14 m 438 1083 l 489 1083 l 489 1076 l 340 781 l 304 781 l 438 1083 z "},"Ŝ":{"ha":771,"x_min":69,"x_max":668,"o":"m 393 -14 q 207 38 289 -14 q 69 179 125 89 l 103 204 q 228 76 154 124 q 394 29 301 29 q 557 81 493 29 q 621 221 621 132 q 602 309 621 274 q 545 371 583 344 q 439 431 507 397 l 333 481 q 231 536 269 511 q 163 605 192 561 q 135 714 135 649 q 209 873 135 815 q 393 931 283 931 q 547 894 479 931 q 658 792 614 857 l 625 765 q 396 888 536 888 q 246 846 310 888 q 182 717 182 804 q 203 630 182 665 q 260 572 225 594 q 354 519 294 549 l 460 469 q 617 366 565 419 q 668 221 668 313 q 632 98 668 151 q 533 15 596 44 q 393 -14 471 -14 m 568 1006 l 393 1208 l 217 1006 l 179 1006 l 382 1264 l 403 1264 l 606 1006 l 568 1006 z "},"ŝ":{"ha":632,"x_min":72,"x_max":536,"o":"m 322 -14 q 178 26 240 -14 q 72 132 115 67 l 106 157 q 203 60 150 93 q 325 26 256 26 q 444 61 396 26 q 492 161 492 96 q 472 230 492 201 q 422 276 451 258 q 340 317 393 293 l 282 343 q 162 415 204 378 q 119 515 119 453 q 180 635 119 590 q 322 681 240 681 q 532 574 446 681 l 501 546 q 419 616 463 592 q 319 640 375 640 q 210 609 256 640 q 164 517 164 578 q 181 457 164 481 q 226 418 199 433 q 304 379 253 403 l 367 351 q 491 276 446 317 q 536 164 536 235 q 474 33 536 81 q 322 -14 411 -14 m 483 781 l 322 1019 l 160 781 l 122 781 l 311 1083 l 332 1083 l 521 781 l 483 781 z "},"Ş":{"ha":771,"x_min":69,"x_max":668,"o":"m 393 -14 q 207 38 289 -14 q 69 179 125 89 l 103 204 q 228 76 154 124 q 394 29 301 29 q 557 81 493 29 q 621 221 621 132 q 602 309 621 274 q 545 371 583 344 q 439 431 507 397 l 333 481 q 231 536 269 511 q 163 605 192 561 q 135 714 135 649 q 209 873 135 815 q 393 931 283 931 q 547 894 479 931 q 658 792 614 857 l 625 765 q 396 888 536 888 q 246 846 310 888 q 182 717 182 804 q 203 630 182 665 q 260 572 225 594 q 354 519 294 549 l 460 469 q 617 366 565 419 q 668 221 668 313 q 632 98 668 151 q 533 15 596 44 q 393 -14 471 -14 m 240 -250 l 240 -212 q 326 -225 297 -225 q 408 -198 375 -225 q 442 -118 442 -171 q 423 -53 442 -79 q 371 0 404 -26 l 383 18 q 458 -37 429 -1 q 486 -121 486 -74 q 444 -222 486 -181 q 331 -264 401 -264 q 240 -250 289 -264 z "},"ş":{"ha":632,"x_min":72,"x_max":536,"o":"m 322 -14 q 178 26 240 -14 q 72 132 115 67 l 106 157 q 203 60 150 93 q 325 26 256 26 q 444 61 396 26 q 492 161 492 96 q 472 230 492 201 q 422 276 451 258 q 340 317 393 293 l 282 343 q 162 415 204 378 q 119 515 119 453 q 180 635 119 590 q 322 681 240 681 q 532 574 446 681 l 501 546 q 419 616 463 592 q 319 640 375 640 q 210 609 256 640 q 164 517 164 578 q 181 457 164 481 q 226 418 199 433 q 304 379 253 403 l 367 351 q 491 276 446 317 q 536 164 536 235 q 474 33 536 81 q 322 -14 411 -14 m 178 -250 l 178 -212 q 264 -225 235 -225 q 346 -198 313 -225 q 379 -118 379 -171 q 360 -53 379 -79 q 308 0 342 -26 l 321 18 q 395 -37 367 -1 q 424 -121 424 -74 q 381 -222 424 -181 q 268 -264 339 -264 q 178 -250 226 -264 z "},"Š":{"ha":771,"x_min":69,"x_max":668,"o":"m 393 -14 q 207 38 289 -14 q 69 179 125 89 l 103 204 q 228 76 154 124 q 394 29 301 29 q 557 81 493 29 q 621 221 621 132 q 602 309 621 274 q 545 371 583 344 q 439 431 507 397 l 333 481 q 231 536 269 511 q 163 605 192 561 q 135 714 135 649 q 209 873 135 815 q 393 931 283 931 q 547 894 479 931 q 658 792 614 857 l 625 765 q 396 888 536 888 q 246 846 310 888 q 182 717 182 804 q 203 630 182 665 q 260 572 225 594 q 354 519 294 549 l 460 469 q 617 366 565 419 q 668 221 668 313 q 632 98 668 151 q 533 15 596 44 q 393 -14 471 -14 m 606 1264 l 403 1006 l 382 1006 l 179 1264 l 217 1264 l 393 1061 l 568 1264 l 606 1264 z "},"š":{"ha":632,"x_min":72,"x_max":536,"o":"m 322 -14 q 178 26 240 -14 q 72 132 115 67 l 106 157 q 203 60 150 93 q 325 26 256 26 q 444 61 396 26 q 492 161 492 96 q 472 230 492 201 q 422 276 451 258 q 340 317 393 293 l 282 343 q 162 415 204 378 q 119 515 119 453 q 180 635 119 590 q 322 681 240 681 q 532 574 446 681 l 501 546 q 419 616 463 592 q 319 640 375 640 q 210 609 256 640 q 164 517 164 578 q 181 457 164 481 q 226 418 199 433 q 304 379 253 403 l 367 351 q 491 276 446 317 q 536 164 536 235 q 474 33 536 81 q 322 -14 411 -14 m 521 1083 l 332 781 l 311 781 l 122 1083 l 160 1083 l 322 844 l 483 1083 l 521 1083 z "},"Ţ":{"ha":811,"x_min":38,"x_max":774,"o":"m 383 876 l 38 876 l 38 917 l 774 917 l 774 876 l 428 876 l 428 0 l 383 0 l 383 876 m 253 -250 l 253 -212 q 339 -225 310 -225 q 421 -198 388 -225 q 454 -118 454 -171 q 435 -53 454 -79 q 383 0 417 -26 l 396 18 q 470 -37 442 -1 q 499 -121 499 -74 q 456 -222 499 -181 q 343 -264 414 -264 q 253 -250 301 -264 z "},"ţ":{"ha":486,"x_min":43,"x_max":449,"o":"m 353 25 q 401 28 378 25 q 449 38 425 32 l 449 0 q 350 -14 397 -14 q 215 31 267 -14 q 163 174 163 76 l 163 628 l 43 628 l 43 667 l 163 667 l 163 861 l 204 861 l 204 667 l 426 667 l 426 628 l 204 628 l 204 174 q 353 25 204 25 m 136 -250 l 136 -212 q 222 -225 193 -225 q 304 -198 271 -225 q 338 -118 338 -171 q 319 -53 338 -79 q 267 0 300 -26 l 279 18 q 353 -37 325 -1 q 382 -121 382 -74 q 340 -222 382 -181 q 226 -264 297 -264 q 136 -250 185 -264 z "},"Ť":{"ha":811,"x_min":38,"x_max":774,"o":"m 383 876 l 38 876 l 38 917 l 774 917 l 774 876 l 428 876 l 428 0 l 383 0 l 383 876 m 618 1264 l 415 1006 l 394 1006 l 192 1264 l 229 1264 l 406 1061 l 581 1264 l 618 1264 z "},"ť":{"ha":486,"x_min":43,"x_max":449,"o":"m 353 25 q 401 28 378 25 q 449 38 425 32 l 449 0 q 350 -14 397 -14 q 215 31 267 -14 q 163 174 163 76 l 163 628 l 43 628 l 43 667 l 163 667 l 163 861 l 204 861 l 204 667 l 426 667 l 426 628 l 204 628 l 204 174 q 353 25 204 25 m 360 1042 l 413 1042 l 368 750 l 332 750 l 360 1042 z "},"Ŧ":{"ha":811,"x_min":38,"x_max":774,"o":"m 383 397 l 92 397 l 92 436 l 383 436 l 383 876 l 38 876 l 38 917 l 774 917 l 774 876 l 428 876 l 428 436 l 719 436 l 719 397 l 428 397 l 428 0 l 383 0 l 383 397 z "},"ŧ":{"ha":506,"x_min":56,"x_max":461,"o":"m 365 25 q 414 28 390 25 q 461 38 438 32 l 461 0 q 363 -14 410 -14 q 227 31 279 -14 q 175 174 175 76 l 175 328 l 56 328 l 56 367 l 175 367 l 175 628 l 56 628 l 56 667 l 175 667 l 175 861 l 217 861 l 217 667 l 439 667 l 439 628 l 217 628 l 217 367 l 439 367 l 439 328 l 217 328 l 217 174 q 365 25 217 25 z "},"Ũ":{"ha":942,"x_min":128,"x_max":814,"o":"m 472 -14 q 220 84 313 -14 q 128 350 128 182 l 128 917 l 172 917 l 172 350 q 254 114 172 199 q 472 29 336 29 q 688 114 607 29 q 769 350 769 199 l 769 917 l 814 917 l 814 350 q 772 156 814 239 q 653 30 731 74 q 472 -14 576 -14 m 583 1047 q 538 1056 557 1047 q 486 1088 519 1065 l 432 1124 q 363 1153 388 1153 q 326 1136 339 1153 q 313 1090 313 1119 l 313 1061 l 272 1061 q 271 1088 271 1069 q 295 1163 271 1133 q 358 1192 319 1192 q 403 1183 385 1192 q 456 1151 422 1174 l 510 1115 q 579 1086 554 1086 q 616 1103 603 1086 q 629 1149 629 1119 l 629 1178 l 669 1178 q 671 1151 671 1169 q 647 1076 671 1106 q 583 1047 622 1047 z "},"ũ":{"ha":754,"x_min":126,"x_max":628,"o":"m 378 -14 q 343 -14 378 -14 q 251 17 308 -14 q 160 107 193 49 q 126 243 126 165 l 126 667 l 168 667 l 168 243 q 228 84 168 142 q 378 26 288 26 q 526 85 467 26 q 586 243 586 143 l 586 667 l 628 667 l 628 243 q 594 108 628 167 q 504 17 561 49 q 378 -14 447 -14 m 383 892 l 349 929 q 317 956 331 949 q 289 964 304 964 q 253 944 264 964 q 242 896 242 925 l 242 867 l 201 867 q 200 893 200 875 q 222 970 200 938 q 286 1003 243 1003 q 372 957 331 1003 l 407 919 q 438 892 425 900 q 467 885 451 885 q 503 904 492 885 q 514 953 514 924 l 514 982 l 554 982 q 556 956 556 974 q 535 878 556 911 q 471 846 514 846 q 383 892 425 846 z "},"Ū":{"ha":942,"x_min":128,"x_max":814,"o":"m 472 -14 q 220 84 313 -14 q 128 350 128 182 l 128 917 l 172 917 l 172 350 q 254 114 172 199 q 472 29 336 29 q 688 114 607 29 q 769 350 769 199 l 769 917 l 814 917 l 814 350 q 772 156 814 239 q 653 30 731 74 q 472 -14 576 -14 m 282 1125 l 660 1125 l 660 1086 l 282 1086 l 282 1125 z "},"ū":{"ha":754,"x_min":126,"x_max":628,"o":"m 378 -14 q 343 -14 378 -14 q 251 17 308 -14 q 160 107 193 49 q 126 243 126 165 l 126 667 l 168 667 l 168 243 q 228 84 168 142 q 378 26 288 26 q 526 85 467 26 q 586 243 586 143 l 586 667 l 628 667 l 628 243 q 594 108 628 167 q 504 17 561 49 q 378 -14 447 -14 m 203 946 l 553 946 l 553 907 l 203 907 l 203 946 z "},"Ŭ":{"ha":942,"x_min":128,"x_max":814,"o":"m 472 -14 q 220 84 313 -14 q 128 350 128 182 l 128 917 l 172 917 l 172 350 q 254 114 172 199 q 472 29 336 29 q 688 114 607 29 q 769 350 769 199 l 769 917 l 814 917 l 814 350 q 772 156 814 239 q 653 30 731 74 q 472 -14 576 -14 m 471 1017 q 428 1017 471 1017 q 334 1071 385 1017 q 283 1217 283 1125 l 283 1264 l 325 1264 l 325 1219 q 364 1099 325 1142 q 471 1056 403 1056 q 578 1099 539 1056 q 617 1219 617 1142 l 617 1264 l 658 1264 l 658 1217 q 608 1071 658 1125 q 471 1017 557 1017 z "},"ŭ":{"ha":754,"x_min":126,"x_max":628,"o":"m 378 -14 q 343 -14 378 -14 q 251 17 308 -14 q 160 107 193 49 q 126 243 126 165 l 126 667 l 168 667 l 168 243 q 228 84 168 142 q 378 26 288 26 q 526 85 467 26 q 586 243 586 143 l 586 667 l 628 667 l 628 243 q 594 108 628 167 q 504 17 561 49 q 378 -14 447 -14 m 378 799 q 335 799 378 799 q 241 853 292 799 q 190 999 190 907 l 190 1046 l 232 1046 l 232 1001 q 271 881 232 924 q 378 838 310 838 q 485 881 446 838 q 524 1001 524 924 l 524 1046 l 565 1046 l 565 999 q 515 853 565 907 q 378 799 464 799 z "},"Ů":{"ha":942,"x_min":128,"x_max":814,"o":"m 472 -14 q 220 84 313 -14 q 128 350 128 182 l 128 917 l 172 917 l 172 350 q 254 114 172 199 q 472 29 336 29 q 688 114 607 29 q 769 350 769 199 l 769 917 l 814 917 l 814 350 q 772 156 814 239 q 653 30 731 74 q 472 -14 576 -14 m 471 994 q 442 994 471 994 q 374 1034 414 994 q 335 1129 335 1074 q 374 1224 335 1185 q 471 1264 414 1264 q 567 1224 528 1264 q 607 1129 607 1185 q 567 1034 607 1074 q 471 994 528 994 m 471 1033 q 491 1033 471 1033 q 538 1061 511 1033 q 565 1129 565 1089 q 538 1197 565 1169 q 471 1225 511 1225 q 403 1197 431 1225 q 376 1129 376 1169 q 403 1061 376 1089 q 471 1033 431 1033 z "},"ů":{"ha":754,"x_min":126,"x_max":628,"o":"m 378 -14 q 343 -14 378 -14 q 251 17 308 -14 q 160 107 193 49 q 126 243 126 165 l 126 667 l 168 667 l 168 243 q 228 84 168 142 q 378 26 288 26 q 526 85 467 26 q 586 243 586 143 l 586 667 l 628 667 l 628 243 q 594 108 628 167 q 504 17 561 49 q 378 -14 447 -14 m 378 790 q 349 790 378 790 q 281 830 321 790 q 242 925 242 869 q 281 1020 242 981 q 378 1060 321 1060 q 474 1020 435 1060 q 514 925 514 981 q 474 830 514 869 q 378 790 435 790 m 378 829 q 398 829 378 829 q 445 857 418 829 q 472 925 472 885 q 445 993 472 965 q 378 1021 418 1021 q 310 993 338 1021 q 283 925 283 965 q 310 857 283 885 q 378 829 338 829 z "},"Ű":{"ha":942,"x_min":128,"x_max":814,"o":"m 472 -14 q 220 84 313 -14 q 128 350 128 182 l 128 917 l 172 917 l 172 350 q 254 114 172 199 q 472 29 336 29 q 688 114 607 29 q 769 350 769 199 l 769 917 l 814 917 l 814 350 q 772 156 814 239 q 653 30 731 74 q 472 -14 576 -14 m 428 1264 l 479 1264 l 479 1257 l 331 1006 l 294 1006 l 428 1264 m 711 1264 l 763 1264 l 763 1257 l 614 1006 l 578 1006 l 711 1264 z "},"ű":{"ha":754,"x_min":126,"x_max":665,"o":"m 378 -14 q 343 -14 378 -14 q 251 17 308 -14 q 160 107 193 49 q 126 243 126 165 l 126 667 l 168 667 l 168 243 q 228 84 168 142 q 378 26 288 26 q 526 85 467 26 q 586 243 586 143 l 586 667 l 628 667 l 628 243 q 594 108 628 167 q 504 17 561 49 q 378 -14 447 -14 m 358 1083 l 410 1083 l 410 1076 l 261 781 l 225 781 l 358 1083 m 614 1083 l 665 1083 l 665 1076 l 517 781 l 481 781 l 614 1083 z "},"Ų":{"ha":942,"x_min":128,"x_max":814,"o":"m 472 -14 q 220 84 313 -14 q 128 350 128 182 l 128 917 l 172 917 l 172 350 q 254 114 172 199 q 472 29 336 29 q 688 114 607 29 q 769 350 769 199 l 769 917 l 814 917 l 814 350 q 772 156 814 239 q 653 30 731 74 q 472 -14 576 -14 m 629 -264 q 534 -235 571 -264 q 497 -160 497 -206 q 510 -100 497 -126 q 562 -28 522 -74 q 699 118 601 18 l 749 118 l 614 -32 q 556 -103 572 -78 q 540 -156 540 -129 q 565 -206 540 -187 q 629 -225 589 -225 q 714 -212 668 -225 l 714 -250 q 629 -264 672 -264 z "},"ų":{"ha":754,"x_min":126,"x_max":628,"o":"m 458 -31 q 393 -98 413 -71 q 374 -157 374 -125 q 460 -225 374 -225 q 547 -212 497 -225 l 547 -250 q 460 -264 500 -264 q 367 -237 404 -264 q 331 -160 331 -211 q 356 -83 331 -119 q 435 -8 381 -47 q 378 -14 399 -14 q 251 17 308 -14 q 160 107 193 49 q 126 243 126 165 l 126 667 l 168 667 l 168 243 q 228 84 168 142 q 378 26 288 26 q 526 85 467 26 q 586 243 586 143 l 586 667 l 628 667 l 628 243 q 611 142 628 183 q 568 72 594 101 q 488 -6 542 42 l 458 -31 z "},"Ŵ":{"ha":1496,"x_min":76,"x_max":1419,"o":"m 1419 917 l 1086 -14 l 1065 -14 l 749 846 l 431 -14 l 410 -14 l 76 917 l 122 917 l 421 69 l 738 931 l 758 931 l 1075 69 l 1374 917 l 1419 917 m 924 1006 l 749 1208 l 572 1006 l 535 1006 l 738 1264 l 758 1264 l 961 1006 l 924 1006 z "},"ŵ":{"ha":1168,"x_min":50,"x_max":1118,"o":"m 1118 667 l 860 -14 l 839 -14 l 583 596 l 329 -14 l 308 -14 l 50 667 l 96 667 l 318 67 l 574 681 l 594 681 l 850 67 l 1072 667 l 1118 667 m 746 781 l 585 1019 l 422 781 l 385 781 l 574 1083 l 594 1083 l 783 781 l 746 781 z "},"Ŷ":{"ha":847,"x_min":82,"x_max":765,"o":"m 446 397 l 446 0 l 401 0 l 401 397 l 82 917 l 129 917 l 424 435 l 718 917 l 765 917 l 446 397 m 599 1006 l 424 1208 l 247 1006 l 210 1006 l 413 1264 l 433 1264 l 636 1006 l 599 1006 z "},"ŷ":{"ha":719,"x_min":50,"x_max":669,"o":"m 669 667 l 332 -122 q 252 -231 300 -197 q 139 -264 204 -264 q 50 -251 93 -264 l 50 -214 q 136 -225 101 -225 q 229 -197 190 -225 q 296 -104 268 -169 l 343 8 l 50 667 l 96 667 l 365 63 l 624 667 l 669 667 m 521 781 l 360 1019 l 197 781 l 160 781 l 349 1083 l 369 1083 l 558 781 l 521 781 z "},"Ÿ":{"ha":847,"x_min":82,"x_max":765,"o":"m 446 397 l 446 0 l 401 0 l 401 397 l 82 917 l 129 917 l 424 435 l 718 917 l 765 917 l 446 397 m 269 1072 q 260 1072 269 1072 q 236 1086 250 1072 q 222 1119 222 1100 q 236 1153 222 1139 q 269 1167 250 1167 q 303 1153 289 1167 q 317 1119 317 1139 q 303 1086 317 1100 q 269 1072 289 1072 m 576 1072 q 567 1072 576 1072 q 543 1086 557 1072 q 529 1119 529 1100 q 543 1153 529 1139 q 576 1167 557 1167 q 610 1153 596 1167 q 624 1119 624 1139 q 610 1086 624 1100 q 576 1072 596 1072 z "},"Ź":{"ha":819,"x_min":58,"x_max":764,"o":"m 764 40 l 764 0 l 58 0 l 58 17 l 694 876 l 119 876 l 119 917 l 763 917 l 763 900 l 126 40 l 764 40 m 528 1264 l 579 1264 l 579 1257 l 431 1006 l 394 1006 l 528 1264 z "},"ź":{"ha":621,"x_min":53,"x_max":569,"o":"m 569 39 l 569 0 l 53 0 l 53 17 l 500 628 l 85 628 l 85 667 l 563 667 l 563 650 l 115 39 l 569 39 m 440 1083 l 492 1083 l 492 1076 l 343 781 l 307 781 l 440 1083 z "},"Ż":{"ha":819,"x_min":58,"x_max":764,"o":"m 764 40 l 764 0 l 58 0 l 58 17 l 694 876 l 119 876 l 119 917 l 763 917 l 763 900 l 126 40 l 764 40 m 414 1072 q 404 1072 414 1072 q 381 1086 394 1072 q 367 1119 367 1100 q 381 1153 367 1139 q 414 1167 394 1167 q 447 1153 433 1167 q 461 1119 461 1139 q 447 1086 461 1100 q 414 1072 433 1072 z "},"ż":{"ha":621,"x_min":53,"x_max":569,"o":"m 569 39 l 569 0 l 53 0 l 53 17 l 500 628 l 85 628 l 85 667 l 563 667 l 563 650 l 115 39 l 569 39 m 325 878 q 315 878 325 878 q 292 892 306 878 q 278 925 278 906 q 292 958 278 944 q 325 972 306 972 q 358 958 344 972 q 372 925 372 944 q 358 892 372 906 q 325 878 344 878 z "},"Ž":{"ha":819,"x_min":58,"x_max":764,"o":"m 764 40 l 764 0 l 58 0 l 58 17 l 694 876 l 119 876 l 119 917 l 763 917 l 763 900 l 126 40 l 764 40 m 626 1264 l 424 1006 l 403 1006 l 200 1264 l 238 1264 l 414 1061 l 589 1264 l 626 1264 z "},"ž":{"ha":621,"x_min":53,"x_max":569,"o":"m 569 39 l 569 0 l 53 0 l 53 17 l 500 628 l 85 628 l 85 667 l 563 667 l 563 650 l 115 39 l 569 39 m 524 1083 l 335 781 l 314 781 l 125 1083 l 163 1083 l 325 844 l 486 1083 l 524 1083 z "},"Ə":{"ha":1014,"x_min":79,"x_max":935,"o":"m 500 931 q 722 867 622 931 q 878 697 821 804 q 935 461 935 590 q 876 222 935 331 q 717 49 818 113 q 496 -14 617 -14 q 290 34 385 -14 q 137 174 194 82 q 79 392 79 267 q 83 461 79 415 l 888 461 l 888 464 q 836 679 888 582 q 696 832 785 776 q 499 888 607 888 q 302 844 393 888 q 154 725 211 801 l 121 751 q 285 883 183 835 q 500 931 386 931 m 499 29 q 549 29 499 29 q 685 81 600 29 q 824 222 771 132 q 886 421 876 311 l 126 421 q 125 388 125 410 q 176 198 125 279 q 312 73 226 117 q 499 29 397 29 z "},"ƒ":{"ha":606,"x_min":17,"x_max":589,"o":"m 589 924 l 589 888 q 529 892 551 892 q 419 859 458 892 q 369 743 379 826 l 344 542 l 506 542 l 506 503 l 340 503 l 278 3 q 81 -185 256 -185 q 17 -178 51 -185 l 17 -142 q 76 -146 54 -146 q 190 -110 154 -146 q 236 3 226 -75 l 299 503 l 157 503 l 157 542 l 303 542 l 328 743 q 525 931 350 931 q 589 924 554 931 z "},"ǔ":{"ha":754,"x_min":126,"x_max":628,"o":"m 378 -14 q 343 -14 378 -14 q 251 17 308 -14 q 160 107 193 49 q 126 243 126 165 l 126 667 l 168 667 l 168 243 q 228 84 168 142 q 378 26 288 26 q 526 85 467 26 q 586 243 586 143 l 586 667 l 628 667 l 628 243 q 594 108 628 167 q 504 17 561 49 q 378 -14 447 -14 m 576 1083 l 388 781 l 367 781 l 178 1083 l 215 1083 l 378 844 l 539 1083 l 576 1083 z "},"Ǽ":{"ha":1106,"x_min":28,"x_max":1050,"o":"m 1050 40 l 1050 0 l 667 0 l 624 244 l 201 244 l 75 0 l 28 0 l 506 917 l 1033 917 l 1033 876 l 557 876 l 621 519 l 922 519 l 922 479 l 628 479 l 707 40 l 1050 40 m 222 285 l 617 285 l 515 854 l 222 285 m 660 1264 l 711 1264 l 711 1257 l 563 1006 l 526 1006 l 660 1264 z "},"ǽ":{"ha":1261,"x_min":72,"x_max":1178,"o":"m 1174 318 l 593 318 q 636 169 596 236 q 742 65 676 103 q 889 26 808 26 q 1022 57 961 26 q 1126 143 1083 88 l 1157 118 q 1040 22 1110 57 q 889 -14 969 -14 q 705 40 788 -14 q 581 185 622 94 q 479 40 557 94 q 301 -14 401 -14 q 139 35 206 -14 q 72 175 72 85 q 134 308 72 260 q 300 357 196 357 l 549 357 l 549 425 q 494 585 549 531 q 347 640 439 640 q 229 610 279 640 q 138 524 179 579 l 107 549 q 215 647 156 614 q 350 681 274 681 q 505 632 442 681 q 585 492 568 583 q 706 629 626 578 q 882 681 785 681 q 1029 645 961 681 q 1138 542 1097 610 q 1178 385 1178 475 q 1174 318 1178 364 m 876 640 q 739 603 801 640 q 638 501 676 565 q 594 357 599 436 l 1133 357 q 1105 503 1139 439 q 1010 604 1071 568 q 876 640 950 640 m 304 26 q 424 55 368 26 q 515 133 481 83 q 549 243 549 182 l 549 318 l 301 318 q 164 282 211 318 q 117 179 117 246 q 172 65 117 104 q 304 26 228 26 m 714 1083 l 765 1083 l 765 1076 l 617 781 l 581 781 l 714 1083 z "},"Ǿ":{"ha":1089,"x_min":72,"x_max":1017,"o":"m 892 776 q 978 631 947 713 q 1010 458 1010 550 q 947 219 1010 328 q 778 49 885 111 q 543 -14 671 -14 q 370 19 451 -14 q 226 111 289 51 l 101 -14 l 72 15 l 197 140 q 110 285 142 204 q 79 458 79 367 q 141 699 79 590 q 309 869 203 807 q 543 931 415 931 q 717 898 635 931 q 863 806 799 865 l 988 931 l 1017 901 l 892 776 m 544 888 q 331 831 426 888 q 181 677 236 775 q 126 460 126 579 q 153 303 126 376 q 229 172 179 229 l 832 775 q 701 858 775 828 q 544 888 628 888 m 544 29 q 758 86 663 29 q 908 242 853 143 q 963 460 963 340 q 936 615 963 542 q 860 744 910 688 l 257 142 q 388 59 314 89 q 544 29 461 29 m 658 1264 l 710 1264 l 710 1257 l 561 1006 l 525 1006 l 658 1264 z "},"ǿ":{"ha":871,"x_min":89,"x_max":782,"o":"m 693 561 q 756 457 733 515 q 778 333 778 399 q 731 159 778 239 q 606 33 685 79 q 433 -14 526 -14 q 311 9 369 -14 q 207 75 253 32 l 118 -14 l 89 15 l 178 104 q 115 210 138 151 q 93 333 93 269 q 139 508 93 428 q 263 634 185 588 q 435 681 342 681 q 559 658 500 681 q 665 592 618 635 l 753 681 l 782 651 l 693 561 m 435 640 q 283 599 351 640 q 176 488 215 558 q 138 333 138 418 q 207 133 138 221 l 636 563 q 435 640 551 640 m 433 26 q 585 67 517 26 q 694 178 654 108 q 733 333 733 249 q 715 441 733 390 q 664 532 697 492 l 235 103 q 433 26 319 26 m 551 1083 l 603 1083 l 603 1076 l 454 781 l 418 781 l 551 1083 z "},"Ș":{"ha":771,"x_min":69,"x_max":668,"o":"m 393 -14 q 207 38 289 -14 q 69 179 125 89 l 103 204 q 228 76 154 124 q 394 29 301 29 q 557 81 493 29 q 621 221 621 132 q 602 309 621 274 q 545 371 583 344 q 439 431 507 397 l 333 481 q 231 536 269 511 q 163 605 192 561 q 135 714 135 649 q 209 873 135 815 q 393 931 283 931 q 547 894 479 931 q 658 792 614 857 l 625 765 q 396 888 536 888 q 246 846 310 888 q 182 717 182 804 q 203 630 182 665 q 260 572 225 594 q 354 519 294 549 l 460 469 q 617 366 565 419 q 668 221 668 313 q 632 98 668 151 q 533 15 596 44 q 393 -14 471 -14 m 368 -72 l 418 -72 l 385 -306 l 349 -306 l 368 -72 z "},"ș":{"ha":632,"x_min":72,"x_max":536,"o":"m 322 -14 q 178 26 240 -14 q 72 132 115 67 l 106 157 q 203 60 150 93 q 325 26 256 26 q 444 61 396 26 q 492 161 492 96 q 472 230 492 201 q 422 276 451 258 q 340 317 393 293 l 282 343 q 162 415 204 378 q 119 515 119 453 q 180 635 119 590 q 322 681 240 681 q 532 574 446 681 l 501 546 q 419 616 463 592 q 319 640 375 640 q 210 609 256 640 q 164 517 164 578 q 181 457 164 481 q 226 418 199 433 q 304 379 253 403 l 367 351 q 491 276 446 317 q 536 164 536 235 q 474 33 536 81 q 322 -14 411 -14 m 306 -72 l 356 -72 l 322 -306 l 286 -306 l 306 -72 z "},"Ț":{"ha":811,"x_min":38,"x_max":774,"o":"m 383 876 l 38 876 l 38 917 l 774 917 l 774 876 l 428 876 l 428 0 l 383 0 l 383 876 m 381 -72 l 431 -72 l 397 -306 l 361 -306 l 381 -72 z "},"ț":{"ha":486,"x_min":43,"x_max":449,"o":"m 353 25 q 401 28 378 25 q 449 38 425 32 l 449 0 q 350 -14 397 -14 q 215 31 267 -14 q 163 174 163 76 l 163 628 l 43 628 l 43 667 l 163 667 l 163 861 l 204 861 l 204 667 l 426 667 l 426 628 l 204 628 l 204 174 q 353 25 204 25 m 264 -72 l 314 -72 l 281 -306 l 244 -306 l 264 -72 z "},"ȷ":{"ha":317,"x_min":-79,"x_max":179,"o":"m -79 -256 l -79 -218 q -12 -225 -40 -225 q 138 -76 138 -225 l 138 667 l 179 667 l 179 -76 q 128 -219 179 -174 q -10 -264 76 -264 q -79 -256 -46 -264 z "},"ə":{"ha":796,"x_min":83,"x_max":713,"o":"m 379 681 q 550 635 474 681 q 669 509 626 589 q 713 333 713 429 q 670 158 713 238 q 553 33 628 79 q 386 -14 479 -14 q 235 22 304 -14 q 125 124 167 57 q 83 281 83 192 q 88 338 83 304 l 668 338 q 631 492 668 424 q 528 601 593 561 q 379 640 463 640 q 240 610 304 640 q 135 524 176 579 l 104 549 q 224 646 151 611 q 379 681 296 681 m 389 26 q 525 62 464 26 q 623 160 586 97 q 667 299 660 222 l 128 299 q 157 155 122 217 q 253 60 192 93 q 389 26 315 26 z "},"ˆ":{"ha":833,"x_min":217,"x_max":615,"o":"m 578 781 l 417 1019 l 254 781 l 217 781 l 406 1083 l 426 1083 l 615 781 l 578 781 z "},"ˇ":{"ha":833,"x_min":217,"x_max":615,"o":"m 615 1083 l 426 781 l 406 781 l 217 1083 l 254 1083 l 417 844 l 578 1083 l 615 1083 z "},"˘":{"ha":833,"x_min":229,"x_max":604,"o":"m 417 799 q 374 799 417 799 q 280 853 331 799 q 229 999 229 907 l 229 1046 l 271 1046 l 271 1001 q 310 881 271 924 q 417 838 349 838 q 524 881 485 838 q 563 1001 563 924 l 563 1046 l 604 1046 l 604 999 q 553 853 604 907 q 417 799 503 799 z "},"˙":{"ha":833,"x_min":369,"x_max":464,"o":"m 417 878 q 407 878 417 878 q 383 892 397 878 q 369 925 369 906 q 383 958 369 944 q 417 972 397 972 q 450 958 436 972 q 464 925 464 944 q 450 892 464 906 q 417 878 436 878 z "},"˚":{"ha":833,"x_min":281,"x_max":553,"o":"m 417 790 q 388 790 417 790 q 320 830 360 790 q 281 925 281 869 q 320 1020 281 981 q 417 1060 360 1060 q 513 1020 474 1060 q 553 925 553 981 q 513 830 553 869 q 417 790 474 790 m 417 829 q 437 829 417 829 q 484 857 457 829 q 511 925 511 885 q 484 993 511 965 q 417 1021 457 1021 q 349 993 376 1021 q 322 925 322 965 q 349 857 322 885 q 417 829 376 829 z "},"˛":{"ha":833,"x_min":308,"x_max":525,"o":"m 440 -264 q 347 -236 385 -264 q 308 -160 308 -208 q 353 -74 308 -112 q 511 28 397 -35 l 525 0 l 444 -51 q 373 -105 394 -83 q 351 -156 351 -126 q 376 -206 351 -187 q 440 -225 400 -225 q 525 -212 475 -225 l 525 -250 q 440 -264 478 -264 z "},"˜":{"ha":833,"x_min":239,"x_max":594,"o":"m 422 892 l 388 929 q 356 956 369 949 q 328 964 343 964 q 292 944 303 964 q 281 896 281 925 l 281 867 l 240 867 q 239 893 239 875 q 260 970 239 938 q 325 1003 282 1003 q 411 957 369 1003 l 446 919 q 477 892 464 900 q 506 885 490 885 q 542 904 531 885 q 553 953 553 924 l 553 982 l 593 982 q 594 956 594 974 q 574 878 594 911 q 510 846 553 846 q 422 892 464 846 z "},"˝":{"ha":833,"x_min":196,"x_max":636,"o":"m 329 1083 l 381 1083 l 381 1076 l 232 781 l 196 781 l 329 1083 m 585 1083 l 636 1083 l 636 1076 l 488 781 l 451 781 l 585 1083 z "},"̀":{"ha":0,"x_min":-440,"x_max":-256,"o":"m -440 1076 l -440 1083 l -389 1083 l -256 781 l -292 781 l -440 1076 z "},"́":{"ha":0,"x_min":-440,"x_max":-256,"o":"m -307 1083 l -256 1083 l -256 1076 l -404 781 l -440 781 l -307 1083 z "},"̂":{"ha":0,"x_min":-547,"x_max":-149,"o":"m -186 781 l -347 1019 l -510 781 l -547 781 l -358 1083 l -337 1083 l -149 781 l -186 781 z "},"̃":{"ha":0,"x_min":-525,"x_max":-169,"o":"m -342 892 l -376 929 q -408 956 -394 949 q -436 964 -421 964 q -472 944 -461 964 q -483 896 -483 925 l -483 867 l -524 867 q -525 893 -525 875 q -503 970 -525 938 q -439 1003 -482 1003 q -353 957 -394 1003 l -318 919 q -287 892 -300 900 q -258 885 -274 885 q -222 904 -233 885 q -211 953 -211 924 l -211 982 l -171 982 q -169 956 -169 974 q -190 878 -169 911 q -254 846 -211 846 q -342 892 -300 846 z "},"̄":{"ha":0,"x_min":-522,"x_max":-172,"o":"m -522 946 l -172 946 l -172 907 l -522 907 l -522 946 z "},"̆":{"ha":0,"x_min":-535,"x_max":-160,"o":"m -347 799 q -390 799 -347 799 q -484 853 -433 799 q -535 999 -535 907 l -535 1046 l -493 1046 l -493 1001 q -454 881 -493 924 q -347 838 -415 838 q -240 881 -279 838 q -201 1001 -201 924 l -201 1046 l -160 1046 l -160 999 q -210 853 -160 907 q -347 799 -261 799 z "},"̇":{"ha":0,"x_min":-394,"x_max":-300,"o":"m -347 878 q -357 878 -347 878 q -381 892 -367 878 q -394 925 -394 906 q -381 958 -394 944 q -347 972 -367 972 q -314 958 -328 972 q -300 925 -300 944 q -314 892 -300 906 q -347 878 -328 878 z "},"̈":{"ha":0,"x_min":-528,"x_max":-168,"o":"m -481 878 q -490 878 -481 878 q -514 892 -500 878 q -528 925 -528 906 q -514 958 -528 944 q -481 972 -500 972 q -447 958 -461 972 q -433 925 -433 944 q -447 892 -433 906 q -481 878 -461 878 m -215 878 q -225 878 -215 878 q -249 892 -235 878 q -262 925 -262 906 q -249 958 -262 944 q -215 972 -235 972 q -182 958 -196 972 q -168 925 -168 944 q -182 892 -168 906 q -215 878 -196 878 z "},"̊":{"ha":0,"x_min":-483,"x_max":-211,"o":"m -347 790 q -376 790 -347 790 q -444 830 -404 790 q -483 925 -483 869 q -444 1020 -483 981 q -347 1060 -404 1060 q -251 1020 -290 1060 q -211 925 -211 981 q -251 830 -211 869 q -347 790 -290 790 m -347 829 q -327 829 -347 829 q -280 857 -307 829 q -253 925 -253 885 q -280 993 -253 965 q -347 1021 -307 1021 q -415 993 -387 1021 q -442 925 -442 965 q -415 857 -442 885 q -347 829 -387 829 z "},"̋":{"ha":0,"x_min":-568,"x_max":-128,"o":"m -435 1083 l -383 1083 l -383 1076 l -532 781 l -568 781 l -435 1083 m -179 1083 l -128 1083 l -128 1076 l -276 781 l -312 781 l -179 1083 z "},"̌":{"ha":0,"x_min":-547,"x_max":-149,"o":"m -149 1083 l -337 781 l -358 781 l -547 1083 l -510 1083 l -347 844 l -186 1083 l -149 1083 z "},"̦":{"ha":0,"x_min":-382,"x_max":-312,"o":"m -362 -72 l -312 -72 l -346 -306 l -382 -306 l -362 -72 z "},"̧":{"ha":0,"x_min":-471,"x_max":-225,"o":"m -471 -250 l -471 -212 q -385 -225 -414 -225 q -303 -198 -336 -225 q -269 -118 -269 -171 q -288 -53 -269 -79 q -340 0 -307 -26 l -328 18 q -253 -37 -282 -1 q -225 -121 -225 -74 q -267 -222 -225 -181 q -381 -264 -310 -264 q -471 -250 -422 -264 z "},"̨":{"ha":0,"x_min":-456,"x_max":-239,"o":"m -324 -264 q -417 -236 -379 -264 q -456 -160 -456 -208 q -411 -74 -456 -112 q -253 28 -367 -35 l -239 0 l -319 -51 q -391 -105 -369 -83 q -412 -156 -412 -126 q -388 -206 -412 -187 q -324 -225 -364 -225 q -239 -212 -289 -225 l -239 -250 q -324 -264 -286 -264 z "},"΄":{"ha":694,"x_min":293,"x_max":400,"o":"m 347 1083 l 400 1083 l 400 1076 l 331 781 l 293 781 l 347 1083 z "},"΅":{"ha":694,"x_min":132,"x_max":561,"o":"m 346 1083 l 399 1083 l 399 1076 l 356 781 l 318 781 l 346 1083 m 179 878 q 169 878 179 878 q 146 892 160 878 q 132 925 132 906 q 146 958 132 944 q 179 972 160 972 q 213 958 199 972 q 226 925 226 944 q 213 892 226 906 q 179 878 199 878 m 514 878 q 504 878 514 878 q 481 892 494 878 q 467 925 467 906 q 481 958 467 944 q 514 972 494 972 q 547 958 533 972 q 561 925 561 944 q 547 892 561 906 q 514 878 533 878 z "},"Ά":{"ha":924,"x_min":63,"x_max":861,"o":"m 714 243 l 208 243 l 108 0 l 63 0 l 451 931 l 472 931 l 861 0 l 815 0 l 714 243 m 225 283 l 697 283 l 461 853 l 225 283 m 139 917 l 192 917 l 147 625 l 111 625 l 139 917 z "},"·":{"ha":389,"x_min":140,"x_max":249,"o":"m 193 375 q 156 390 172 375 q 140 428 140 404 q 156 468 140 453 q 193 483 172 483 q 232 469 215 483 q 249 428 249 454 q 232 390 249 404 q 193 375 215 375 z "},"Έ":{"ha":779,"x_min":-81,"x_max":724,"o":"m 143 917 l 707 917 l 707 876 l 188 876 l 188 519 l 596 519 l 596 479 l 188 479 l 188 40 l 724 40 l 724 0 l 143 0 l 143 917 m -53 917 l 0 917 l -44 625 l -81 625 l -53 917 z "},"Ή":{"ha":978,"x_min":-81,"x_max":835,"o":"m 143 917 l 188 917 l 188 519 l 790 519 l 790 917 l 835 917 l 835 0 l 790 0 l 790 479 l 188 479 l 188 0 l 143 0 l 143 917 m -53 917 l 0 917 l -44 625 l -81 625 l -53 917 z "},"Ί":{"ha":331,"x_min":-81,"x_max":188,"o":"m 143 917 l 188 917 l 188 0 l 143 0 l 143 917 m -53 917 l 0 917 l -44 625 l -81 625 l -53 917 z "},"Ό":{"ha":1089,"x_min":-40,"x_max":1010,"o":"m 543 -14 q 479 -14 543 -14 q 309 49 415 -14 q 141 219 203 111 q 79 458 79 328 q 141 699 79 590 q 309 869 203 807 q 543 931 415 931 q 778 868 671 931 q 947 698 885 806 q 1010 458 1010 590 q 947 219 1010 328 q 778 49 885 111 q 543 -14 671 -14 m 544 29 q 757 86 661 29 q 908 242 853 143 q 963 460 963 340 q 908 676 963 578 q 757 831 853 774 q 544 888 661 888 q 332 831 428 888 q 181 677 236 775 q 126 460 126 579 q 181 242 126 340 q 331 86 236 143 q 544 29 426 29 m -12 917 l 40 917 l -4 625 l -40 625 l -12 917 z "},"Ύ":{"ha":847,"x_min":-110,"x_max":765,"o":"m 446 397 l 446 0 l 401 0 l 401 397 l 82 917 l 129 917 l 424 435 l 718 917 l 765 917 l 446 397 m -82 917 l -29 917 l -74 625 l -110 625 l -82 917 z "},"Ώ":{"ha":1103,"x_min":-40,"x_max":1017,"o":"m 1017 472 q 948 234 1017 340 q 739 40 879 128 l 1003 40 l 1003 0 l 649 0 l 649 39 q 969 472 969 192 q 915 685 969 590 q 766 833 861 779 q 551 888 671 888 q 337 834 432 888 q 188 686 242 781 q 133 474 133 592 q 454 39 133 192 l 454 0 l 100 0 l 100 40 l 363 40 q 86 472 86 207 q 147 706 86 601 q 313 871 207 811 q 550 931 419 931 q 788 871 681 931 q 956 706 894 811 q 1017 472 1017 601 m -12 917 l 40 917 l -4 625 l -40 625 l -12 917 z "},"ΐ":{"ha":397,"x_min":-61,"x_max":390,"o":"m 292 -14 q 173 35 214 -14 q 132 174 132 83 l 132 667 l 174 667 l 174 174 q 294 25 174 25 q 343 28 319 25 q 390 38 367 32 l 390 0 q 292 -14 339 -14 m 153 1083 l 206 1083 l 206 1076 l 163 781 l 125 781 l 153 1083 m -14 878 q -24 878 -14 878 q -47 892 -33 878 q -61 925 -61 906 q -47 958 -61 944 q -14 972 -33 972 q 19 958 6 972 q 33 925 33 944 q 19 892 33 906 q -14 878 6 878 m 321 878 q 311 878 321 878 q 288 892 301 878 q 274 925 274 906 q 288 958 274 944 q 321 972 301 972 q 354 958 340 972 q 368 925 368 944 q 354 892 368 906 q 321 878 340 878 z "},"Α":{"ha":924,"x_min":63,"x_max":861,"o":"m 714 243 l 208 243 l 108 0 l 63 0 l 451 931 l 472 931 l 861 0 l 815 0 l 714 243 m 225 283 l 697 283 l 461 853 l 225 283 z "},"Β":{"ha":847,"x_min":143,"x_max":778,"o":"m 564 508 q 722 424 667 492 q 778 260 778 357 q 703 73 778 146 q 496 0 629 0 l 143 0 l 143 917 l 451 917 q 626 856 564 917 q 688 700 688 796 q 656 585 688 635 q 564 508 624 535 m 188 876 l 188 519 l 447 519 q 592 569 543 519 q 642 699 642 619 q 594 828 642 776 q 447 878 546 879 l 188 876 m 493 40 q 669 102 607 40 q 732 258 732 164 q 669 417 732 354 q 493 479 607 479 l 188 479 l 188 40 l 493 40 z "},"Γ":{"ha":685,"x_min":143,"x_max":651,"o":"m 143 917 l 651 917 l 651 876 l 188 876 l 188 0 l 143 0 l 143 917 z "},"Δ":{"ha":924,"x_min":69,"x_max":854,"o":"m 854 17 l 854 0 l 69 0 l 69 17 l 451 931 l 472 931 l 854 17 m 124 40 l 800 40 l 461 853 l 124 40 z "},"Ε":{"ha":779,"x_min":143,"x_max":724,"o":"m 143 917 l 707 917 l 707 876 l 188 876 l 188 519 l 596 519 l 596 479 l 188 479 l 188 40 l 724 40 l 724 0 l 143 0 l 143 917 z "},"Ζ":{"ha":819,"x_min":58,"x_max":764,"o":"m 764 40 l 764 0 l 58 0 l 58 17 l 694 876 l 119 876 l 119 917 l 763 917 l 763 900 l 126 40 l 764 40 z "},"Η":{"ha":978,"x_min":143,"x_max":835,"o":"m 143 917 l 188 917 l 188 519 l 790 519 l 790 917 l 835 917 l 835 0 l 790 0 l 790 479 l 188 479 l 188 0 l 143 0 l 143 917 z "},"Θ":{"ha":1089,"x_min":79,"x_max":1010,"o":"m 543 -14 q 479 -14 543 -14 q 309 49 415 -14 q 141 219 203 111 q 79 458 79 328 q 141 699 79 590 q 309 869 203 807 q 543 931 415 931 q 778 868 671 931 q 947 698 885 806 q 1010 458 1010 590 q 947 219 1010 328 q 778 49 885 111 q 543 -14 671 -14 m 544 29 q 603 29 544 29 q 758 86 663 29 q 908 242 853 143 q 963 460 963 340 q 908 676 963 578 q 758 831 853 774 q 544 888 663 888 q 331 831 426 888 q 181 677 236 775 q 126 460 126 579 q 181 242 126 340 q 331 86 235 143 q 544 29 426 29 m 265 472 l 810 472 l 810 432 l 265 432 l 265 472 z "},"Ι":{"ha":331,"x_min":143,"x_max":188,"o":"m 143 917 l 188 917 l 188 0 l 143 0 l 143 917 z "},"Κ":{"ha":831,"x_min":143,"x_max":775,"o":"m 143 917 l 188 917 l 188 0 l 143 0 l 143 917 m 775 0 l 715 0 l 214 499 l 682 917 l 744 917 l 275 499 l 775 0 z "},"Λ":{"ha":924,"x_min":63,"x_max":861,"o":"m 815 0 l 461 853 l 108 0 l 63 0 l 451 931 l 472 931 l 861 0 l 815 0 z "},"Μ":{"ha":1086,"x_min":143,"x_max":943,"o":"m 943 931 l 943 0 l 899 0 l 899 813 l 554 307 l 533 307 l 188 813 l 188 0 l 143 0 l 143 931 l 164 931 l 543 372 l 922 931 l 943 931 z "},"Ν":{"ha":978,"x_min":143,"x_max":835,"o":"m 835 917 l 835 -14 l 814 -14 l 188 821 l 188 0 l 143 0 l 143 931 l 164 931 l 790 89 l 790 917 l 835 917 z "},"Ξ":{"ha":833,"x_min":56,"x_max":778,"o":"m 56 917 l 778 917 l 778 876 l 56 876 l 56 917 m 168 485 l 665 485 l 665 444 l 168 444 l 168 485 m 56 40 l 778 40 l 778 0 l 56 0 l 56 40 z "},"Ο":{"ha":1089,"x_min":79,"x_max":1010,"o":"m 543 -14 q 479 -14 543 -14 q 309 49 415 -14 q 141 219 203 111 q 79 458 79 328 q 141 699 79 590 q 309 869 203 807 q 543 931 415 931 q 778 868 671 931 q 947 698 885 806 q 1010 458 1010 590 q 947 219 1010 328 q 778 49 885 111 q 543 -14 671 -14 m 544 29 q 757 86 661 29 q 908 242 853 143 q 963 460 963 340 q 908 676 963 578 q 757 831 853 774 q 544 888 661 888 q 332 831 428 888 q 181 677 236 775 q 126 460 126 579 q 181 242 126 340 q 331 86 236 143 q 544 29 426 29 z "},"Π":{"ha":936,"x_min":143,"x_max":793,"o":"m 143 917 l 793 917 l 793 0 l 749 0 l 749 876 l 188 876 l 188 0 l 143 0 l 143 917 z "},"Ρ":{"ha":774,"x_min":143,"x_max":711,"o":"m 143 917 l 447 917 q 641 849 571 917 q 711 675 711 781 q 641 500 711 568 q 447 432 571 432 l 188 432 l 188 0 l 143 0 l 143 917 m 444 472 q 608 528 551 472 q 665 674 665 585 q 608 819 665 763 q 444 876 551 876 l 188 876 l 188 472 l 444 472 z "},"Σ":{"ha":754,"x_min":76,"x_max":699,"o":"m 699 40 l 699 0 l 76 0 l 76 17 l 433 469 l 76 900 l 76 917 l 682 917 l 682 876 l 147 876 l 478 479 l 478 463 l 144 40 l 699 40 z "},"Τ":{"ha":811,"x_min":38,"x_max":774,"o":"m 383 876 l 38 876 l 38 917 l 774 917 l 774 876 l 428 876 l 428 0 l 383 0 l 383 876 z "},"Υ":{"ha":847,"x_min":82,"x_max":765,"o":"m 446 397 l 446 0 l 401 0 l 401 397 l 82 917 l 129 917 l 424 435 l 718 917 l 765 917 l 446 397 z "},"Φ":{"ha":1111,"x_min":79,"x_max":1032,"o":"m 578 874 q 818 820 715 874 q 976 672 921 767 q 1032 451 1032 576 q 976 239 1032 332 q 817 94 919 146 q 578 42 714 42 l 578 -53 l 533 -53 l 533 42 q 294 94 397 42 q 135 239 192 146 q 79 451 79 332 q 135 672 79 576 q 293 820 190 767 q 533 874 396 874 l 533 968 l 578 968 l 578 874 m 126 451 q 176 260 126 343 q 317 131 225 176 q 533 85 408 85 l 533 831 q 315 784 407 831 q 175 651 224 738 q 126 451 126 565 m 578 85 q 794 131 703 85 q 935 260 886 176 q 985 451 985 343 q 936 651 985 565 q 796 784 888 738 q 578 831 704 831 l 578 85 z "},"Χ":{"ha":804,"x_min":56,"x_max":749,"o":"m 697 0 l 403 435 l 107 0 l 56 0 l 378 472 l 79 917 l 131 917 l 404 507 l 674 917 l 725 917 l 429 471 l 749 0 l 697 0 z "},"Ψ":{"ha":989,"x_min":83,"x_max":906,"o":"m 472 218 q 190 315 297 218 q 83 596 83 411 l 83 917 l 128 917 l 128 596 q 222 344 128 429 q 472 260 317 260 l 472 917 l 517 917 l 517 260 q 767 344 672 260 q 861 596 861 429 l 861 917 l 906 917 l 906 596 q 799 315 906 411 q 517 218 692 218 l 517 0 l 472 0 l 472 218 z "},"Ω":{"ha":1103,"x_min":86,"x_max":1017,"o":"m 1017 472 q 948 234 1017 340 q 739 40 879 128 l 1003 40 l 1003 0 l 649 0 l 649 39 q 969 472 969 192 q 915 685 969 590 q 766 833 861 779 q 551 888 671 888 q 337 834 432 888 q 188 686 242 781 q 133 474 133 592 q 454 39 133 192 l 454 0 l 100 0 l 100 40 l 363 40 q 86 472 86 207 q 147 706 86 601 q 313 871 207 811 q 550 931 419 931 q 788 871 681 931 q 956 706 894 811 q 1017 472 1017 601 z "},"Ϊ":{"ha":331,"x_min":-36,"x_max":365,"o":"m 143 917 l 188 917 l 188 0 l 143 0 l 143 917 m 11 1072 q 1 1072 11 1072 q -22 1086 -8 1072 q -36 1119 -36 1100 q -22 1153 -36 1139 q 11 1167 -8 1167 q 44 1153 31 1167 q 58 1119 58 1139 q 44 1086 58 1100 q 11 1072 31 1072 m 318 1072 q 308 1072 318 1072 q 285 1086 299 1072 q 271 1119 271 1100 q 285 1153 271 1139 q 318 1167 299 1167 q 351 1153 338 1167 q 365 1119 365 1139 q 351 1086 365 1100 q 318 1072 338 1072 z "},"Ϋ":{"ha":847,"x_min":82,"x_max":765,"o":"m 446 397 l 446 0 l 401 0 l 401 397 l 82 917 l 129 917 l 424 435 l 718 917 l 765 917 l 446 397 m 269 1072 q 260 1072 269 1072 q 236 1086 250 1072 q 222 1119 222 1100 q 236 1153 222 1139 q 269 1167 250 1167 q 303 1153 289 1167 q 317 1119 317 1139 q 303 1086 317 1100 q 269 1072 289 1072 m 576 1072 q 567 1072 576 1072 q 543 1086 557 1072 q 529 1119 529 1100 q 543 1153 529 1139 q 576 1167 557 1167 q 610 1153 596 1167 q 624 1119 624 1139 q 610 1086 624 1100 q 576 1072 596 1072 z "},"ά":{"ha":897,"x_min":83,"x_max":861,"o":"m 861 38 l 861 0 q 813 -6 835 -6 q 725 28 758 -6 q 692 140 692 63 l 692 157 q 581 33 658 79 q 411 -14 504 -14 q 244 33 319 -14 q 126 159 169 79 q 83 335 83 239 q 126 508 83 429 q 243 634 168 588 q 411 681 318 681 q 588 630 508 681 q 697 496 667 579 q 706 667 699 560 l 747 667 l 742 558 q 733 343 733 408 l 733 140 q 818 33 733 33 q 861 38 835 33 m 413 26 q 550 61 486 26 q 653 165 614 96 q 692 333 692 235 q 653 501 692 432 q 551 606 614 571 q 413 640 488 640 q 265 599 329 640 q 164 489 200 558 q 128 335 128 419 q 164 178 128 249 q 265 67 200 108 q 413 26 331 26 m 447 1083 l 500 1083 l 500 1076 l 431 781 l 393 781 l 447 1083 z "},"έ":{"ha":690,"x_min":82,"x_max":614,"o":"m 614 119 q 506 19 569 51 q 349 -14 442 -14 q 152 36 222 -14 q 82 176 82 86 q 119 283 82 239 q 222 340 156 326 q 137 395 167 356 q 107 492 107 435 q 176 628 107 576 q 358 681 244 681 q 500 652 438 681 q 596 572 563 624 l 565 547 q 483 616 536 592 q 358 640 429 640 q 207 599 264 640 q 150 489 150 558 q 199 394 150 429 q 332 360 247 360 l 481 360 l 481 321 l 342 321 q 126 176 126 321 q 184 65 126 104 q 347 26 242 26 q 487 53 432 26 q 582 142 542 81 l 614 119 m 404 1083 l 457 1083 l 457 1076 l 388 781 l 350 781 l 404 1083 z "},"ή":{"ha":792,"x_min":36,"x_max":665,"o":"m 424 681 q 600 611 535 681 q 665 424 665 542 l 665 -250 l 624 -250 l 624 424 q 569 581 624 522 q 422 640 514 640 q 267 579 328 640 q 206 424 206 518 l 206 0 l 164 0 l 164 526 q 78 633 164 633 l 36 632 l 36 667 q 88 672 63 672 q 166 644 135 672 q 204 557 197 615 q 292 648 236 615 q 424 681 349 681 m 457 1083 l 510 1083 l 510 1076 l 440 781 l 403 781 l 457 1083 z "},"ί":{"ha":397,"x_min":132,"x_max":390,"o":"m 292 -14 q 173 35 214 -14 q 132 174 132 83 l 132 667 l 174 667 l 174 174 q 294 25 174 25 q 343 28 319 25 q 390 38 367 32 l 390 0 q 292 -14 339 -14 m 188 1083 l 240 1083 l 240 1076 l 171 781 l 133 781 l 188 1083 z "},"ΰ":{"ha":769,"x_min":126,"x_max":643,"o":"m 385 -14 q 325 -14 385 -14 q 196 58 265 -14 q 126 257 126 131 l 126 667 l 168 667 l 168 257 q 228 90 168 153 q 385 26 288 26 q 542 90 482 26 q 601 257 601 153 l 601 667 l 643 667 l 643 257 q 574 58 643 131 q 385 -14 504 -14 m 385 1083 l 438 1083 l 438 1076 l 394 781 l 357 781 l 385 1083 m 218 878 q 208 878 218 878 q 185 892 199 878 q 171 925 171 906 q 185 958 171 944 q 218 972 199 972 q 251 958 238 972 q 265 925 265 944 q 251 892 265 906 q 218 878 238 878 m 553 878 q 543 878 553 878 q 519 892 533 878 q 506 925 506 906 q 519 958 506 944 q 553 972 533 972 q 586 958 572 972 q 600 925 600 944 q 586 892 600 906 q 553 878 572 878 z "},"α":{"ha":897,"x_min":83,"x_max":861,"o":"m 861 38 l 861 0 q 813 -6 835 -6 q 725 28 758 -6 q 692 140 692 63 l 692 157 q 581 33 658 79 q 411 -14 504 -14 q 244 33 319 -14 q 126 159 169 79 q 83 335 83 239 q 126 508 83 429 q 243 634 168 588 q 411 681 318 681 q 588 630 508 681 q 697 496 667 579 q 706 667 699 560 l 747 667 l 742 558 q 733 343 733 408 l 733 140 q 818 33 733 33 q 861 38 835 33 m 413 26 q 550 61 486 26 q 653 165 614 96 q 692 333 692 235 q 653 501 692 432 q 551 606 614 571 q 413 640 488 640 q 265 599 329 640 q 164 489 200 558 q 128 335 128 419 q 164 178 128 249 q 265 67 200 108 q 413 26 331 26 z "},"β":{"ha":822,"x_min":138,"x_max":739,"o":"m 501 581 q 675 478 611 557 q 739 289 739 400 q 699 133 739 201 q 589 25 660 64 q 428 -14 518 -14 q 292 10 357 -14 q 179 78 226 35 l 179 -250 l 138 -250 l 138 783 q 172 923 138 861 q 266 1019 206 985 q 403 1054 326 1054 q 533 1022 475 1054 q 623 934 590 990 q 656 808 656 878 q 615 667 656 726 q 501 581 574 607 m 428 26 q 621 99 547 26 q 694 288 694 171 q 659 427 694 367 q 560 521 624 488 q 413 554 496 554 l 292 554 l 292 593 l 392 593 q 551 651 490 593 q 611 806 611 710 q 554 956 611 899 q 404 1014 497 1014 q 242 950 304 1014 q 179 783 179 886 l 179 131 q 288 54 222 82 q 428 26 354 26 z "},"γ":{"ha":692,"x_min":50,"x_max":642,"o":"m 367 -18 l 367 -250 l 325 -250 l 325 -14 l 50 667 l 96 667 l 346 33 l 596 667 l 642 667 l 367 -18 z "},"δ":{"ha":835,"x_min":83,"x_max":751,"o":"m 586 644 q 713 495 674 563 q 751 332 751 428 q 710 152 751 231 q 592 30 668 74 q 418 -14 517 -14 q 244 29 319 -14 q 126 149 168 72 q 83 325 83 226 q 126 501 83 424 q 244 621 168 578 q 417 664 319 664 q 525 644 472 664 l 117 1025 l 117 1042 l 717 1042 l 717 1003 l 201 1003 l 586 644 m 417 26 q 458 26 417 26 q 565 65 499 26 q 669 172 632 104 q 707 325 707 240 q 669 478 707 410 q 565 585 632 546 q 417 624 499 624 q 269 585 335 624 q 165 478 203 546 q 128 325 128 410 q 165 172 128 240 q 269 65 203 104 q 417 26 335 26 z "},"ε":{"ha":690,"x_min":82,"x_max":614,"o":"m 614 119 q 506 19 569 51 q 349 -14 442 -14 q 152 36 222 -14 q 82 176 82 86 q 119 283 82 239 q 222 340 156 326 q 137 395 167 356 q 107 492 107 435 q 176 628 107 576 q 358 681 244 681 q 500 652 438 681 q 596 572 563 624 l 565 547 q 483 616 536 592 q 358 640 429 640 q 207 599 264 640 q 150 489 150 558 q 199 394 150 429 q 332 360 247 360 l 481 360 l 481 321 l 342 321 q 126 176 126 321 q 184 65 126 104 q 347 26 242 26 q 487 53 432 26 q 582 142 542 81 l 614 119 z "},"ζ":{"ha":585,"x_min":50,"x_max":585,"o":"m 343 678 q 176 416 225 508 q 128 251 128 324 q 176 119 128 169 q 328 46 225 69 l 376 35 q 508 -29 467 14 q 550 -144 550 -72 q 522 -250 550 -201 l 478 -250 q 506 -144 506 -197 q 473 -56 506 -87 q 365 -6 440 -24 l 317 6 q 140 92 197 32 q 83 251 83 153 q 105 364 83 307 q 171 493 126 421 q 310 703 215 565 l 515 1003 l 50 1003 l 50 1042 l 585 1042 l 585 1025 l 343 678 z "},"η":{"ha":792,"x_min":36,"x_max":665,"o":"m 424 681 q 600 611 535 681 q 665 424 665 542 l 665 -250 l 624 -250 l 624 424 q 569 581 624 522 q 422 640 514 640 q 267 579 328 640 q 206 424 206 518 l 206 0 l 164 0 l 164 526 q 78 633 164 633 l 36 632 l 36 667 q 88 672 63 672 q 166 644 135 672 q 204 557 197 615 q 292 648 236 615 q 424 681 349 681 z "},"θ":{"ha":831,"x_min":88,"x_max":743,"o":"m 415 1056 q 463 1056 415 1056 q 585 996 511 1056 q 701 816 658 936 q 743 521 743 696 q 701 226 743 346 q 585 46 658 106 q 415 -14 511 -14 q 246 46 319 -14 q 130 226 172 106 q 88 521 88 346 q 130 816 88 696 q 246 996 172 936 q 415 1056 319 1056 m 415 1015 q 376 1015 415 1015 q 274 961 338 1015 q 173 801 211 907 q 132 543 135 694 l 699 543 q 658 801 696 694 q 556 961 619 907 q 415 1015 493 1015 m 415 26 q 454 26 415 26 q 557 81 493 26 q 659 244 621 136 q 699 504 697 351 l 132 504 q 172 244 133 351 q 274 81 210 136 q 415 26 338 26 z "},"ι":{"ha":397,"x_min":132,"x_max":390,"o":"m 292 -14 q 173 35 214 -14 q 132 174 132 83 l 132 667 l 174 667 l 174 174 q 294 25 174 25 q 343 28 319 25 q 390 38 367 32 l 390 0 q 292 -14 339 -14 z "},"κ":{"ha":636,"x_min":138,"x_max":608,"o":"m 138 667 l 179 667 l 179 0 l 138 0 l 138 667 m 608 0 l 553 0 l 206 360 l 535 667 l 594 667 l 264 358 l 608 0 z "},"λ":{"ha":733,"x_min":43,"x_max":726,"o":"m 726 35 l 726 0 q 683 -4 706 -4 q 568 93 603 -4 l 374 624 l 89 0 l 43 0 l 354 676 l 272 897 q 222 987 250 957 q 139 1017 193 1017 q 86 1010 118 1017 l 86 1047 q 142 1056 114 1056 q 242 1022 203 1056 q 310 915 282 989 l 606 108 q 640 50 621 67 q 689 33 658 33 q 726 35 713 33 z "},"μ":{"ha":803,"x_min":138,"x_max":767,"o":"m 767 38 l 767 0 q 718 -6 740 -6 q 636 24 667 -6 q 599 108 606 53 q 513 18 568 50 q 388 -14 458 -14 q 265 17 318 -14 q 179 106 211 49 l 179 -250 l 138 -250 l 138 667 l 179 667 l 179 256 q 206 138 179 190 q 281 56 233 85 q 388 26 328 26 q 538 91 479 26 q 597 256 597 156 l 597 667 l 639 667 l 639 147 q 724 33 639 33 q 767 38 740 33 z "},"ν":{"ha":719,"x_min":50,"x_max":669,"o":"m 669 667 l 371 -14 l 350 -14 l 50 667 l 96 667 l 360 60 l 624 667 l 669 667 z "},"ξ":{"ha":646,"x_min":99,"x_max":618,"o":"m 413 1003 q 294 972 343 1003 q 222 891 246 942 q 197 782 197 840 q 225 672 197 724 q 302 590 253 621 q 414 558 351 558 l 558 558 l 558 519 l 392 519 q 210 453 276 519 q 143 274 143 388 q 201 122 143 181 q 372 46 260 64 l 438 35 q 611 -144 611 6 q 583 -250 611 -201 l 539 -250 q 567 -144 567 -197 q 534 -52 567 -86 q 426 -6 501 -18 l 356 6 q 165 98 232 25 q 99 276 99 171 q 154 453 99 383 q 313 547 210 524 q 194 641 235 578 q 153 782 153 704 q 185 908 153 849 q 275 1003 217 968 l 99 1003 l 99 1042 l 618 1042 l 618 1003 l 413 1003 z "},"ο":{"ha":851,"x_min":83,"x_max":768,"o":"m 424 -14 q 252 32 331 -14 q 128 158 174 78 q 83 333 83 238 q 128 509 83 429 q 252 635 174 589 q 425 681 331 681 q 598 635 519 681 q 722 509 676 589 q 768 333 768 429 q 722 158 768 238 q 597 33 676 79 q 424 -14 518 -14 m 424 26 q 465 26 424 26 q 576 67 507 26 q 684 178 644 108 q 724 333 724 249 q 684 490 724 419 q 576 600 644 560 q 425 640 508 640 q 274 600 342 640 q 167 490 206 560 q 128 333 128 419 q 167 177 128 247 q 273 67 206 107 q 424 26 340 26 z "},"π":{"ha":806,"x_min":42,"x_max":764,"o":"m 160 625 l 42 625 l 42 667 l 764 667 l 764 625 l 646 625 l 646 0 l 604 0 l 604 625 l 201 625 l 201 0 l 160 0 l 160 625 z "},"ρ":{"ha":867,"x_min":126,"x_max":783,"o":"m 446 681 q 619 635 542 681 q 740 511 696 590 q 783 335 783 432 q 740 159 783 239 q 621 33 696 79 q 454 -14 546 -14 q 279 35 357 -14 q 168 161 201 83 l 168 -250 l 126 -250 l 126 333 q 167 513 126 435 q 280 636 207 592 q 446 681 353 681 m 450 26 q 598 66 532 26 q 701 176 664 106 q 739 333 739 246 q 701 491 739 421 q 597 601 664 561 q 447 640 531 640 q 301 603 364 640 q 203 496 238 565 q 168 336 168 426 q 203 174 168 244 q 303 65 239 104 q 450 26 367 26 z "},"ς":{"ha":725,"x_min":83,"x_max":681,"o":"m 554 -144 q 524 -56 554 -87 q 422 -6 493 -24 l 343 14 q 151 127 219 44 q 83 335 83 210 q 125 513 83 433 q 240 636 167 592 q 407 681 314 681 q 561 647 492 681 q 681 549 631 614 l 650 524 q 410 640 558 640 q 265 601 329 640 q 164 492 200 561 q 128 335 128 422 q 188 152 128 224 q 361 53 249 81 l 440 33 q 560 -28 522 14 q 599 -144 599 -71 q 571 -250 599 -201 l 526 -250 q 554 -144 554 -197 z "},"σ":{"ha":868,"x_min":83,"x_max":854,"o":"m 854 625 l 579 625 q 710 508 663 586 q 758 335 758 431 q 714 158 758 238 q 592 32 669 78 q 421 -14 515 -14 q 250 32 328 -14 q 128 156 172 78 q 83 331 83 235 q 128 501 83 424 q 250 622 172 578 q 422 667 328 667 l 854 667 l 854 625 m 714 333 q 676 484 714 417 q 572 589 639 551 q 422 626 506 626 q 272 588 339 626 q 166 483 204 550 q 128 331 128 415 q 166 175 128 244 q 272 66 204 106 q 421 26 339 26 q 570 67 503 26 q 676 177 638 107 q 714 333 714 247 z "},"τ":{"ha":640,"x_min":28,"x_max":603,"o":"m 317 625 l 317 174 q 465 25 317 25 q 514 28 490 25 q 561 38 538 32 l 561 0 q 463 -14 510 -14 q 324 35 374 -14 q 275 174 275 85 l 275 625 l 28 625 l 28 667 l 603 667 l 603 625 l 317 625 z "},"υ":{"ha":769,"x_min":126,"x_max":643,"o":"m 385 -14 q 325 -14 385 -14 q 196 58 265 -14 q 126 257 126 131 l 126 667 l 168 667 l 168 257 q 228 90 168 153 q 385 26 288 26 q 542 90 482 26 q 601 257 601 153 l 601 667 l 643 667 l 643 257 q 574 58 643 131 q 385 -14 504 -14 z "},"φ":{"ha":979,"x_min":83,"x_max":896,"o":"m 510 681 q 711 637 624 681 q 847 514 799 593 q 896 332 896 435 q 848 151 896 229 q 713 29 800 72 q 510 -14 625 -14 l 510 -250 l 468 -250 l 468 -14 q 267 29 354 -14 q 131 151 179 72 q 83 332 83 229 q 131 514 83 435 q 267 637 179 593 q 468 681 354 681 l 468 917 l 510 917 l 510 681 m 128 332 q 128 286 128 332 q 169 171 128 240 q 288 63 211 101 q 468 25 365 25 l 468 642 q 288 603 365 642 q 169 494 211 565 q 128 332 128 424 m 510 25 q 690 63 613 25 q 809 171 767 101 q 851 332 851 240 q 809 494 851 424 q 690 603 767 564 q 510 642 613 642 l 510 25 z "},"χ":{"ha":661,"x_min":31,"x_max":679,"o":"m 679 -215 l 679 -250 q 635 -254 647 -254 q 560 -231 589 -254 q 510 -162 532 -207 l 335 189 l 106 -250 l 60 -250 l 314 229 l 160 563 q 124 616 143 599 q 69 633 104 633 l 31 632 l 31 667 q 74 671 63 671 q 148 649 121 671 q 197 578 175 626 l 340 265 l 553 667 l 597 667 l 361 222 l 546 -146 q 587 -201 565 -185 q 642 -217 608 -217 q 679 -215 667 -217 z "},"ψ":{"ha":964,"x_min":126,"x_max":838,"o":"m 461 -14 q 287 27 363 -14 q 169 142 211 68 q 126 311 126 215 l 126 667 l 168 667 l 168 311 q 205 163 168 228 q 308 63 242 99 q 461 26 375 26 l 461 917 l 503 917 l 503 26 q 656 63 589 26 q 759 163 722 99 q 796 311 796 228 l 796 667 l 838 667 l 838 311 q 795 142 838 215 q 677 27 753 68 q 503 -14 601 -14 l 503 -250 l 461 -250 l 461 -14 z "},"ω":{"ha":1067,"x_min":83,"x_max":983,"o":"m 779 675 q 931 537 879 629 q 983 314 983 444 q 917 75 983 164 q 738 -14 850 -14 q 608 26 660 -14 q 533 142 556 65 q 459 26 511 65 q 329 -14 407 -14 q 150 75 217 -14 q 83 314 83 164 q 135 537 83 444 q 288 675 188 629 l 306 638 q 128 314 128 547 q 183 105 128 183 q 328 26 238 26 q 463 87 413 26 q 513 249 513 147 l 513 431 l 554 431 l 554 249 q 604 87 554 147 q 739 26 654 26 q 884 105 829 26 q 939 314 939 183 q 761 638 939 547 l 779 675 z "},"ϊ":{"ha":397,"x_min":-7,"x_max":390,"o":"m 292 -14 q 173 35 214 -14 q 132 174 132 83 l 132 667 l 174 667 l 174 174 q 294 25 174 25 q 343 28 319 25 q 390 38 367 32 l 390 0 q 292 -14 339 -14 m 40 878 q 31 878 40 878 q 7 892 21 878 q -7 925 -7 906 q 7 958 -7 944 q 40 972 21 972 q 74 958 60 972 q 88 925 88 944 q 74 892 88 906 q 40 878 60 878 m 264 878 q 254 878 264 878 q 231 892 244 878 q 217 925 217 906 q 231 958 217 944 q 264 972 244 972 q 297 958 283 972 q 311 925 311 944 q 297 892 311 906 q 264 878 283 878 z "},"ϋ":{"ha":769,"x_min":126,"x_max":643,"o":"m 385 -14 q 325 -14 385 -14 q 196 58 265 -14 q 126 257 126 131 l 126 667 l 168 667 l 168 257 q 228 90 168 153 q 385 26 288 26 q 542 90 482 26 q 601 257 601 153 l 601 667 l 643 667 l 643 257 q 574 58 643 131 q 385 -14 504 -14 m 251 878 q 242 878 251 878 q 218 892 232 878 q 204 925 204 906 q 218 958 204 944 q 251 972 232 972 q 285 958 271 972 q 299 925 299 944 q 285 892 299 906 q 251 878 271 878 m 517 878 q 507 878 517 878 q 483 892 497 878 q 469 925 469 906 q 483 958 469 944 q 517 972 497 972 q 550 958 536 972 q 564 925 564 944 q 550 892 564 906 q 517 878 536 878 z "},"ό":{"ha":851,"x_min":83,"x_max":768,"o":"m 424 -14 q 252 32 331 -14 q 128 158 174 78 q 83 333 83 238 q 128 509 83 429 q 252 635 174 589 q 425 681 331 681 q 598 635 519 681 q 722 509 676 589 q 768 333 768 429 q 722 158 768 238 q 597 33 676 79 q 424 -14 518 -14 m 424 26 q 465 26 424 26 q 576 67 507 26 q 684 178 644 108 q 724 333 724 249 q 684 490 724 419 q 576 600 644 560 q 425 640 508 640 q 274 600 342 640 q 167 490 206 560 q 128 333 128 419 q 167 177 128 247 q 273 67 206 107 q 424 26 340 26 m 461 1083 l 514 1083 l 514 1076 l 444 781 l 407 781 l 461 1083 z "},"ύ":{"ha":769,"x_min":126,"x_max":643,"o":"m 385 -14 q 325 -14 385 -14 q 196 58 265 -14 q 126 257 126 131 l 126 667 l 168 667 l 168 257 q 228 90 168 153 q 385 26 288 26 q 542 90 482 26 q 601 257 601 153 l 601 667 l 643 667 l 643 257 q 574 58 643 131 q 385 -14 504 -14 m 419 1083 l 472 1083 l 472 1076 l 403 781 l 365 781 l 419 1083 z "},"ώ":{"ha":1067,"x_min":83,"x_max":983,"o":"m 779 675 q 931 537 879 629 q 983 314 983 444 q 917 75 983 164 q 738 -14 850 -14 q 608 26 660 -14 q 533 142 556 65 q 459 26 511 65 q 329 -14 407 -14 q 150 75 217 -14 q 83 314 83 164 q 135 537 83 444 q 288 675 188 629 l 306 638 q 128 314 128 547 q 183 105 128 183 q 328 26 238 26 q 463 87 413 26 q 513 249 513 147 l 513 431 l 554 431 l 554 249 q 604 87 554 147 q 739 26 654 26 q 884 105 829 26 q 939 314 939 183 q 761 638 939 547 l 779 675 m 568 1083 l 621 1083 l 621 1076 l 551 781 l 514 781 l 568 1083 z "},"Ѐ":{"ha":779,"x_min":143,"x_max":724,"o":"m 143 917 l 707 917 l 707 876 l 188 876 l 188 519 l 596 519 l 596 479 l 188 479 l 188 40 l 724 40 l 724 0 l 143 0 l 143 917 m 251 1257 l 251 1264 l 303 1264 l 436 1006 l 400 1006 l 251 1257 z "},"Ё":{"ha":779,"x_min":143,"x_max":724,"o":"m 143 917 l 707 917 l 707 876 l 188 876 l 188 519 l 596 519 l 596 479 l 188 479 l 188 40 l 724 40 l 724 0 l 143 0 l 143 917 m 264 1072 q 254 1072 264 1072 q 231 1086 244 1072 q 217 1119 217 1100 q 231 1153 217 1139 q 264 1167 244 1167 q 297 1153 283 1167 q 311 1119 311 1139 q 297 1086 311 1100 q 264 1072 283 1072 m 571 1072 q 561 1072 571 1072 q 538 1086 551 1072 q 524 1119 524 1100 q 538 1153 524 1139 q 571 1167 551 1167 q 604 1153 590 1167 q 618 1119 618 1139 q 604 1086 618 1100 q 571 1072 590 1072 z "},"Ђ":{"ha":1013,"x_min":38,"x_max":950,"o":"m 646 22 q 835 99 765 40 q 906 275 906 157 q 831 455 906 393 q 633 517 757 517 q 507 501 568 517 q 400 461 446 486 l 400 0 l 356 0 l 356 876 l 38 876 l 38 917 l 760 917 l 760 876 l 400 876 l 400 503 q 507 544 446 529 q 635 558 568 558 q 865 485 781 558 q 950 274 950 411 q 867 74 950 146 q 653 -14 783 1 l 646 22 z "},"Ѓ":{"ha":685,"x_min":143,"x_max":651,"o":"m 143 917 l 651 917 l 651 876 l 188 876 l 188 0 l 143 0 l 143 917 m 457 1264 l 508 1264 l 508 1257 l 360 1006 l 324 1006 l 457 1264 z "},"Є":{"ha":985,"x_min":79,"x_max":906,"o":"m 544 29 q 731 72 647 29 q 872 192 815 115 l 906 165 q 749 34 843 82 q 543 -14 654 -14 q 309 49 415 -14 q 141 219 203 111 q 79 458 79 328 q 141 699 79 590 q 309 869 203 807 q 543 931 415 931 q 749 883 654 931 q 906 751 843 835 l 872 725 q 731 844 815 801 q 544 888 647 888 q 340 836 432 888 q 191 694 247 785 q 128 492 135 604 l 625 492 l 625 451 l 126 451 q 183 237 128 333 q 333 85 239 140 q 544 29 428 29 z "},"Ѕ":{"ha":771,"x_min":69,"x_max":668,"o":"m 393 -14 q 207 38 289 -14 q 69 179 125 89 l 103 204 q 228 76 154 124 q 394 29 301 29 q 557 81 493 29 q 621 221 621 132 q 602 309 621 274 q 545 371 583 344 q 439 431 507 397 l 333 481 q 231 536 269 511 q 163 605 192 561 q 135 714 135 649 q 209 873 135 815 q 393 931 283 931 q 547 894 479 931 q 658 792 614 857 l 625 765 q 396 888 536 888 q 246 846 310 888 q 182 717 182 804 q 203 630 182 665 q 260 572 225 594 q 354 519 294 549 l 460 469 q 617 366 565 419 q 668 221 668 313 q 632 98 668 151 q 533 15 596 44 q 393 -14 471 -14 z "},"І":{"ha":331,"x_min":143,"x_max":188,"o":"m 143 917 l 188 917 l 188 0 l 143 0 l 143 917 z "},"Ї":{"ha":331,"x_min":-36,"x_max":365,"o":"m 143 917 l 188 917 l 188 0 l 143 0 l 143 917 m 11 1072 q 1 1072 11 1072 q -22 1086 -8 1072 q -36 1119 -36 1100 q -22 1153 -36 1139 q 11 1167 -8 1167 q 44 1153 31 1167 q 58 1119 58 1139 q 44 1086 58 1100 q 11 1072 31 1072 m 318 1072 q 308 1072 318 1072 q 285 1086 299 1072 q 271 1119 271 1100 q 285 1153 271 1139 q 318 1167 299 1167 q 351 1153 338 1167 q 365 1119 365 1139 q 351 1086 365 1100 q 318 1072 338 1072 z "},"Ј":{"ha":501,"x_min":42,"x_max":358,"o":"m 42 0 l 42 40 q 149 29 101 29 q 269 64 225 29 q 314 188 314 99 l 314 917 l 358 917 l 358 188 q 301 35 358 83 q 150 -14 244 -14 q 42 0 100 -14 z "},"Љ":{"ha":1340,"x_min":28,"x_max":1278,"o":"m 1000 513 q 1149 479 1086 513 q 1245 388 1213 446 q 1278 256 1278 329 q 1245 124 1278 182 q 1149 33 1213 67 q 1000 0 1086 0 l 696 0 l 696 876 l 299 876 l 293 696 q 256 285 286 439 q 176 65 226 132 q 50 -3 125 -3 q 28 0 36 -3 l 28 42 q 50 39 39 39 q 194 201 146 39 q 250 696 242 364 l 256 917 l 740 917 l 740 513 l 1000 513 m 997 40 q 1172 101 1111 40 q 1232 257 1232 161 q 1172 413 1232 353 q 997 472 1111 472 l 740 472 l 740 40 l 997 40 z "},"Њ":{"ha":1351,"x_min":143,"x_max":1289,"o":"m 143 917 l 188 917 l 188 519 l 707 519 l 707 917 l 751 917 l 751 519 l 993 519 q 1154 485 1088 519 q 1255 392 1221 451 q 1289 260 1289 333 q 1255 127 1289 186 q 1154 34 1221 68 q 993 0 1088 0 l 707 0 l 707 479 l 188 479 l 188 0 l 143 0 l 143 917 m 990 40 q 1177 102 1111 40 q 1243 258 1243 164 q 1177 417 1243 354 q 990 479 1111 479 l 751 479 l 751 40 l 990 40 z "},"Ћ":{"ha":1093,"x_min":38,"x_max":950,"o":"m 635 558 q 865 474 779 558 q 950 233 950 389 l 950 0 l 906 0 l 906 233 q 832 445 906 374 q 633 517 758 517 q 509 501 569 517 q 400 461 449 485 l 400 0 l 356 0 l 356 876 l 38 876 l 38 917 l 760 917 l 760 876 l 400 876 l 400 503 q 509 543 449 528 q 635 558 569 558 z "},"Ќ":{"ha":831,"x_min":143,"x_max":775,"o":"m 143 917 l 188 917 l 188 0 l 143 0 l 143 917 m 775 0 l 715 0 l 214 499 l 682 917 l 744 917 l 275 499 l 775 0 m 529 1264 l 581 1264 l 581 1257 l 432 1006 l 396 1006 l 529 1264 z "},"Ѝ":{"ha":992,"x_min":143,"x_max":849,"o":"m 849 931 l 849 0 l 804 0 l 804 838 l 164 -14 l 143 -14 l 143 917 l 188 917 l 188 79 l 828 931 l 849 931 m 329 1257 l 329 1264 l 381 1264 l 514 1006 l 478 1006 l 329 1257 z "},"Ў":{"ha":864,"x_min":82,"x_max":801,"o":"m 801 917 l 471 151 q 383 27 433 64 q 257 -10 333 -10 q 178 0 213 -10 l 178 42 q 256 32 208 32 q 363 62 324 32 q 432 160 403 92 l 446 192 l 82 917 l 129 917 l 467 240 l 754 917 l 801 917 m 421 1017 q 378 1017 421 1017 q 284 1071 335 1017 q 233 1217 233 1125 l 233 1264 l 275 1264 l 275 1219 q 314 1098 275 1142 q 421 1054 353 1054 q 528 1098 489 1054 q 567 1219 567 1142 l 567 1264 l 608 1264 l 608 1217 q 558 1071 608 1125 q 421 1017 507 1017 z "},"Џ":{"ha":964,"x_min":143,"x_max":821,"o":"m 821 0 l 504 0 l 504 -196 l 460 -196 l 460 0 l 143 0 l 143 917 l 188 917 l 188 40 l 776 40 l 776 917 l 821 917 l 821 0 z "},"А":{"ha":924,"x_min":63,"x_max":861,"o":"m 714 243 l 208 243 l 108 0 l 63 0 l 451 931 l 472 931 l 861 0 l 815 0 l 714 243 m 225 283 l 697 283 l 461 853 l 225 283 z "},"Б":{"ha":788,"x_min":143,"x_max":718,"o":"m 143 917 l 644 917 l 644 876 l 188 876 l 188 513 l 440 513 q 590 479 526 513 q 685 388 653 446 q 718 256 718 329 q 685 124 718 182 q 590 33 653 67 q 440 0 526 0 l 143 0 l 143 917 m 438 40 q 612 101 551 40 q 672 257 672 161 q 612 413 672 353 q 438 472 551 472 l 188 472 l 188 40 l 438 40 z "},"В":{"ha":847,"x_min":143,"x_max":778,"o":"m 564 508 q 722 424 667 492 q 778 260 778 357 q 703 73 778 146 q 496 0 629 0 l 143 0 l 143 917 l 451 917 q 626 856 564 917 q 688 700 688 796 q 656 585 688 635 q 564 508 624 535 m 188 876 l 188 519 l 447 519 q 592 569 543 519 q 642 699 642 619 q 594 828 642 776 q 447 878 546 879 l 188 876 m 493 40 q 669 102 607 40 q 732 258 732 164 q 669 417 732 354 q 493 479 607 479 l 188 479 l 188 40 l 493 40 z "},"Г":{"ha":685,"x_min":143,"x_max":651,"o":"m 143 917 l 651 917 l 651 876 l 188 876 l 188 0 l 143 0 l 143 917 z "},"Д":{"ha":917,"x_min":14,"x_max":875,"o":"m 875 40 l 875 -196 l 831 -196 l 831 0 l 58 0 l 58 -196 l 14 -196 l 14 40 l 99 40 q 173 172 144 96 q 217 376 201 249 q 239 706 233 503 l 244 917 l 757 917 l 757 40 l 875 40 m 713 40 l 713 876 l 288 876 l 282 704 q 245 276 274 429 q 154 40 217 124 l 713 40 z "},"Е":{"ha":779,"x_min":143,"x_max":724,"o":"m 143 917 l 707 917 l 707 876 l 188 876 l 188 519 l 596 519 l 596 479 l 188 479 l 188 40 l 724 40 l 724 0 l 143 0 l 143 917 z "},"Ж":{"ha":1274,"x_min":56,"x_max":1218,"o":"m 147 917 l 588 499 l 114 0 l 56 0 l 531 497 l 83 917 l 147 917 m 614 917 l 658 917 l 658 0 l 614 0 l 614 917 m 1218 0 l 1158 0 l 685 499 l 1125 917 l 1188 917 l 742 499 l 1218 0 z "},"З":{"ha":801,"x_min":79,"x_max":725,"o":"m 531 504 q 674 413 624 481 q 725 258 725 344 q 688 119 725 181 q 581 22 650 57 q 421 -14 513 -14 q 79 178 183 -14 l 113 204 q 419 29 208 29 q 556 58 497 29 q 647 140 615 88 q 679 257 679 192 q 651 365 679 314 q 569 448 624 417 q 440 479 515 479 l 288 479 l 288 519 l 429 519 q 574 572 524 519 q 624 703 624 624 q 568 837 624 786 q 410 888 513 888 q 164 764 250 888 l 131 790 q 411 931 231 931 q 550 900 492 931 q 639 818 608 869 q 669 704 669 767 q 633 582 669 635 q 531 504 597 529 z "},"И":{"ha":992,"x_min":143,"x_max":849,"o":"m 849 931 l 849 0 l 804 0 l 804 838 l 164 -14 l 143 -14 l 143 917 l 188 917 l 188 79 l 828 931 l 849 931 z "},"Й":{"ha":992,"x_min":143,"x_max":849,"o":"m 849 931 l 849 0 l 804 0 l 804 838 l 164 -14 l 143 -14 l 143 917 l 188 917 l 188 79 l 828 931 l 849 931 m 496 1017 q 453 1017 496 1017 q 359 1071 410 1017 q 308 1217 308 1125 l 308 1264 l 350 1264 l 350 1219 q 389 1098 350 1142 q 496 1054 428 1054 q 603 1098 564 1054 q 642 1219 642 1142 l 642 1264 l 683 1264 l 683 1217 q 633 1071 683 1125 q 496 1017 582 1017 z "},"К":{"ha":831,"x_min":143,"x_max":775,"o":"m 143 917 l 188 917 l 188 0 l 143 0 l 143 917 m 775 0 l 715 0 l 214 499 l 682 917 l 744 917 l 275 499 l 775 0 z "},"Л":{"ha":911,"x_min":28,"x_max":768,"o":"m 768 917 l 768 0 l 724 0 l 724 876 l 299 876 l 293 696 q 256 285 286 439 q 176 65 226 132 q 50 -3 125 -3 q 28 0 36 -3 l 28 42 q 50 39 39 39 q 194 201 146 39 q 250 696 242 364 l 256 917 l 768 917 z "},"М":{"ha":1086,"x_min":143,"x_max":943,"o":"m 943 931 l 943 0 l 899 0 l 899 813 l 554 307 l 533 307 l 188 813 l 188 0 l 143 0 l 143 931 l 164 931 l 543 372 l 922 931 l 943 931 z "},"Н":{"ha":978,"x_min":143,"x_max":835,"o":"m 143 917 l 188 917 l 188 519 l 790 519 l 790 917 l 835 917 l 835 0 l 790 0 l 790 479 l 188 479 l 188 0 l 143 0 l 143 917 z "},"О":{"ha":1089,"x_min":79,"x_max":1010,"o":"m 543 -14 q 479 -14 543 -14 q 309 49 415 -14 q 141 219 203 111 q 79 458 79 328 q 141 699 79 590 q 309 869 203 807 q 543 931 415 931 q 778 868 671 931 q 947 698 885 806 q 1010 458 1010 590 q 947 219 1010 328 q 778 49 885 111 q 543 -14 671 -14 m 544 29 q 757 86 661 29 q 908 242 853 143 q 963 460 963 340 q 908 676 963 578 q 757 831 853 774 q 544 888 661 888 q 332 831 428 888 q 181 677 236 775 q 126 460 126 579 q 181 242 126 340 q 331 86 236 143 q 544 29 426 29 z "},"П":{"ha":964,"x_min":143,"x_max":821,"o":"m 143 917 l 821 917 l 821 0 l 776 0 l 776 876 l 188 876 l 188 0 l 143 0 l 143 917 z "},"Р":{"ha":774,"x_min":143,"x_max":711,"o":"m 143 917 l 447 917 q 641 849 571 917 q 711 675 711 781 q 641 500 711 568 q 447 432 571 432 l 188 432 l 188 0 l 143 0 l 143 917 m 444 472 q 608 528 551 472 q 665 674 665 585 q 608 819 665 763 q 444 876 551 876 l 188 876 l 188 472 l 444 472 z "},"С":{"ha":985,"x_min":79,"x_max":906,"o":"m 543 -14 q 309 49 415 -14 q 141 219 203 111 q 79 458 79 328 q 141 699 79 590 q 309 869 203 807 q 543 931 415 931 q 749 883 654 931 q 906 751 843 835 l 872 725 q 731 844 815 801 q 544 888 647 888 q 331 831 426 888 q 181 677 236 775 q 126 460 126 579 q 181 242 126 340 q 331 86 235 143 q 544 29 426 29 q 731 72 647 29 q 872 192 815 115 l 906 165 q 749 34 843 82 q 543 -14 654 -14 z "},"Т":{"ha":811,"x_min":38,"x_max":774,"o":"m 383 876 l 38 876 l 38 917 l 774 917 l 774 876 l 428 876 l 428 0 l 383 0 l 383 876 z "},"У":{"ha":864,"x_min":82,"x_max":801,"o":"m 801 917 l 471 151 q 383 27 433 64 q 257 -10 333 -10 q 178 0 213 -10 l 178 42 q 256 32 208 32 q 363 62 324 32 q 432 160 403 92 l 446 192 l 82 917 l 129 917 l 467 240 l 754 917 l 801 917 z "},"Ф":{"ha":1035,"x_min":65,"x_max":969,"o":"m 539 829 q 761 785 664 829 q 914 658 858 740 q 969 464 969 575 q 914 268 969 351 q 761 140 858 185 q 539 96 664 96 l 539 -28 l 494 -28 l 494 96 q 272 140 369 96 q 120 268 175 185 q 65 464 65 351 q 120 658 65 575 q 272 785 175 740 q 494 829 369 829 l 494 944 l 539 944 l 539 829 m 494 788 q 294 749 381 788 q 160 638 208 711 q 113 464 113 565 q 160 289 113 363 q 294 176 208 215 q 494 138 381 138 l 494 788 m 539 138 q 740 176 653 138 q 874 289 826 215 q 922 464 922 363 q 874 638 922 565 q 740 749 826 711 q 539 788 653 788 l 539 138 z "},"Х":{"ha":804,"x_min":56,"x_max":749,"o":"m 697 0 l 403 435 l 107 0 l 56 0 l 378 472 l 79 917 l 131 917 l 404 507 l 674 917 l 725 917 l 429 471 l 749 0 l 697 0 z "},"Ц":{"ha":981,"x_min":143,"x_max":939,"o":"m 894 0 l 143 0 l 143 917 l 188 917 l 188 40 l 776 40 l 776 917 l 821 917 l 821 40 l 939 40 l 939 -196 l 894 -196 l 894 0 z "},"Ч":{"ha":911,"x_min":118,"x_max":768,"o":"m 768 917 l 768 0 l 724 0 l 724 414 q 443 365 606 365 q 204 447 290 365 q 118 697 118 529 l 118 917 l 163 917 l 163 697 q 238 476 163 546 q 444 407 313 407 q 724 456 603 407 l 724 917 l 768 917 z "},"Ш":{"ha":1347,"x_min":143,"x_max":1204,"o":"m 143 917 l 188 917 l 188 40 l 651 40 l 651 917 l 696 917 l 696 40 l 1160 40 l 1160 917 l 1204 917 l 1204 0 l 143 0 l 143 917 z "},"Щ":{"ha":1364,"x_min":143,"x_max":1322,"o":"m 1278 0 l 143 0 l 143 917 l 188 917 l 188 40 l 651 40 l 651 917 l 696 917 l 696 40 l 1160 40 l 1160 917 l 1204 917 l 1204 40 l 1322 40 l 1322 -196 l 1278 -196 l 1278 0 z "},"Ъ":{"ha":897,"x_min":38,"x_max":835,"o":"m 253 876 l 38 876 l 38 917 l 297 917 l 297 513 l 557 513 q 706 479 643 513 q 802 388 769 446 q 835 256 835 329 q 802 124 835 182 q 706 33 769 67 q 557 0 643 0 l 253 0 l 253 876 m 554 40 q 728 101 668 40 q 789 257 789 161 q 728 413 789 353 q 554 472 668 472 l 297 472 l 297 40 l 554 40 z "},"Ы":{"ha":1104,"x_min":143,"x_max":961,"o":"m 143 917 l 188 917 l 188 513 l 447 513 q 597 479 533 513 q 692 388 660 446 q 725 256 725 329 q 692 124 725 182 q 597 33 660 67 q 447 0 533 0 l 143 0 l 143 917 m 444 40 q 619 101 558 40 q 679 257 679 161 q 619 413 679 353 q 444 472 558 472 l 188 472 l 188 40 l 444 40 m 917 917 l 961 917 l 961 0 l 917 0 l 917 917 z "},"Ь":{"ha":788,"x_min":143,"x_max":725,"o":"m 143 917 l 188 917 l 188 513 l 447 513 q 597 479 533 513 q 692 388 660 446 q 725 256 725 329 q 692 124 725 182 q 597 33 660 67 q 447 0 533 0 l 143 0 l 143 917 m 444 40 q 619 101 558 40 q 679 257 679 161 q 619 413 679 353 q 444 472 558 472 l 188 472 l 188 40 l 444 40 z "},"Э":{"ha":985,"x_min":79,"x_max":906,"o":"m 442 931 q 676 869 569 931 q 844 699 782 807 q 906 458 906 590 q 844 219 906 328 q 676 49 782 111 q 442 -14 569 -14 q 236 34 331 -14 q 79 165 142 82 l 113 192 q 253 72 169 115 q 440 29 338 29 q 651 85 557 29 q 801 237 746 140 q 858 451 857 333 l 360 451 l 360 492 l 857 492 q 794 694 850 604 q 645 836 738 785 q 440 888 553 888 q 253 844 338 888 q 113 725 169 801 l 79 751 q 236 883 142 835 q 442 931 331 931 z "},"Ю":{"ha":1381,"x_min":143,"x_max":1301,"o":"m 849 931 q 1076 868 972 931 q 1241 698 1181 806 q 1301 458 1301 590 q 1240 219 1301 328 q 1076 49 1179 111 q 849 -14 972 -14 q 622 49 725 -14 q 458 219 518 111 q 399 458 399 328 l 399 479 l 188 479 l 188 0 l 143 0 l 143 917 l 188 917 l 188 519 l 403 519 q 479 730 417 636 q 638 877 542 824 q 849 931 735 931 m 850 29 q 1055 86 963 29 q 1201 242 1147 143 q 1254 460 1254 340 q 1201 676 1254 578 q 1055 831 1147 774 q 850 888 963 888 q 645 831 738 888 q 499 677 553 775 q 446 460 446 579 q 499 242 446 340 q 644 86 551 143 q 850 29 736 29 z "},"Я":{"ha":822,"x_min":69,"x_max":679,"o":"m 679 917 l 679 0 l 635 0 l 635 404 l 400 404 l 124 0 l 69 0 l 347 407 q 175 488 239 419 q 111 661 111 557 q 187 847 111 776 q 389 917 263 917 l 679 917 m 635 876 l 392 876 q 220 818 283 876 q 157 660 157 760 q 220 502 157 560 q 392 444 283 444 l 635 444 l 635 876 z "},"а":{"ha":717,"x_min":72,"x_max":590,"o":"m 350 681 q 524 614 458 681 q 590 424 590 547 l 590 0 l 549 0 l 549 118 q 447 21 513 56 q 300 -14 381 -14 q 139 32 206 -14 q 72 163 72 78 q 135 288 72 242 q 300 335 197 335 l 549 335 l 549 425 q 494 585 549 531 q 347 640 439 640 q 229 610 279 640 q 138 524 179 579 l 107 549 q 215 647 156 614 q 350 681 274 681 m 301 26 q 424 55 368 26 q 515 133 481 83 q 549 243 549 182 l 549 296 l 301 296 q 165 261 213 296 q 117 165 117 226 q 172 62 117 97 q 301 26 226 26 z "},"б":{"ha":858,"x_min":90,"x_max":775,"o":"m 432 681 q 605 635 526 681 q 729 509 683 589 q 775 333 775 429 q 729 158 775 238 q 604 33 683 79 q 431 -14 525 -14 q 258 31 336 -14 q 135 158 181 76 q 90 344 90 239 l 90 507 q 127 750 90 653 q 247 905 164 847 q 467 986 329 963 q 617 1016 563 1003 q 713 1053 672 1029 l 713 1010 q 615 973 672 988 q 472 944 557 958 q 263 869 338 921 q 158 733 188 818 q 128 511 128 647 l 128 468 q 249 624 168 567 q 432 681 331 681 m 431 26 q 472 26 431 26 q 583 67 514 26 q 691 178 651 108 q 731 333 731 249 q 691 488 731 418 q 583 599 651 558 q 432 640 515 640 q 281 600 349 640 q 174 490 213 560 q 135 333 135 419 q 174 177 135 247 q 280 67 213 107 q 431 26 347 26 z "},"в":{"ha":732,"x_min":138,"x_max":635,"o":"m 489 353 q 597 294 560 336 q 635 189 635 251 q 575 53 635 107 q 408 0 515 0 l 138 0 l 138 667 l 399 667 q 540 623 490 667 q 590 507 590 579 q 564 413 590 454 q 489 353 538 372 m 179 368 l 394 368 q 508 406 469 368 q 546 506 546 444 q 508 596 546 564 q 394 628 471 628 l 179 628 l 179 368 m 406 39 q 542 81 493 39 q 590 188 590 124 q 542 290 590 250 q 406 329 494 329 l 179 329 l 179 39 l 406 39 z "},"г":{"ha":575,"x_min":138,"x_max":547,"o":"m 138 667 l 547 667 l 547 628 l 179 628 l 179 0 l 138 0 l 138 667 z "},"д":{"ha":757,"x_min":14,"x_max":701,"o":"m 701 39 l 701 -196 l 660 -196 l 660 0 l 56 0 l 56 -196 l 14 -196 l 14 39 l 76 39 q 151 197 126 93 q 185 514 175 301 l 192 667 l 597 667 l 597 39 l 701 39 m 556 39 l 556 628 l 231 628 l 225 513 q 192 208 215 322 q 129 39 169 93 l 556 39 z "},"е":{"ha":796,"x_min":83,"x_max":713,"o":"m 708 329 l 128 329 q 167 175 128 244 q 274 66 207 106 q 424 26 342 26 q 557 57 496 26 q 661 143 618 88 l 692 118 q 574 22 644 57 q 424 -14 504 -14 q 253 33 331 -14 q 129 158 175 79 q 83 333 83 238 q 128 508 83 428 q 249 634 172 588 q 417 681 325 681 q 564 645 496 681 q 672 542 632 610 q 713 386 713 475 q 708 329 713 363 m 414 640 q 277 605 339 640 q 176 507 215 569 q 129 368 136 444 l 668 368 q 640 512 674 450 q 546 607 606 574 q 414 640 486 640 z "},"ж":{"ha":997,"x_min":42,"x_max":956,"o":"m 133 667 l 451 361 l 97 0 l 42 0 l 394 361 l 74 667 l 133 667 m 478 667 l 519 667 l 519 0 l 478 0 l 478 667 m 956 0 l 900 0 l 546 361 l 864 667 l 924 667 l 603 361 l 956 0 z "},"з":{"ha":642,"x_min":76,"x_max":560,"o":"m 411 356 q 520 292 481 339 q 560 185 560 244 q 496 42 560 97 q 322 -14 432 -14 q 76 119 161 -14 l 110 144 q 194 58 144 90 q 322 26 244 26 q 465 71 415 26 q 515 185 515 115 q 466 293 515 253 q 321 333 417 333 l 221 333 l 221 374 l 325 374 q 443 412 404 374 q 482 510 482 450 q 440 606 482 572 q 324 640 397 640 q 215 616 258 640 q 138 547 172 592 l 108 572 q 324 681 186 681 q 472 634 418 681 q 526 511 526 588 q 497 417 526 458 q 411 356 468 375 z "},"и":{"ha":776,"x_min":138,"x_max":639,"o":"m 639 681 l 639 0 l 597 0 l 597 593 l 158 -14 l 138 -14 l 138 667 l 179 667 l 179 74 l 618 681 l 639 681 z "},"й":{"ha":776,"x_min":138,"x_max":639,"o":"m 639 681 l 639 0 l 597 0 l 597 593 l 158 -14 l 138 -14 l 138 667 l 179 667 l 179 74 l 618 681 l 639 681 m 389 799 q 346 799 389 799 q 252 853 303 799 q 201 999 201 907 l 201 1046 l 243 1046 l 243 1001 q 282 880 243 924 q 389 836 321 836 q 496 880 457 836 q 535 1001 535 924 l 535 1046 l 576 1046 l 576 999 q 526 853 576 907 q 389 799 475 799 z "},"к":{"ha":657,"x_min":138,"x_max":615,"o":"m 138 667 l 179 667 l 179 0 l 138 0 l 138 667 m 615 0 l 560 0 l 206 361 l 524 667 l 583 667 l 264 361 l 615 0 z "},"л":{"ha":739,"x_min":28,"x_max":601,"o":"m 601 667 l 601 0 l 560 0 l 560 628 l 249 628 l 243 513 q 213 199 232 307 q 156 44 193 90 q 50 -3 118 -3 q 28 0 36 -3 l 28 39 q 50 38 38 38 q 136 90 106 38 q 181 242 167 142 q 203 514 196 343 l 210 667 l 601 667 z "},"м":{"ha":951,"x_min":138,"x_max":814,"o":"m 138 681 l 158 681 l 476 269 l 793 681 l 814 681 l 814 0 l 772 0 l 772 583 l 488 217 l 465 217 l 179 585 l 179 0 l 138 0 l 138 681 z "},"н":{"ha":763,"x_min":138,"x_max":625,"o":"m 138 667 l 179 667 l 179 383 l 583 383 l 583 667 l 625 667 l 625 0 l 583 0 l 583 343 l 179 343 l 179 0 l 138 0 l 138 667 z "},"о":{"ha":851,"x_min":83,"x_max":768,"o":"m 424 -14 q 252 32 331 -14 q 128 158 174 78 q 83 333 83 238 q 128 509 83 429 q 252 635 174 589 q 425 681 331 681 q 598 635 519 681 q 722 509 676 589 q 768 333 768 429 q 722 158 768 238 q 597 33 676 79 q 424 -14 518 -14 m 424 26 q 465 26 424 26 q 576 67 507 26 q 684 178 644 108 q 724 333 724 249 q 684 490 724 419 q 576 600 644 560 q 425 640 508 640 q 274 600 342 640 q 167 490 206 560 q 128 333 128 419 q 167 177 128 247 q 273 67 206 107 q 424 26 340 26 z "},"п":{"ha":749,"x_min":138,"x_max":611,"o":"m 138 667 l 611 667 l 611 0 l 569 0 l 569 628 l 179 628 l 179 0 l 138 0 l 138 667 z "},"р":{"ha":882,"x_min":138,"x_max":799,"o":"m 465 681 q 512 681 465 681 q 635 634 558 681 q 755 508 711 588 q 799 333 799 428 q 755 158 799 238 q 635 33 711 79 q 465 -14 558 -14 q 293 33 372 -14 q 179 160 214 81 l 179 -250 l 138 -250 l 138 667 l 179 667 l 179 507 q 293 633 214 586 q 465 681 372 681 m 465 26 q 615 67 549 26 q 717 177 681 107 q 754 333 754 247 q 717 488 754 418 q 613 599 679 558 q 465 640 547 640 q 325 607 390 640 q 219 505 260 574 q 179 333 179 436 q 219 162 179 231 q 325 60 260 93 q 465 26 390 26 z "},"с":{"ha":768,"x_min":83,"x_max":692,"o":"m 424 -14 q 252 33 331 -14 q 128 159 174 79 q 83 333 83 239 q 128 508 83 429 q 252 634 174 588 q 425 681 331 681 q 575 646 507 681 q 692 549 643 611 l 661 524 q 558 610 618 579 q 425 640 497 640 q 274 599 342 640 q 167 488 206 558 q 128 333 128 418 q 167 178 128 249 q 274 67 206 108 q 424 26 342 26 q 557 57 496 26 q 661 143 618 88 l 692 118 q 574 21 643 56 q 424 -14 506 -14 z "},"т":{"ha":638,"x_min":39,"x_max":599,"o":"m 299 628 l 39 628 l 39 667 l 599 667 l 599 628 l 340 628 l 340 0 l 299 0 l 299 628 z "},"у":{"ha":719,"x_min":50,"x_max":669,"o":"m 669 667 l 332 -122 q 252 -231 300 -197 q 139 -264 204 -264 q 50 -251 93 -264 l 50 -214 q 136 -225 101 -225 q 229 -197 190 -225 q 296 -104 268 -169 l 343 8 l 50 667 l 96 667 l 365 63 l 624 667 l 669 667 z "},"ф":{"ha":951,"x_min":83,"x_max":868,"o":"m 496 681 q 689 635 604 681 q 821 511 774 590 q 868 333 868 432 q 821 152 868 231 q 690 30 774 74 q 496 -14 606 -14 l 496 -250 l 454 -250 l 454 -14 q 260 30 344 -14 q 130 152 176 74 q 83 333 83 231 q 130 511 83 432 q 261 635 176 590 q 454 681 346 681 l 454 1042 l 496 1042 l 496 681 m 454 642 q 283 602 357 642 q 168 492 208 563 q 128 333 128 422 q 168 172 128 242 q 282 64 208 103 q 454 25 356 25 l 454 642 m 496 25 q 669 64 594 25 q 783 172 743 103 q 824 333 824 242 q 783 492 824 422 q 667 602 742 563 q 496 642 593 642 l 496 25 z "},"х":{"ha":649,"x_min":42,"x_max":607,"o":"m 556 0 l 324 317 l 93 0 l 42 0 l 297 350 l 64 667 l 115 667 l 324 383 l 533 667 l 585 667 l 350 350 l 607 0 l 556 0 z "},"ц":{"ha":771,"x_min":138,"x_max":715,"o":"m 674 0 l 138 0 l 138 667 l 179 667 l 179 39 l 569 39 l 569 667 l 611 667 l 611 39 l 715 39 l 715 -196 l 674 -196 l 674 0 z "},"ч":{"ha":694,"x_min":83,"x_max":557,"o":"m 557 667 l 557 0 l 515 0 l 515 314 q 433 288 482 297 q 333 278 383 278 q 151 340 218 278 q 83 528 83 403 l 83 667 l 125 667 l 125 528 q 180 367 125 418 q 332 317 235 317 q 432 326 382 317 q 515 353 482 336 l 515 667 l 557 667 z "},"ш":{"ha":1128,"x_min":138,"x_max":990,"o":"m 138 667 l 179 667 l 179 39 l 543 39 l 543 667 l 585 667 l 585 39 l 949 39 l 949 667 l 990 667 l 990 0 l 138 0 l 138 667 z "},"щ":{"ha":1150,"x_min":138,"x_max":1094,"o":"m 1053 0 l 138 0 l 138 667 l 179 667 l 179 39 l 543 39 l 543 667 l 585 667 l 585 39 l 949 39 l 949 667 l 990 667 l 990 39 l 1094 39 l 1094 -196 l 1053 -196 l 1053 0 z "},"ъ":{"ha":774,"x_min":39,"x_max":690,"o":"m 226 628 l 39 628 l 39 667 l 268 667 l 268 403 l 456 403 q 628 348 567 403 q 690 203 690 293 q 628 56 690 111 q 456 0 567 0 l 226 0 l 226 628 m 453 39 q 596 84 546 39 q 646 201 646 129 q 596 319 646 274 q 453 364 546 364 l 268 364 l 268 39 l 453 39 z "},"ы":{"ha":943,"x_min":138,"x_max":806,"o":"m 138 667 l 179 667 l 179 403 l 367 403 q 540 348 478 403 q 601 203 601 293 q 540 56 601 111 q 367 0 478 0 l 138 0 l 138 667 m 764 667 l 806 667 l 806 0 l 764 0 l 764 667 m 364 39 q 507 84 457 39 q 557 201 557 129 q 507 319 557 274 q 364 364 457 364 l 179 364 l 179 39 l 364 39 z "},"ь":{"ha":685,"x_min":138,"x_max":601,"o":"m 138 667 l 179 667 l 179 403 l 367 403 q 540 348 478 403 q 601 203 601 293 q 540 56 601 111 q 367 0 478 0 l 138 0 l 138 667 m 364 39 q 507 84 457 39 q 557 201 557 129 q 507 319 557 274 q 364 364 457 364 l 179 364 l 179 39 l 364 39 z "},"э":{"ha":768,"x_min":76,"x_max":685,"o":"m 343 681 q 515 634 436 681 q 639 508 593 588 q 685 333 685 428 q 639 159 685 239 q 515 33 593 79 q 344 -14 438 -14 q 194 22 264 -14 q 76 118 124 57 l 107 143 q 211 57 150 88 q 344 26 272 26 q 494 67 426 26 q 600 176 561 107 q 640 328 639 244 l 285 328 l 285 367 l 639 367 q 591 506 632 444 q 485 604 550 568 q 343 640 421 640 q 210 610 271 640 q 107 524 150 579 l 76 549 q 194 646 125 611 q 343 681 263 681 z "},"ю":{"ha":1108,"x_min":138,"x_max":1025,"o":"m 689 681 q 858 634 781 681 q 980 508 935 588 q 1025 333 1025 428 q 980 159 1025 239 q 857 33 935 79 q 688 -14 779 -14 q 519 33 596 -14 q 398 159 443 79 q 353 333 353 239 l 353 343 l 179 343 l 179 0 l 138 0 l 138 667 l 179 667 l 179 383 l 356 383 q 414 535 367 467 q 533 642 461 603 q 689 681 606 681 m 688 26 q 837 67 769 26 q 942 178 904 108 q 981 333 981 249 q 942 488 981 418 q 838 599 904 558 q 689 640 771 640 q 540 599 607 640 q 435 488 474 558 q 397 333 397 418 q 435 178 397 249 q 540 67 474 108 q 688 26 607 26 z "},"я":{"ha":715,"x_min":83,"x_max":578,"o":"m 578 667 l 578 0 l 536 0 l 536 278 l 353 278 l 135 0 l 83 0 l 304 281 q 165 341 217 290 q 114 471 114 392 q 177 614 114 561 q 349 667 240 667 l 578 667 m 536 628 l 351 628 q 210 586 263 628 q 158 472 158 544 q 210 358 158 400 q 351 317 263 317 l 536 317 l 536 628 z "},"ѐ":{"ha":796,"x_min":83,"x_max":713,"o":"m 708 329 l 128 329 q 167 175 128 244 q 274 66 207 106 q 424 26 342 26 q 557 57 496 26 q 661 143 618 88 l 692 118 q 574 22 644 57 q 424 -14 504 -14 q 253 33 331 -14 q 129 158 175 79 q 83 333 83 238 q 128 508 83 428 q 249 634 172 588 q 417 681 325 681 q 564 645 496 681 q 672 542 632 610 q 713 386 713 475 q 708 329 713 363 m 414 640 q 277 605 339 640 q 176 507 215 569 q 129 368 136 444 l 668 368 q 640 512 674 450 q 546 607 606 574 q 414 640 486 640 m 242 1076 l 242 1083 l 293 1083 l 426 781 l 390 781 l 242 1076 z "},"ё":{"ha":796,"x_min":83,"x_max":713,"o":"m 708 329 l 128 329 q 167 175 128 244 q 274 66 207 106 q 424 26 342 26 q 557 57 496 26 q 661 143 618 88 l 692 118 q 574 22 644 57 q 424 -14 504 -14 q 253 33 331 -14 q 129 158 175 79 q 83 333 83 238 q 128 508 83 428 q 249 634 172 588 q 417 681 325 681 q 564 645 496 681 q 672 542 632 610 q 713 386 713 475 q 708 329 713 363 m 414 640 q 277 605 339 640 q 176 507 215 569 q 129 368 136 444 l 668 368 q 640 512 674 450 q 546 607 606 574 q 414 640 486 640 m 271 878 q 261 878 271 878 q 238 892 251 878 q 224 925 224 906 q 238 958 224 944 q 271 972 251 972 q 304 958 290 972 q 318 925 318 944 q 304 892 318 906 q 271 878 290 878 m 536 878 q 526 878 536 878 q 503 892 517 878 q 489 925 489 906 q 503 958 489 944 q 536 972 517 972 q 569 958 556 972 q 583 925 583 944 q 569 892 583 906 q 536 878 556 878 z "},"ђ":{"ha":765,"x_min":18,"x_max":639,"o":"m 397 681 q 574 609 510 681 q 639 424 639 538 l 639 -76 q 588 -219 639 -174 q 450 -264 536 -264 q 381 -256 414 -264 l 381 -218 q 447 -225 419 -225 q 597 -76 597 -225 l 597 424 q 543 581 597 521 q 396 640 489 640 q 240 579 301 640 q 179 424 179 518 l 179 0 l 138 0 l 138 839 l 18 839 l 18 878 l 138 878 l 138 1042 l 179 1042 l 179 878 l 471 878 l 471 839 l 179 839 l 179 560 q 267 649 211 617 q 397 681 324 681 z "},"ѓ":{"ha":575,"x_min":138,"x_max":547,"o":"m 138 667 l 547 667 l 547 628 l 179 628 l 179 0 l 138 0 l 138 667 m 438 1083 l 489 1083 l 489 1076 l 340 781 l 304 781 l 438 1083 z "},"є":{"ha":768,"x_min":83,"x_max":692,"o":"m 424 26 q 557 57 496 26 q 661 143 618 88 l 692 118 q 574 22 644 57 q 424 -14 504 -14 q 253 33 331 -14 q 129 159 175 79 q 83 333 83 239 q 129 508 83 428 q 253 634 175 588 q 425 681 332 681 q 574 646 506 681 q 692 549 643 611 l 661 524 q 558 610 618 579 q 425 640 497 640 q 283 604 347 640 q 177 506 218 568 q 129 367 136 444 l 483 367 l 483 328 l 128 328 q 168 176 129 244 q 274 67 207 107 q 424 26 342 26 z "},"ѕ":{"ha":632,"x_min":72,"x_max":536,"o":"m 322 -14 q 178 26 240 -14 q 72 132 115 67 l 106 157 q 203 60 150 93 q 325 26 256 26 q 444 61 396 26 q 492 161 492 96 q 472 230 492 201 q 422 276 451 258 q 340 317 393 293 l 282 343 q 162 415 204 378 q 119 515 119 453 q 180 635 119 590 q 322 681 240 681 q 532 574 446 681 l 501 546 q 419 616 463 592 q 319 640 375 640 q 210 609 256 640 q 164 517 164 578 q 181 457 164 481 q 226 418 199 433 q 304 379 253 403 l 367 351 q 491 276 446 317 q 536 164 536 235 q 474 33 536 81 q 322 -14 411 -14 z "},"і":{"ha":361,"x_min":133,"x_max":228,"o":"m 181 878 q 171 878 181 878 q 147 892 161 878 q 133 925 133 906 q 147 958 133 944 q 181 972 161 972 q 214 958 200 972 q 228 925 228 944 q 214 892 228 906 q 181 878 200 878 m 160 667 l 201 667 l 201 0 l 160 0 l 160 667 z "},"ї":{"ha":333,"x_min":38,"x_max":296,"o":"m 82 881 q 51 894 64 881 q 38 925 38 907 q 51 958 38 944 q 82 971 64 971 q 115 958 101 971 q 128 925 128 944 q 115 894 128 907 q 82 881 101 881 m 250 881 q 219 894 232 881 q 206 925 206 907 q 219 958 206 944 q 250 971 232 971 q 283 958 269 971 q 296 925 296 944 q 283 894 296 907 q 250 881 269 881 m 146 667 l 188 667 l 188 0 l 146 0 l 146 667 z "},"ј":{"ha":317,"x_min":-79,"x_max":206,"o":"m -79 -256 l -79 -218 q -12 -225 -40 -225 q 138 -76 138 -225 l 138 667 l 179 667 l 179 -76 q 128 -219 179 -174 q -10 -264 76 -264 q -79 -256 -46 -264 m 158 878 q 149 878 158 878 q 125 892 139 878 q 111 925 111 906 q 125 958 111 944 q 158 972 139 972 q 192 958 178 972 q 206 925 206 944 q 192 892 206 906 q 158 878 178 878 z "},"љ":{"ha":1072,"x_min":28,"x_max":989,"o":"m 754 403 q 927 348 865 403 q 989 203 989 293 q 927 56 989 111 q 754 0 865 0 l 539 0 l 539 628 l 249 628 l 243 513 q 213 199 232 307 q 156 44 193 90 q 50 -3 118 -3 q 28 0 36 -3 l 28 39 q 50 38 38 38 q 136 90 106 38 q 181 242 167 142 q 203 514 196 343 l 210 667 l 581 667 l 581 403 l 754 403 m 751 39 q 894 84 844 39 q 944 201 944 129 q 894 319 944 274 q 751 364 844 364 l 581 364 l 581 39 l 751 39 z "},"њ":{"ha":1110,"x_min":138,"x_max":1026,"o":"m 792 396 q 965 343 904 396 q 1026 201 1026 290 q 965 56 1026 111 q 792 0 904 0 l 556 0 l 556 357 l 179 357 l 179 0 l 138 0 l 138 667 l 179 667 l 179 396 l 556 396 l 556 667 l 597 667 l 597 396 l 792 396 m 789 39 q 932 83 882 39 q 982 200 982 128 q 932 315 982 272 q 789 357 882 357 l 597 357 l 597 39 l 789 39 z "},"ћ":{"ha":765,"x_min":18,"x_max":639,"o":"m 397 681 q 574 609 510 681 q 639 424 639 538 l 639 0 l 597 0 l 597 424 q 543 581 597 521 q 396 640 489 640 q 240 579 301 640 q 179 424 179 518 l 179 0 l 138 0 l 138 839 l 18 839 l 18 878 l 138 878 l 138 1042 l 179 1042 l 179 878 l 471 878 l 471 839 l 179 839 l 179 560 q 267 649 211 617 q 397 681 324 681 z "},"ќ":{"ha":657,"x_min":138,"x_max":615,"o":"m 138 667 l 179 667 l 179 0 l 138 0 l 138 667 m 615 0 l 560 0 l 206 361 l 524 667 l 583 667 l 264 361 l 615 0 m 450 1083 l 501 1083 l 501 1076 l 353 781 l 317 781 l 450 1083 z "},"ѝ":{"ha":776,"x_min":138,"x_max":639,"o":"m 639 681 l 639 0 l 597 0 l 597 593 l 158 -14 l 138 -14 l 138 667 l 179 667 l 179 74 l 618 681 l 639 681 m 226 1076 l 226 1083 l 278 1083 l 411 781 l 375 781 l 226 1076 z "},"ў":{"ha":719,"x_min":50,"x_max":669,"o":"m 669 667 l 332 -122 q 252 -231 300 -197 q 139 -264 204 -264 q 50 -251 93 -264 l 50 -214 q 136 -225 101 -225 q 229 -197 190 -225 q 296 -104 268 -169 l 343 8 l 50 667 l 96 667 l 365 63 l 624 667 l 669 667 m 360 799 q 317 799 360 799 q 223 853 274 799 q 172 999 172 907 l 172 1046 l 214 1046 l 214 1001 q 253 880 214 924 q 360 836 292 836 q 467 880 428 836 q 506 1001 506 924 l 506 1046 l 547 1046 l 547 999 q 497 853 547 907 q 360 799 446 799 z "},"џ":{"ha":750,"x_min":138,"x_max":613,"o":"m 613 0 l 396 0 l 396 -196 l 354 -196 l 354 0 l 138 0 l 138 667 l 179 667 l 179 40 l 571 40 l 571 667 l 613 667 l 613 0 z "},"Ѣ":{"ha":843,"x_min":38,"x_max":781,"o":"m 213 714 l 38 714 l 38 753 l 213 753 l 213 917 l 257 917 l 257 753 l 560 753 l 560 714 l 257 714 l 257 513 l 503 513 q 652 479 589 513 q 748 388 715 446 q 781 256 781 329 q 748 124 781 182 q 652 33 715 67 q 503 0 589 0 l 213 0 l 213 714 m 500 40 q 674 101 614 40 q 735 257 735 161 q 674 413 735 353 q 500 472 614 472 l 257 472 l 257 40 l 500 40 z "},"ѣ":{"ha":726,"x_min":18,"x_max":643,"o":"m 179 628 l 18 628 l 18 667 l 179 667 l 179 1042 l 221 1042 l 221 667 l 457 667 l 457 628 l 221 628 l 221 403 l 408 403 q 581 348 519 403 q 643 203 643 293 q 581 56 643 111 q 408 0 519 0 l 179 0 l 179 628 m 406 39 q 549 84 499 39 q 599 201 599 129 q 549 319 599 274 q 406 364 499 364 l 221 364 l 221 39 l 406 39 z "},"Ѳ":{"ha":1089,"x_min":79,"x_max":1010,"o":"m 543 931 q 607 931 543 931 q 778 868 671 931 q 947 698 885 806 q 1010 458 1010 590 q 947 219 1010 328 q 778 49 885 111 q 543 -14 671 -14 q 309 49 415 -14 q 141 219 203 111 q 79 458 79 328 q 141 699 79 590 q 309 869 203 807 q 543 931 415 931 m 544 888 q 336 833 431 888 q 186 685 242 779 q 126 476 131 592 q 349 524 238 524 q 444 515 400 524 q 550 490 488 507 q 654 465 610 474 q 747 457 699 457 q 961 499 853 457 q 895 697 951 608 q 747 837 839 786 q 544 888 656 888 m 544 29 q 756 86 661 29 q 907 241 851 143 q 963 457 963 339 q 747 414 856 414 q 647 423 694 414 q 540 449 600 432 q 433 473 472 465 q 349 481 394 481 q 128 433 242 481 q 190 227 133 319 q 338 82 246 135 q 544 29 431 29 z "},"ѳ":{"ha":851,"x_min":83,"x_max":768,"o":"m 425 681 q 472 681 425 681 q 597 634 518 681 q 722 508 675 588 q 768 333 768 428 q 722 159 768 239 q 596 33 675 79 q 424 -14 517 -14 q 253 33 331 -14 q 129 159 175 79 q 83 333 83 239 q 129 508 83 428 q 253 634 175 588 q 425 681 332 681 m 425 640 q 385 640 425 640 q 280 603 346 640 q 174 500 214 565 q 129 356 133 435 q 278 388 207 388 q 347 381 315 388 q 428 360 379 374 q 506 339 474 346 q 574 332 538 332 q 722 363 640 332 q 675 504 715 440 q 569 604 635 568 q 425 640 504 640 m 425 26 q 574 66 507 26 q 682 174 642 106 q 724 324 722 242 q 574 293 642 293 q 499 301 535 293 q 419 322 463 308 q 341 342 369 336 q 278 349 313 349 q 128 317 213 349 q 172 169 132 236 q 278 65 211 103 q 425 26 344 26 z "},"Ѵ":{"ha":965,"x_min":63,"x_max":958,"o":"m 958 917 l 958 875 q 911 881 932 881 q 849 855 874 881 q 801 774 825 829 l 472 -14 l 451 -14 l 63 917 l 108 917 l 463 68 l 764 790 q 825 890 793 858 q 911 922 857 922 q 958 917 932 922 z "},"ѵ":{"ha":742,"x_min":50,"x_max":742,"o":"m 742 667 l 742 631 l 710 632 q 660 614 682 632 q 621 554 639 596 l 371 -14 l 350 -14 l 50 667 l 96 667 l 360 60 l 583 574 q 634 647 604 622 q 704 671 664 671 q 742 667 721 671 z "},"Ґ":{"ha":667,"x_min":143,"x_max":633,"o":"m 143 917 l 589 917 l 589 1085 l 633 1085 l 633 876 l 188 876 l 188 0 l 143 0 l 143 917 z "},"ґ":{"ha":575,"x_min":138,"x_max":547,"o":"m 138 667 l 506 667 l 506 835 l 547 835 l 547 628 l 179 628 l 179 0 l 138 0 l 138 667 z "},"Ғ":{"ha":668,"x_min":0,"x_max":647,"o":"m 188 876 l 188 451 l 447 451 l 447 413 l 188 413 l 188 0 l 143 0 l 143 413 l 0 413 l 0 451 l 143 451 l 143 917 l 647 917 l 647 876 l 188 876 z "},"ғ":{"ha":599,"x_min":14,"x_max":571,"o":"m 175 628 l 175 349 l 399 349 l 399 310 l 175 310 l 175 0 l 133 0 l 133 310 l 14 310 l 14 349 l 133 349 l 133 667 l 571 667 l 571 628 l 175 628 z "},"Җ":{"ha":1290,"x_min":56,"x_max":1269,"o":"m 149 917 l 589 499 l 115 0 l 56 0 l 532 499 l 86 917 l 149 917 m 615 917 l 660 917 l 660 0 l 615 0 l 615 917 m 1269 40 l 1269 -196 l 1225 -196 l 1225 0 l 1160 0 l 686 499 l 1126 917 l 1189 917 l 743 497 l 1181 40 l 1269 40 z "}}}
